STARTFONT 2.1
COMMENT
COMMENT Converted from OpenType font "Vollda-Bold.otf" by "otf2bdf 3.0".
COMMENT
FONT -FreeType-Vollda-Bold-R-Normal--17-120-100-100-P-93-ISO10646-1
SIZE 12 100 100
FONTBOUNDINGBOX 53 23 -3 -5
STARTPROPERTIES 19
FOUNDRY "FreeType"
FAMILY_NAME "Vollda"
WEIGHT_NAME "Bold"
SLANT "R"
SETWIDTH_NAME "Normal"
ADD_STYLE_NAME ""
PIXEL_SIZE 17
POINT_SIZE 120
RESOLUTION_X 100
RESOLUTION_Y 100
SPACING "P"
AVERAGE_WIDTH 93
CHARSET_REGISTRY "ISO10646"
CHARSET_ENCODING "1"
FONT_ASCENT 16
FONT_DESCENT 7
COPYRIGHT "Copyright 2023 Vollda (https://github.com/alexburba/vollda)"
_OTF_FONTFILE "Vollda-Bold.otf"
_OTF_PSNAME "Vollda-Bold"
ENDPROPERTIES
CHARS 1220
STARTCHAR 0000
ENCODING 0
SWIDTH 0 0
DWIDTH 0 0
BBX 0 0 0 0
BITMAP
ENDCHAR
STARTCHAR 000D
ENCODING 13
SWIDTH 180 0
DWIDTH 3 0
BBX 0 0 0 0
BITMAP
ENDCHAR
STARTCHAR 0020
ENCODING 32
SWIDTH 180 0
DWIDTH 3 0
BBX 0 0 0 0
BITMAP
ENDCHAR
STARTCHAR 0021
ENCODING 33
SWIDTH 360 0
DWIDTH 6 0
BBX 3 12 2 0
BITMAP
60
E0
E0
C0
40
40
40
40
00
00
E0
E0
ENDCHAR
STARTCHAR 0022
ENCODING 34
SWIDTH 360 0
DWIDTH 6 0
BBX 4 5 1 7
BITMAP
D0
D0
D0
90
10
ENDCHAR
STARTCHAR 0023
ENCODING 35
SWIDTH 600 0
DWIDTH 10 0
BBX 10 12 0 0
BITMAP
0980
0900
1900
1100
7FC0
1300
1200
3200
FF80
2200
2200
2400
ENDCHAR
STARTCHAR 0024
ENCODING 36
SWIDTH 540 0
DWIDTH 9 0
BBX 8 13 1 -1
BITMAP
10
7E
D6
D6
F0
F8
7E
1E
97
D7
D6
FC
10
ENDCHAR
STARTCHAR 0025
ENCODING 37
SWIDTH 840 0
DWIDTH 14 0
BBX 12 11 1 0
BITMAP
7820
4C40
CC80
4D00
7B00
0600
04E0
0930
1130
2130
61E0
ENDCHAR
STARTCHAR 0026
ENCODING 38
SWIDTH 720 0
DWIDTH 12 0
BBX 11 12 1 0
BITMAP
1E00
3300
3300
3000
39E0
38C0
7C80
CE80
C780
C380
E3C0
7DE0
ENDCHAR
STARTCHAR 0027
ENCODING 39
SWIDTH 180 0
DWIDTH 3 0
BBX 2 4 1 7
BITMAP
C0
C0
C0
80
ENDCHAR
STARTCHAR 0028
ENCODING 40
SWIDTH 300 0
DWIDTH 5 0
BBX 3 16 1 -5
BITMAP
20
60
40
C0
C0
C0
C0
C0
C0
C0
C0
C0
C0
40
60
20
ENDCHAR
STARTCHAR 0029
ENCODING 41
SWIDTH 300 0
DWIDTH 5 0
BBX 4 17 1 -5
BITMAP
80
40
40
60
20
30
30
30
30
30
30
20
60
40
40
80
80
ENDCHAR
STARTCHAR 002A
ENCODING 42
SWIDTH 420 0
DWIDTH 7 0
BBX 6 6 1 7
BITMAP
10
90
EC
3C
D0
18
ENDCHAR
STARTCHAR 002B
ENCODING 43
SWIDTH 540 0
DWIDTH 9 0
BBX 7 8 1 0
BITMAP
10
10
10
FE
10
10
10
10
ENDCHAR
STARTCHAR 002C
ENCODING 44
SWIDTH 240 0
DWIDTH 4 0
BBX 3 5 1 -3
BITMAP
E0
E0
60
40
C0
ENDCHAR
STARTCHAR 002D
ENCODING 45
SWIDTH 360 0
DWIDTH 6 0
BBX 5 1 1 4
BITMAP
F8
ENDCHAR
STARTCHAR 002E
ENCODING 46
SWIDTH 240 0
DWIDTH 4 0
BBX 3 3 1 0
BITMAP
40
E0
E0
ENDCHAR
STARTCHAR 002F
ENCODING 47
SWIDTH 360 0
DWIDTH 6 0
BBX 5 12 1 0
BITMAP
08
18
10
10
20
20
60
40
40
C0
80
80
ENDCHAR
STARTCHAR 0030
ENCODING 48
SWIDTH 600 0
DWIDTH 10 0
BBX 9 8 1 0
BITMAP
7E00
C700
C380
C380
C380
C300
E300
3E00
ENDCHAR
STARTCHAR 0031
ENCODING 49
SWIDTH 360 0
DWIDTH 6 0
BBX 5 8 1 0
BITMAP
F8
70
70
70
70
70
70
F8
ENDCHAR
STARTCHAR 0032
ENCODING 50
SWIDTH 480 0
DWIDTH 8 0
BBX 7 8 1 0
BITMAP
FC
CC
CC
1C
30
62
FE
FE
ENDCHAR
STARTCHAR 0033
ENCODING 51
SWIDTH 480 0
DWIDTH 8 0
BBX 7 11 1 -3
BITMAP
FE
FC
88
10
38
3C
0E
0E
0E
9C
F0
ENDCHAR
STARTCHAR 0034
ENCODING 52
SWIDTH 600 0
DWIDTH 10 0
BBX 8 11 1 -3
BITMAP
0E
0E
1E
2E
6E
CE
FF
FF
0E
0E
0C
ENDCHAR
STARTCHAR 0035
ENCODING 53
SWIDTH 480 0
DWIDTH 8 0
BBX 6 12 1 -3
BITMAP
04
7C
7C
80
E0
F8
3C
0C
0C
0C
18
F0
ENDCHAR
STARTCHAR 0036
ENCODING 54
SWIDTH 540 0
DWIDTH 9 0
BBX 8 11 1 0
BITMAP
04
38
70
E0
D8
FE
C6
C7
C6
E6
7C
ENDCHAR
STARTCHAR 0037
ENCODING 55
SWIDTH 420 0
DWIDTH 7 0
BBX 6 11 1 -3
BITMAP
FC
FC
88
18
10
30
30
60
60
60
40
ENDCHAR
STARTCHAR 0038
ENCODING 56
SWIDTH 540 0
DWIDTH 9 0
BBX 7 11 1 0
BITMAP
38
6E
C6
E6
7C
3C
7E
C6
C6
C6
7C
ENDCHAR
STARTCHAR 0039
ENCODING 57
SWIDTH 540 0
DWIDTH 9 0
BBX 8 11 1 -3
BITMAP
7E
C6
C7
C7
E7
FE
06
0E
1C
30
C0
ENDCHAR
STARTCHAR 003A
ENCODING 58
SWIDTH 240 0
DWIDTH 4 0
BBX 3 7 1 0
BITMAP
E0
E0
00
00
40
E0
C0
ENDCHAR
STARTCHAR 003B
ENCODING 59
SWIDTH 240 0
DWIDTH 4 0
BBX 3 10 1 -3
BITMAP
E0
E0
00
00
00
E0
E0
60
40
C0
ENDCHAR
STARTCHAR 003C
ENCODING 60
SWIDTH 540 0
DWIDTH 9 0
BBX 7 8 1 0
BITMAP
0E
18
60
C0
E0
38
0E
02
ENDCHAR
STARTCHAR 003D
ENCODING 61
SWIDTH 540 0
DWIDTH 9 0
BBX 7 4 1 2
BITMAP
FE
00
00
FE
ENDCHAR
STARTCHAR 003E
ENCODING 62
SWIDTH 540 0
DWIDTH 9 0
BBX 7 7 1 0
BITMAP
E0
30
0C
06
0E
18
60
ENDCHAR
STARTCHAR 003F
ENCODING 63
SWIDTH 480 0
DWIDTH 8 0
BBX 6 12 2 0
BITMAP
78
DC
9C
18
38
30
20
20
20
30
70
30
ENDCHAR
STARTCHAR 0040
ENCODING 64
SWIDTH 960 0
DWIDTH 16 0
BBX 13 14 2 -3
BITMAP
0FC0
3060
6010
47D8
8DC8
98C8
99C8
99C8
99D0
9ED0
DEE0
4000
3030
1FE0
ENDCHAR
STARTCHAR 0041
ENCODING 65
SWIDTH 660 0
DWIDTH 11 0
BBX 12 11 0 0
BITMAP
0600
0600
0F00
0F00
1300
1380
3180
3FC0
21C0
60E0
F1F0
ENDCHAR
STARTCHAR 0042
ENCODING 66
SWIDTH 660 0
DWIDTH 11 0
BBX 9 11 1 0
BITMAP
FF00
6380
6380
6300
6600
7F00
6380
6180
6180
7380
FF00
ENDCHAR
STARTCHAR 0043
ENCODING 67
SWIDTH 600 0
DWIDTH 10 0
BBX 9 11 1 0
BITMAP
3F80
6180
E180
C000
C000
C000
C000
E000
E000
7080
3F00
ENDCHAR
STARTCHAR 0044
ENCODING 68
SWIDTH 720 0
DWIDTH 12 0
BBX 11 11 1 0
BITMAP
FF00
61C0
60C0
60E0
60E0
60E0
60E0
60C0
61C0
7180
FE00
ENDCHAR
STARTCHAR 0045
ENCODING 69
SWIDTH 600 0
DWIDTH 10 0
BBX 9 11 1 0
BITMAP
FF00
6100
6100
6200
6600
7E00
6600
6000
6180
7180
FF00
ENDCHAR
STARTCHAR 0046
ENCODING 70
SWIDTH 540 0
DWIDTH 9 0
BBX 8 11 1 0
BITMAP
FF
61
61
60
62
7E
66
62
60
70
F8
ENDCHAR
STARTCHAR 0047
ENCODING 71
SWIDTH 660 0
DWIDTH 11 0
BBX 10 11 1 0
BITMAP
3F80
6080
E080
C000
C000
C000
C3C0
E180
E180
7180
3F80
ENDCHAR
STARTCHAR 0048
ENCODING 72
SWIDTH 720 0
DWIDTH 12 0
BBX 11 11 1 0
BITMAP
FBE0
61C0
60C0
60C0
60C0
7FC0
60C0
60C0
60C0
71C0
FBE0
ENDCHAR
STARTCHAR 0049
ENCODING 73
SWIDTH 360 0
DWIDTH 6 0
BBX 5 11 1 0
BITMAP
F8
60
60
60
60
60
60
60
60
70
F8
ENDCHAR
STARTCHAR 004A
ENCODING 74
SWIDTH 360 0
DWIDTH 6 0
BBX 5 15 0 -4
BITMAP
78
30
30
30
30
30
30
30
30
30
30
30
70
60
C0
ENDCHAR
STARTCHAR 004B
ENCODING 75
SWIDTH 720 0
DWIDTH 12 0
BBX 11 11 1 0
BITMAP
FBC0
6100
6200
6400
6C00
7C00
6E00
6700
6380
7380
F9E0
ENDCHAR
STARTCHAR 004C
ENCODING 76
SWIDTH 600 0
DWIDTH 10 0
BBX 9 11 1 0
BITMAP
F800
6000
6000
6000
6000
6000
6000
6000
6180
7100
FF00
ENDCHAR
STARTCHAR 004D
ENCODING 77
SWIDTH 960 0
DWIDTH 16 0
BBX 16 11 0 0
BITMAP
781E
3C1C
3C3C
2C3C
2E2C
264C
274C
278C
238C
638E
F11F
ENDCHAR
STARTCHAR 004E
ENCODING 78
SWIDTH 720 0
DWIDTH 12 0
BBX 10 11 1 0
BITMAP
E1C0
70C0
7880
5C80
5C80
4E80
4780
4380
4380
4180
E080
ENDCHAR
STARTCHAR 004F
ENCODING 79
SWIDTH 720 0
DWIDTH 12 0
BBX 11 11 1 0
BITMAP
3F80
61C0
E0C0
C0E0
C0E0
C0E0
C0E0
E0E0
E0C0
7180
3F00
ENDCHAR
STARTCHAR 0050
ENCODING 80
SWIDTH 600 0
DWIDTH 10 0
BBX 9 11 1 0
BITMAP
FF00
6380
6380
6380
6380
6300
6E00
6000
6000
7000
F800
ENDCHAR
STARTCHAR 0051
ENCODING 81
SWIDTH 720 0
DWIDTH 12 0
BBX 12 14 1 -3
BITMAP
3F80
61C0
E0C0
C0E0
C0E0
C0E0
C0E0
E0E0
E0C0
7180
3F00
0380
01E0
00F0
ENDCHAR
STARTCHAR 0052
ENCODING 82
SWIDTH 660 0
DWIDTH 11 0
BBX 10 11 1 0
BITMAP
FF00
6380
6180
6180
6380
7F00
6600
6700
6380
7380
F1C0
ENDCHAR
STARTCHAR 0053
ENCODING 83
SWIDTH 540 0
DWIDTH 9 0
BBX 8 11 1 0
BITMAP
7E
C6
C6
E0
F8
7E
1E
87
C7
C6
FC
ENDCHAR
STARTCHAR 0054
ENCODING 84
SWIDTH 600 0
DWIDTH 10 0
BBX 10 11 0 0
BITMAP
7FC0
4E40
CE40
0E00
0E00
0E00
0E00
0E00
0E00
0E00
1F00
ENDCHAR
STARTCHAR 0055
ENCODING 85
SWIDTH 660 0
DWIDTH 11 0
BBX 10 11 1 0
BITMAP
F1C0
6080
6080
6080
6080
6080
6080
6080
6180
7100
3E00
ENDCHAR
STARTCHAR 0056
ENCODING 86
SWIDTH 660 0
DWIDTH 11 0
BBX 11 11 0 0
BITMAP
F8E0
7040
3840
3880
1880
1C80
1D00
0D00
0E00
0600
0600
ENDCHAR
STARTCHAR 0057
ENCODING 87
SWIDTH 960 0
DWIDTH 16 0
BBX 16 11 0 0
BITMAP
F8C7
70C2
31E2
39E2
3964
1A74
1E74
1E38
0C38
0C38
0C18
ENDCHAR
STARTCHAR 0058
ENCODING 88
SWIDTH 660 0
DWIDTH 11 0
BBX 10 11 1 0
BITMAP
FBC0
7180
3900
3A00
1E00
0E00
1E00
3700
2700
6380
E7C0
ENDCHAR
STARTCHAR 0059
ENCODING 89
SWIDTH 600 0
DWIDTH 10 0
BBX 10 11 0 0
BITMAP
F9C0
7080
3880
3900
1D00
1E00
0E00
0E00
0E00
0E00
3F00
ENDCHAR
STARTCHAR 005A
ENCODING 90
SWIDTH 600 0
DWIDTH 10 0
BBX 8 11 1 0
BITMAP
FF
C7
CE
0E
1C
38
38
70
71
E3
FF
ENDCHAR
STARTCHAR 005B
ENCODING 91
SWIDTH 240 0
DWIDTH 4 0
BBX 3 16 1 -4
BITMAP
E0
80
80
80
80
80
80
80
80
80
80
80
80
80
80
E0
ENDCHAR
STARTCHAR 005C
ENCODING 92
SWIDTH 360 0
DWIDTH 6 0
BBX 5 12 1 0
BITMAP
80
80
C0
40
40
60
20
20
10
10
10
08
ENDCHAR
STARTCHAR 005D
ENCODING 93
SWIDTH 240 0
DWIDTH 4 0
BBX 3 16 1 -4
BITMAP
E0
20
20
20
20
20
20
20
20
20
20
20
20
20
20
E0
ENDCHAR
STARTCHAR 005E
ENCODING 94
SWIDTH 540 0
DWIDTH 9 0
BBX 7 6 1 6
BITMAP
10
38
6C
44
82
02
ENDCHAR
STARTCHAR 005F
ENCODING 95
SWIDTH 540 0
DWIDTH 9 0
BBX 8 1 1 -2
BITMAP
FF
ENDCHAR
STARTCHAR 0060
ENCODING 96
SWIDTH 300 0
DWIDTH 5 0
BBX 3 3 1 9
BITMAP
C0
60
20
ENDCHAR
STARTCHAR 0061
ENCODING 97
SWIDTH 480 0
DWIDTH 8 0
BBX 7 8 1 0
BITMAP
38
DC
CC
1C
6C
CC
CE
FE
ENDCHAR
STARTCHAR 0062
ENCODING 98
SWIDTH 600 0
DWIDTH 10 0
BBX 9 12 0 0
BITMAP
7000
F000
7000
7000
7700
7F80
7180
7180
7180
7180
7380
3E00
ENDCHAR
STARTCHAR 0063
ENCODING 99
SWIDTH 420 0
DWIDTH 7 0
BBX 6 8 1 0
BITMAP
38
6C
C4
C0
C0
C0
E0
7C
ENDCHAR
STARTCHAR 0064
ENCODING 100
SWIDTH 600 0
DWIDTH 10 0
BBX 9 12 1 0
BITMAP
0300
0F00
0700
0700
3F00
6700
C700
C700
C700
C700
E700
7F80
ENDCHAR
STARTCHAR 0065
ENCODING 101
SWIDTH 480 0
DWIDTH 8 0
BBX 7 8 1 0
BITMAP
38
EC
C6
C6
FE
C0
E2
7C
ENDCHAR
STARTCHAR 0066
ENCODING 102
SWIDTH 360 0
DWIDTH 6 0
BBX 7 12 1 0
BITMAP
1E
26
66
60
60
F8
60
60
60
60
60
F8
ENDCHAR
STARTCHAR 0067
ENCODING 103
SWIDTH 540 0
DWIDTH 9 0
BBX 8 12 1 -4
BITMAP
7F
CD
CE
CE
EC
78
C0
FE
FF
86
C6
FC
ENDCHAR
STARTCHAR 0068
ENCODING 104
SWIDTH 600 0
DWIDTH 10 0
BBX 10 12 0 0
BITMAP
3000
F000
3000
3000
3300
3F80
3180
3180
3180
3180
3180
FBC0
ENDCHAR
STARTCHAR 0069
ENCODING 105
SWIDTH 300 0
DWIDTH 5 0
BBX 4 12 1 0
BITMAP
40
E0
60
00
20
E0
60
60
60
60
60
F0
ENDCHAR
STARTCHAR 006A
ENCODING 106
SWIDTH 300 0
DWIDTH 5 0
BBX 4 16 0 -4
BITMAP
20
70
30
00
10
70
30
30
30
30
30
30
30
70
60
C0
ENDCHAR
STARTCHAR 006B
ENCODING 107
SWIDTH 600 0
DWIDTH 10 0
BBX 10 12 0 0
BITMAP
3000
F000
3000
3000
33C0
3180
3200
3600
3600
3700
3380
F9C0
ENDCHAR
STARTCHAR 006C
ENCODING 108
SWIDTH 300 0
DWIDTH 5 0
BBX 5 12 0 0
BITMAP
30
F0
30
30
30
30
30
30
30
30
30
F8
ENDCHAR
STARTCHAR 006D
ENCODING 109
SWIDTH 960 0
DWIDTH 16 0
BBX 15 8 1 0
BITMAP
2630
FF78
639C
631C
631C
631C
639C
F7BE
ENDCHAR
STARTCHAR 006E
ENCODING 110
SWIDTH 600 0
DWIDTH 10 0
BBX 9 8 1 0
BITMAP
2600
FF00
6300
6300
6300
6300
6380
F780
ENDCHAR
STARTCHAR 006F
ENCODING 111
SWIDTH 540 0
DWIDTH 9 0
BBX 8 8 1 0
BITMAP
3C
6E
C7
C7
C7
C7
E6
7C
ENDCHAR
STARTCHAR 0070
ENCODING 112
SWIDTH 600 0
DWIDTH 10 0
BBX 9 12 1 -4
BITMAP
2E00
FF00
6380
6380
6380
6380
6300
7E00
6000
6000
6000
F800
ENDCHAR
STARTCHAR 0071
ENCODING 113
SWIDTH 540 0
DWIDTH 9 0
BBX 9 12 1 -4
BITMAP
3C00
6700
C700
C700
C700
C700
E700
7F00
0700
0700
0700
0F80
ENDCHAR
STARTCHAR 0072
ENCODING 114
SWIDTH 420 0
DWIDTH 7 0
BBX 7 8 1 0
BITMAP
24
FE
64
60
60
60
60
F8
ENDCHAR
STARTCHAR 0073
ENCODING 115
SWIDTH 420 0
DWIDTH 7 0
BBX 6 8 1 0
BITMAP
78
C8
CC
F0
7C
9C
8C
F8
ENDCHAR
STARTCHAR 0074
ENCODING 116
SWIDTH 360 0
DWIDTH 6 0
BBX 6 10 0 0
BITMAP
70
70
70
FC
70
70
70
70
30
3C
ENDCHAR
STARTCHAR 0075
ENCODING 117
SWIDTH 600 0
DWIDTH 10 0
BBX 10 8 0 0
BITMAP
3180
F780
7380
7380
7380
7380
7380
3FC0
ENDCHAR
STARTCHAR 0076
ENCODING 118
SWIDTH 540 0
DWIDTH 9 0
BBX 9 8 0 0
BITMAP
FB80
7100
7100
3A00
3A00
1C00
1C00
0C00
ENDCHAR
STARTCHAR 0077
ENCODING 119
SWIDTH 780 0
DWIDTH 13 0
BBX 13 8 0 0
BITMAP
F938
7330
7390
33A0
3DA0
3DE0
18C0
18C0
ENDCHAR
STARTCHAR 0078
ENCODING 120
SWIDTH 540 0
DWIDTH 9 0
BBX 9 8 0 0
BITMAP
7B80
7300
3A00
1E00
1E00
3E00
2700
FF80
ENDCHAR
STARTCHAR 0079
ENCODING 121
SWIDTH 540 0
DWIDTH 9 0
BBX 9 12 0 -4
BITMAP
FB80
7180
3100
3A00
3A00
1A00
1C00
0C00
0800
0800
7000
7000
ENDCHAR
STARTCHAR 007A
ENCODING 122
SWIDTH 480 0
DWIDTH 8 0
BBX 7 8 1 0
BITMAP
FE
CC
9C
38
30
72
E6
FE
ENDCHAR
STARTCHAR 007B
ENCODING 123
SWIDTH 360 0
DWIDTH 6 0
BBX 4 16 1 -5
BITMAP
30
60
60
60
60
60
60
C0
E0
60
60
60
60
60
60
30
ENDCHAR
STARTCHAR 007C
ENCODING 124
SWIDTH 180 0
DWIDTH 3 0
BBX 1 16 1 -4
BITMAP
80
80
80
80
80
80
80
80
80
80
80
80
80
80
80
80
ENDCHAR
STARTCHAR 007D
ENCODING 125
SWIDTH 360 0
DWIDTH 6 0
BBX 5 16 1 -5
BITMAP
C0
60
60
60
60
60
60
38
30
60
60
60
60
60
60
C0
ENDCHAR
STARTCHAR 007E
ENCODING 126
SWIDTH 540 0
DWIDTH 9 0
BBX 7 3 1 3
BITMAP
20
FA
8C
ENDCHAR
STARTCHAR 00A0
ENCODING 160
SWIDTH 180 0
DWIDTH 3 0
BBX 0 0 0 0
BITMAP
ENDCHAR
STARTCHAR 00A1
ENCODING 161
SWIDTH 360 0
DWIDTH 6 0
BBX 3 12 2 -4
BITMAP
40
E0
C0
00
40
40
40
40
C0
E0
E0
E0
ENDCHAR
STARTCHAR 00A2
ENCODING 162
SWIDTH 420 0
DWIDTH 7 0
BBX 6 12 1 -2
BITMAP
10
10
38
7C
D4
D0
D0
D0
F0
7C
10
10
ENDCHAR
STARTCHAR 00A3
ENCODING 163
SWIDTH 540 0
DWIDTH 9 0
BBX 8 11 1 0
BITMAP
7E
66
E2
E0
70
FC
30
20
7D
7F
8E
ENDCHAR
STARTCHAR 00A4
ENCODING 164
SWIDTH 540 0
DWIDTH 9 0
BBX 7 6 1 2
BITMAP
FE
44
46
46
64
FA
ENDCHAR
STARTCHAR 00A5
ENCODING 165
SWIDTH 600 0
DWIDTH 10 0
BBX 10 11 0 0
BITMAP
F9C0
7080
3880
3900
1D00
3F80
0E00
3F80
0E00
0E00
3F00
ENDCHAR
STARTCHAR 00A6
ENCODING 166
SWIDTH 180 0
DWIDTH 3 0
BBX 1 16 1 -4
BITMAP
80
80
80
80
80
80
80
00
00
80
80
80
80
80
80
80
ENDCHAR
STARTCHAR 00A7
ENCODING 167
SWIDTH 540 0
DWIDTH 9 0
BBX 8 16 1 -4
BITMAP
3C
6C
44
60
78
7E
CE
C7
C2
E6
7C
3C
0E
46
64
7C
ENDCHAR
STARTCHAR 00A8
ENCODING 168
SWIDTH 300 0
DWIDTH 5 0
BBX 7 2 -1 9
BITMAP
6C
EE
ENDCHAR
STARTCHAR 00A9
ENCODING 169
SWIDTH 780 0
DWIDTH 13 0
BBX 11 12 1 -2
BITMAP
0600
3980
6640
5B20
9920
B020
B020
B820
D920
4E40
30C0
0F00
ENDCHAR
STARTCHAR 00AA
ENCODING 170
SWIDTH 420 0
DWIDTH 7 0
BBX 6 6 1 6
BITMAP
F0
98
38
D8
D8
FC
ENDCHAR
STARTCHAR 00AB
ENCODING 171
SWIDTH 480 0
DWIDTH 8 0
BBX 6 6 1 1
BITMAP
24
6C
D8
CC
6C
24
ENDCHAR
STARTCHAR 00AC
ENCODING 172
SWIDTH 540 0
DWIDTH 9 0
BBX 7 4 1 2
BITMAP
FE
02
02
02
ENDCHAR
STARTCHAR 00AD
ENCODING 173
SWIDTH 360 0
DWIDTH 6 0
BBX 5 1 1 4
BITMAP
F8
ENDCHAR
STARTCHAR 00AE
ENCODING 174
SWIDTH 480 0
DWIDTH 8 0
BBX 7 7 1 6
BITMAP
7C
94
AA
B2
AA
44
38
ENDCHAR
STARTCHAR 00AF
ENCODING 175
SWIDTH 300 0
DWIDTH 5 0
BBX 6 1 0 10
BITMAP
FC
ENDCHAR
STARTCHAR 00B0
ENCODING 176
SWIDTH 360 0
DWIDTH 6 0
BBX 5 5 1 7
BITMAP
60
D8
D8
D8
70
ENDCHAR
STARTCHAR 00B1
ENCODING 177
SWIDTH 540 0
DWIDTH 9 0
BBX 7 7 1 1
BITMAP
10
10
7E
10
10
10
FE
ENDCHAR
STARTCHAR 00B2
ENCODING 178
SWIDTH 360 0
DWIDTH 6 0
BBX 5 6 1 7
BITMAP
F0
B0
B0
20
48
F8
ENDCHAR
STARTCHAR 00B3
ENCODING 179
SWIDTH 360 0
DWIDTH 6 0
BBX 5 8 1 5
BITMAP
F0
F0
A0
60
38
18
18
F0
ENDCHAR
STARTCHAR 00B4
ENCODING 180
SWIDTH 300 0
DWIDTH 5 0
BBX 3 3 1 9
BITMAP
60
C0
80
ENDCHAR
STARTCHAR 00B5
ENCODING 181
SWIDTH 600 0
DWIDTH 10 0
BBX 9 12 1 -4
BITMAP
2100
EF00
6300
6300
6300
6700
6780
7B80
6000
6000
6000
C000
ENDCHAR
STARTCHAR 00B6
ENCODING 182
SWIDTH 540 0
DWIDTH 9 0
BBX 8 15 1 -4
BITMAP
7F
CA
CA
CA
EA
7A
0A
0A
0A
0A
0A
0A
0A
0A
0A
ENDCHAR
STARTCHAR 00B7
ENCODING 183
SWIDTH 240 0
DWIDTH 4 0
BBX 3 3 1 3
BITMAP
40
E0
C0
ENDCHAR
STARTCHAR 00B8
ENCODING 184
SWIDTH 300 0
DWIDTH 5 0
BBX 3 4 1 -4
BITMAP
40
E0
60
C0
ENDCHAR
STARTCHAR 00B9
ENCODING 185
SWIDTH 300 0
DWIDTH 5 0
BBX 4 6 1 7
BITMAP
F0
60
60
60
60
F0
ENDCHAR
STARTCHAR 00BA
ENCODING 186
SWIDTH 420 0
DWIDTH 7 0
BBX 6 6 1 6
BITMAP
70
D8
CC
CC
C8
78
ENDCHAR
STARTCHAR 00BB
ENCODING 187
SWIDTH 480 0
DWIDTH 8 0
BBX 6 6 1 1
BITMAP
90
4C
6C
6C
C8
10
ENDCHAR
STARTCHAR 00BC
ENCODING 188
SWIDTH 840 0
DWIDTH 14 0
BBX 13 12 1 0
BITMAP
E030
6060
6040
6080
61A0
6130
FA70
04B0
0DB0
09F8
1030
3078
ENDCHAR
STARTCHAR 00BD
ENCODING 189
SWIDTH 960 0
DWIDTH 16 0
BBX 15 12 1 0
BITMAP
E030
6060
6040
6080
6180
617C
FA6E
040C
0C18
0832
107E
307E
ENDCHAR
STARTCHAR 00BE
ENCODING 190
SWIDTH 840 0
DWIDTH 14 0
BBX 13 12 1 0
BITMAP
F820
F060
2040
7080
3920
1B70
F270
04B0
0D30
19F8
1030
2070
ENDCHAR
STARTCHAR 00BF
ENCODING 191
SWIDTH 480 0
DWIDTH 8 0
BBX 6 12 1 -4
BITMAP
30
38
30
00
10
10
30
30
60
E4
EC
7C
ENDCHAR
STARTCHAR 00C0
ENCODING 192
SWIDTH 660 0
DWIDTH 11 0
BBX 12 15 0 0
BITMAP
0C00
0C00
0600
0000
0600
0600
0F00
0F00
1300
1380
3180
3FC0
21C0
60E0
F1F0
ENDCHAR
STARTCHAR 00C1
ENCODING 193
SWIDTH 660 0
DWIDTH 11 0
BBX 12 15 0 0
BITMAP
0300
0600
0400
0000
0600
0600
0F00
0F00
1300
1380
3180
3FC0
21C0
60E0
F1F0
ENDCHAR
STARTCHAR 00C2
ENCODING 194
SWIDTH 660 0
DWIDTH 11 0
BBX 12 15 0 0
BITMAP
0600
0F00
1100
0000
0600
0600
0F00
0F00
1300
1380
3180
3FC0
21C0
60E0
F1F0
ENDCHAR
STARTCHAR 00C3
ENCODING 195
SWIDTH 660 0
DWIDTH 11 0
BBX 12 14 0 0
BITMAP
1F80
0200
0000
0600
0600
0F00
0F00
1300
1380
3180
3FC0
21C0
60E0
F1F0
ENDCHAR
STARTCHAR 00C4
ENCODING 196
SWIDTH 660 0
DWIDTH 11 0
BBX 12 14 0 0
BITMAP
1B80
1980
0000
0600
0600
0F00
0F00
1300
1380
3180
3FC0
21C0
60E0
F1F0
ENDCHAR
STARTCHAR 00C5
ENCODING 197
SWIDTH 660 0
DWIDTH 11 0
BBX 12 15 0 0
BITMAP
0600
0B00
0E00
0000
0600
0600
0F00
0F00
1300
1380
3180
3FC0
21C0
60E0
F1F0
ENDCHAR
STARTCHAR 00C6
ENCODING 198
SWIDTH 900 0
DWIDTH 15 0
BBX 15 11 0 0
BITMAP
07FE
02C6
02C2
04C0
0CC8
0FF8
18C8
10C8
20C2
60C6
F3FE
ENDCHAR
STARTCHAR 00C7
ENCODING 199
SWIDTH 600 0
DWIDTH 10 0
BBX 9 15 1 -4
BITMAP
3F80
6180
E180
C000
C000
C000
C000
E000
E000
7080
3F00
0800
0C00
0400
0C00
ENDCHAR
STARTCHAR 00C8
ENCODING 200
SWIDTH 600 0
DWIDTH 10 0
BBX 9 15 1 0
BITMAP
3000
1000
1800
0000
FF00
6100
6100
6200
6600
7E00
6600
6000
6180
7180
FF00
ENDCHAR
STARTCHAR 00C9
ENCODING 201
SWIDTH 600 0
DWIDTH 10 0
BBX 9 15 1 0
BITMAP
0C00
0800
1800
0000
FF00
6100
6100
6200
6600
7E00
6600
6000
6180
7180
FF00
ENDCHAR
STARTCHAR 00CA
ENCODING 202
SWIDTH 600 0
DWIDTH 10 0
BBX 9 15 1 0
BITMAP
1800
3C00
4600
0000
FF00
6100
6100
6200
6600
7E00
6600
6000
6180
7180
FF00
ENDCHAR
STARTCHAR 00CB
ENCODING 203
SWIDTH 600 0
DWIDTH 10 0
BBX 9 14 1 0
BITMAP
6600
6600
0000
FF00
6100
6100
6200
6600
7E00
6600
6000
6180
7180
FF00
ENDCHAR
STARTCHAR 00CC
ENCODING 204
SWIDTH 360 0
DWIDTH 6 0
BBX 5 15 1 0
BITMAP
40
60
20
00
F8
60
60
60
60
60
60
60
60
70
F8
ENDCHAR
STARTCHAR 00CD
ENCODING 205
SWIDTH 360 0
DWIDTH 6 0
BBX 5 15 1 0
BITMAP
30
30
60
00
F8
60
60
60
60
60
60
60
60
70
F8
ENDCHAR
STARTCHAR 00CE
ENCODING 206
SWIDTH 360 0
DWIDTH 6 0
BBX 5 15 1 0
BITMAP
20
70
98
00
F8
60
60
60
60
60
60
60
60
70
F8
ENDCHAR
STARTCHAR 00CF
ENCODING 207
SWIDTH 360 0
DWIDTH 6 0
BBX 6 14 0 0
BITMAP
EC
6C
00
7C
30
30
30
30
30
30
30
30
38
7C
ENDCHAR
STARTCHAR 00D0
ENCODING 208
SWIDTH 720 0
DWIDTH 12 0
BBX 12 11 0 0
BITMAP
7F80
30E0
3060
3070
3070
FE70
3070
3060
30E0
38C0
7F00
ENDCHAR
STARTCHAR 00D1
ENCODING 209
SWIDTH 720 0
DWIDTH 12 0
BBX 10 14 1 0
BITMAP
3F00
2600
0000
E1C0
70C0
7880
5C80
5C80
4E80
4780
4380
4380
4180
E080
ENDCHAR
STARTCHAR 00D2
ENCODING 210
SWIDTH 720 0
DWIDTH 12 0
BBX 11 15 1 0
BITMAP
0800
0C00
0400
0000
3F80
61C0
E0C0
C0E0
C0E0
C0E0
C0E0
E0E0
E0C0
7180
3F00
ENDCHAR
STARTCHAR 00D3
ENCODING 211
SWIDTH 720 0
DWIDTH 12 0
BBX 11 15 1 0
BITMAP
0600
0600
0C00
0000
3F80
61C0
E0C0
C0E0
C0E0
C0E0
C0E0
E0E0
E0C0
7180
3F00
ENDCHAR
STARTCHAR 00D4
ENCODING 212
SWIDTH 720 0
DWIDTH 12 0
BBX 11 15 1 0
BITMAP
0400
1E00
1300
0000
3F80
61C0
E0C0
C0E0
C0E0
C0E0
C0E0
E0E0
E0C0
7180
3F00
ENDCHAR
STARTCHAR 00D5
ENCODING 213
SWIDTH 720 0
DWIDTH 12 0
BBX 11 14 1 0
BITMAP
3F00
2600
0000
3F80
61C0
E0C0
C0E0
C0E0
C0E0
C0E0
E0E0
E0C0
7180
3F00
ENDCHAR
STARTCHAR 00D6
ENCODING 214
SWIDTH 720 0
DWIDTH 12 0
BBX 11 14 1 0
BITMAP
3B00
3300
0000
3F80
61C0
E0C0
C0E0
C0E0
C0E0
C0E0
E0E0
E0C0
7180
3F00
ENDCHAR
STARTCHAR 00D7
ENCODING 215
SWIDTH 540 0
DWIDTH 9 0
BBX 7 8 1 0
BITMAP
82
44
28
10
38
6C
C6
82
ENDCHAR
STARTCHAR 00D8
ENCODING 216
SWIDTH 720 0
DWIDTH 12 0
BBX 11 12 1 0
BITMAP
0040
3FC0
61C0
E1C0
C2E0
C6E0
CCE0
C8E0
F0E0
F0C0
7180
FF00
ENDCHAR
STARTCHAR 00D9
ENCODING 217
SWIDTH 660 0
DWIDTH 11 0
BBX 10 15 1 0
BITMAP
0800
0C00
0400
0000
F1C0
6080
6080
6080
6080
6080
6080
6080
6180
7100
3E00
ENDCHAR
STARTCHAR 00DA
ENCODING 218
SWIDTH 660 0
DWIDTH 11 0
BBX 10 15 1 0
BITMAP
0700
0600
0400
0000
F1C0
6080
6080
6080
6080
6080
6080
6080
6180
7100
3E00
ENDCHAR
STARTCHAR 00DB
ENCODING 219
SWIDTH 660 0
DWIDTH 11 0
BBX 10 15 1 0
BITMAP
0400
1E00
1100
0000
F1C0
6080
6080
6080
6080
6080
6080
6080
6180
7100
3E00
ENDCHAR
STARTCHAR 00DC
ENCODING 220
SWIDTH 660 0
DWIDTH 11 0
BBX 10 14 1 0
BITMAP
3B80
1B00
0000
F1C0
6080
6080
6080
6080
6080
6080
6080
6180
7100
3E00
ENDCHAR
STARTCHAR 00DD
ENCODING 221
SWIDTH 600 0
DWIDTH 10 0
BBX 10 15 0 0
BITMAP
0300
0200
0600
0000
F9C0
7080
3880
3900
1D00
1E00
0E00
0E00
0E00
0E00
3F00
ENDCHAR
STARTCHAR 00DE
ENCODING 222
SWIDTH 600 0
DWIDTH 10 0
BBX 9 11 1 0
BITMAP
F800
6000
7F00
6380
6180
6180
6380
6700
6800
7000
F800
ENDCHAR
STARTCHAR 00DF
ENCODING 223
SWIDTH 660 0
DWIDTH 11 0
BBX 10 12 1 0
BITMAP
1E00
3300
6300
6300
6600
EC00
6F00
6780
63C0
69C0
6DC0
EF80
ENDCHAR
STARTCHAR 00E0
ENCODING 224
SWIDTH 540 0
DWIDTH 9 0
BBX 8 12 1 0
BITMAP
60
30
10
00
1C
6E
CE
0E
3E
CE
EE
7F
ENDCHAR
STARTCHAR 00E1
ENCODING 225
SWIDTH 540 0
DWIDTH 9 0
BBX 8 12 1 0
BITMAP
0C
18
10
00
1C
6E
CE
0E
3E
CE
EE
7F
ENDCHAR
STARTCHAR 00E2
ENCODING 226
SWIDTH 540 0
DWIDTH 9 0
BBX 8 12 1 0
BITMAP
10
38
CC
00
1C
6E
CE
0E
3E
CE
EE
7F
ENDCHAR
STARTCHAR 00E3
ENCODING 227
SWIDTH 540 0
DWIDTH 9 0
BBX 8 11 1 0
BITMAP
7C
98
00
1C
6E
CE
0E
3E
CE
EE
7F
ENDCHAR
STARTCHAR 00E4
ENCODING 228
SWIDTH 540 0
DWIDTH 9 0
BBX 8 11 1 0
BITMAP
CC
EC
00
1C
6E
CE
0E
3E
CE
EE
7F
ENDCHAR
STARTCHAR 00E5
ENCODING 229
SWIDTH 540 0
DWIDTH 9 0
BBX 8 12 1 0
BITMAP
38
68
78
00
1C
6E
CE
0E
3E
CE
EE
7F
ENDCHAR
STARTCHAR 00E6
ENCODING 230
SWIDTH 720 0
DWIDTH 12 0
BBX 11 8 1 0
BITMAP
7B80
DEC0
CCC0
0FE0
FC00
CC00
DE00
F7C0
ENDCHAR
STARTCHAR 00E7
ENCODING 231
SWIDTH 420 0
DWIDTH 7 0
BBX 6 12 1 -4
BITMAP
38
6C
C4
C0
C0
C0
E0
7C
10
38
08
30
ENDCHAR
STARTCHAR 00E8
ENCODING 232
SWIDTH 480 0
DWIDTH 8 0
BBX 7 12 1 0
BITMAP
60
30
10
00
38
EC
C6
C6
FE
C0
E2
7C
ENDCHAR
STARTCHAR 00E9
ENCODING 233
SWIDTH 480 0
DWIDTH 8 0
BBX 7 12 1 0
BITMAP
0C
18
10
00
38
EC
C6
C6
FE
C0
E2
7C
ENDCHAR
STARTCHAR 00EA
ENCODING 234
SWIDTH 480 0
DWIDTH 8 0
BBX 7 12 1 0
BITMAP
18
38
4C
00
38
EC
C6
C6
FE
C0
E2
7C
ENDCHAR
STARTCHAR 00EB
ENCODING 235
SWIDTH 480 0
DWIDTH 8 0
BBX 7 11 1 0
BITMAP
EC
EE
00
38
EC
C6
C6
FE
C0
E2
7C
ENDCHAR
STARTCHAR 00EC
ENCODING 236
SWIDTH 300 0
DWIDTH 5 0
BBX 5 12 0 0
BITMAP
E0
60
30
00
10
70
30
30
30
30
30
78
ENDCHAR
STARTCHAR 00ED
ENCODING 237
SWIDTH 300 0
DWIDTH 5 0
BBX 4 12 1 0
BITMAP
30
20
60
00
20
E0
60
60
60
60
60
F0
ENDCHAR
STARTCHAR 00EE
ENCODING 238
SWIDTH 300 0
DWIDTH 5 0
BBX 5 12 0 0
BITMAP
30
70
D8
00
10
70
30
30
30
30
30
78
ENDCHAR
STARTCHAR 00EF
ENCODING 239
SWIDTH 300 0
DWIDTH 5 0
BBX 6 11 0 0
BITMAP
DC
DC
00
10
70
30
30
30
30
30
78
ENDCHAR
STARTCHAR 00F0
ENCODING 240
SWIDTH 540 0
DWIDTH 9 0
BBX 8 12 1 0
BITMAP
70
3E
1C
2E
3E
67
C7
C7
C7
C7
E6
7C
ENDCHAR
STARTCHAR 00F1
ENCODING 241
SWIDTH 600 0
DWIDTH 10 0
BBX 9 11 1 0
BITMAP
3F00
4E00
0000
2600
FF00
6300
6300
6300
6300
6380
F780
ENDCHAR
STARTCHAR 00F2
ENCODING 242
SWIDTH 540 0
DWIDTH 9 0
BBX 8 12 1 0
BITMAP
70
30
10
00
3C
6E
C7
C7
C7
C7
E6
7C
ENDCHAR
STARTCHAR 00F3
ENCODING 243
SWIDTH 540 0
DWIDTH 9 0
BBX 8 12 1 0
BITMAP
0C
08
18
00
3C
6E
C7
C7
C7
C7
E6
7C
ENDCHAR
STARTCHAR 00F4
ENCODING 244
SWIDTH 540 0
DWIDTH 9 0
BBX 8 12 1 0
BITMAP
18
3C
66
00
3C
6E
C7
C7
C7
C7
E6
7C
ENDCHAR
STARTCHAR 00F5
ENCODING 245
SWIDTH 540 0
DWIDTH 9 0
BBX 8 11 1 0
BITMAP
7E
1C
00
3C
6E
C7
C7
C7
C7
E6
7C
ENDCHAR
STARTCHAR 00F6
ENCODING 246
SWIDTH 540 0
DWIDTH 9 0
BBX 8 11 1 0
BITMAP
6E
6E
00
3C
6E
C7
C7
C7
C7
E6
7C
ENDCHAR
STARTCHAR 00F7
ENCODING 247
SWIDTH 540 0
DWIDTH 9 0
BBX 8 8 1 0
BITMAP
38
18
00
FF
00
10
38
10
ENDCHAR
STARTCHAR 00F8
ENCODING 248
SWIDTH 540 0
DWIDTH 9 0
BBX 8 9 1 -1
BITMAP
3F
6E
CF
CF
D7
E7
E6
FC
80
ENDCHAR
STARTCHAR 00F9
ENCODING 249
SWIDTH 600 0
DWIDTH 10 0
BBX 10 12 0 0
BITMAP
1800
0800
0C00
0000
3180
F780
7380
7380
7380
7380
7380
3FC0
ENDCHAR
STARTCHAR 00FA
ENCODING 250
SWIDTH 600 0
DWIDTH 10 0
BBX 10 12 0 0
BITMAP
0600
0400
0C00
0000
3180
F780
7380
7380
7380
7380
7380
3FC0
ENDCHAR
STARTCHAR 00FB
ENCODING 251
SWIDTH 600 0
DWIDTH 10 0
BBX 10 12 0 0
BITMAP
0C00
1E00
3300
0000
3180
F780
7380
7380
7380
7380
7380
3FC0
ENDCHAR
STARTCHAR 00FC
ENCODING 252
SWIDTH 600 0
DWIDTH 10 0
BBX 10 11 0 0
BITMAP
3300
3300
0000
3180
F780
7380
7380
7380
7380
7380
3FC0
ENDCHAR
STARTCHAR 00FD
ENCODING 253
SWIDTH 540 0
DWIDTH 9 0
BBX 9 16 0 -4
BITMAP
0300
0600
0400
0000
FB80
7180
3100
3A00
3A00
1A00
1C00
0C00
0800
0800
7000
7000
ENDCHAR
STARTCHAR 00FE
ENCODING 254
SWIDTH 600 0
DWIDTH 10 0
BBX 10 16 0 -4
BITMAP
3000
F000
3000
3000
3700
3F80
31C0
31C0
31C0
31C0
3180
3F00
3000
3000
3000
FC00
ENDCHAR
STARTCHAR 00FF
ENCODING 255
SWIDTH 540 0
DWIDTH 9 0
BBX 9 15 0 -4
BITMAP
3B00
3B00
0000
FB80
7180
3100
3A00
3A00
1A00
1C00
0C00
0800
0800
7000
7000
ENDCHAR
STARTCHAR 0100
ENCODING 256
SWIDTH 660 0
DWIDTH 11 0
BBX 12 14 0 0
BITMAP
1F80
0000
0000
0600
0600
0F00
0F00
1300
1380
3180
3FC0
21C0
60E0
F1F0
ENDCHAR
STARTCHAR 0101
ENCODING 257
SWIDTH 540 0
DWIDTH 9 0
BBX 8 11 1 0
BITMAP
FC
00
00
1C
6E
CE
0E
3E
CE
EE
7F
ENDCHAR
STARTCHAR 0102
ENCODING 258
SWIDTH 660 0
DWIDTH 11 0
BBX 12 15 0 0
BITMAP
1100
1F00
0F00
0000
0600
0600
0F00
0F00
1300
1380
3180
3FC0
21C0
60E0
F1F0
ENDCHAR
STARTCHAR 0103
ENCODING 259
SWIDTH 540 0
DWIDTH 9 0
BBX 8 12 1 0
BITMAP
84
C4
7C
00
1C
6E
CE
0E
3E
CE
EE
7F
ENDCHAR
STARTCHAR 0104
ENCODING 260
SWIDTH 660 0
DWIDTH 11 0
BBX 12 15 0 -4
BITMAP
0600
0600
0F00
0F00
1300
1380
3180
3FC0
21C0
60E0
F1F0
0080
0180
01C0
01C0
ENDCHAR
STARTCHAR 0105
ENCODING 261
SWIDTH 540 0
DWIDTH 9 0
BBX 8 12 1 -4
BITMAP
1C
6E
CE
0E
3E
CE
EE
7F
0C
0C
0E
0E
ENDCHAR
STARTCHAR 0106
ENCODING 262
SWIDTH 600 0
DWIDTH 10 0
BBX 9 15 1 0
BITMAP
0600
0600
0C00
0000
3F80
6180
E180
C000
C000
C000
C000
E000
E000
7080
3F00
ENDCHAR
STARTCHAR 0107
ENCODING 263
SWIDTH 420 0
DWIDTH 7 0
BBX 6 12 1 0
BITMAP
0C
18
10
00
38
6C
C4
C0
C0
C0
E0
7C
ENDCHAR
STARTCHAR 0108
ENCODING 264
SWIDTH 600 0
DWIDTH 10 0
BBX 9 15 1 0
BITMAP
0400
1E00
1300
0000
3F80
6180
E180
C000
C000
C000
C000
E000
E000
7080
3F00
ENDCHAR
STARTCHAR 0109
ENCODING 265
SWIDTH 420 0
DWIDTH 7 0
BBX 6 12 1 0
BITMAP
10
38
4C
00
38
6C
C4
C0
C0
C0
E0
7C
ENDCHAR
STARTCHAR 010A
ENCODING 266
SWIDTH 600 0
DWIDTH 10 0
BBX 9 14 1 0
BITMAP
0E00
0C00
0000
3F80
6180
E180
C000
C000
C000
C000
E000
E000
7080
3F00
ENDCHAR
STARTCHAR 010B
ENCODING 267
SWIDTH 420 0
DWIDTH 7 0
BBX 6 11 1 0
BITMAP
38
38
00
38
6C
C4
C0
C0
C0
E0
7C
ENDCHAR
STARTCHAR 010C
ENCODING 268
SWIDTH 600 0
DWIDTH 10 0
BBX 9 15 1 0
BITMAP
1100
1E00
0C00
0000
3F80
6180
E180
C000
C000
C000
C000
E000
E000
7080
3F00
ENDCHAR
STARTCHAR 010D
ENCODING 269
SWIDTH 420 0
DWIDTH 7 0
BBX 6 12 1 0
BITMAP
44
6C
38
00
38
6C
C4
C0
C0
C0
E0
7C
ENDCHAR
STARTCHAR 010E
ENCODING 270
SWIDTH 720 0
DWIDTH 12 0
BBX 11 15 1 0
BITMAP
2200
1E00
0800
0000
FF00
61C0
60C0
60E0
60E0
60E0
60E0
60C0
61C0
7180
FE00
ENDCHAR
STARTCHAR 010F
ENCODING 271
SWIDTH 720 0
DWIDTH 12 0
BBX 11 12 1 0
BITMAP
0360
0FE0
0760
0760
3F40
6700
C700
C700
C700
C700
EF00
7B80
ENDCHAR
STARTCHAR 0110
ENCODING 272
SWIDTH 720 0
DWIDTH 12 0
BBX 12 11 0 0
BITMAP
7F80
30E0
3060
3070
3070
FE70
3070
3060
30E0
38C0
7F00
ENDCHAR
STARTCHAR 0111
ENCODING 273
SWIDTH 600 0
DWIDTH 10 0
BBX 9 12 1 0
BITMAP
0300
0F00
0700
0F00
3F00
6700
C700
C700
C700
C700
E700
7F80
ENDCHAR
STARTCHAR 0112
ENCODING 274
SWIDTH 600 0
DWIDTH 10 0
BBX 9 14 1 0
BITMAP
7E00
0000
0000
FF00
6100
6100
6200
6600
7E00
6600
6000
6180
7180
FF00
ENDCHAR
STARTCHAR 0113
ENCODING 275
SWIDTH 480 0
DWIDTH 8 0
BBX 7 11 1 0
BITMAP
FE
00
00
38
EC
C6
C6
FE
C0
E2
7C
ENDCHAR
STARTCHAR 0114
ENCODING 276
SWIDTH 600 0
DWIDTH 10 0
BBX 9 15 1 0
BITMAP
2200
7E00
3C00
0000
FF00
6100
6100
6200
6600
7E00
6600
6000
6180
7180
FF00
ENDCHAR
STARTCHAR 0115
ENCODING 277
SWIDTH 480 0
DWIDTH 8 0
BBX 7 12 1 0
BITMAP
C6
C4
7C
00
38
EC
C6
C6
FE
C0
E2
7C
ENDCHAR
STARTCHAR 0116
ENCODING 278
SWIDTH 600 0
DWIDTH 10 0
BBX 9 14 1 0
BITMAP
1800
1800
0000
FF00
6100
6100
6200
6600
7E00
6600
6000
6180
7180
FF00
ENDCHAR
STARTCHAR 0117
ENCODING 279
SWIDTH 480 0
DWIDTH 8 0
BBX 7 11 1 0
BITMAP
38
38
00
38
EC
C6
C6
FE
C0
E2
7C
ENDCHAR
STARTCHAR 0118
ENCODING 280
SWIDTH 600 0
DWIDTH 10 0
BBX 9 15 1 -4
BITMAP
FF00
6100
6100
6200
6600
7E00
6600
6000
6180
7180
FF00
0600
0C00
0F00
0E00
ENDCHAR
STARTCHAR 0119
ENCODING 281
SWIDTH 480 0
DWIDTH 8 0
BBX 7 12 1 -4
BITMAP
38
EC
C6
C6
FE
C0
E2
7C
08
18
1E
1C
ENDCHAR
STARTCHAR 011A
ENCODING 282
SWIDTH 600 0
DWIDTH 10 0
BBX 9 15 1 0
BITMAP
6200
3C00
1800
0000
FF00
6100
6100
6200
6600
7E00
6600
6000
6180
7180
FF00
ENDCHAR
STARTCHAR 011B
ENCODING 283
SWIDTH 480 0
DWIDTH 8 0
BBX 7 12 1 0
BITMAP
44
6C
38
00
38
EC
C6
C6
FE
C0
E2
7C
ENDCHAR
STARTCHAR 011C
ENCODING 284
SWIDTH 660 0
DWIDTH 11 0
BBX 10 15 1 0
BITMAP
0400
1E00
1100
0000
3F80
6080
E080
C000
C000
C000
C3C0
E180
E180
7180
3F80
ENDCHAR
STARTCHAR 011D
ENCODING 285
SWIDTH 540 0
DWIDTH 9 0
BBX 8 16 1 -4
BITMAP
10
38
CC
00
7F
CD
CE
CE
EC
78
C0
FE
FF
86
C6
FC
ENDCHAR
STARTCHAR 011E
ENCODING 286
SWIDTH 660 0
DWIDTH 11 0
BBX 10 15 1 0
BITMAP
1100
1B00
0E00
0000
3F80
6080
E080
C000
C000
C000
C3C0
E180
E180
7180
3F80
ENDCHAR
STARTCHAR 011F
ENCODING 287
SWIDTH 540 0
DWIDTH 9 0
BBX 8 16 1 -4
BITMAP
84
CC
7C
00
7F
CD
CE
CE
EC
78
C0
FE
FF
86
C6
FC
ENDCHAR
STARTCHAR 0120
ENCODING 288
SWIDTH 660 0
DWIDTH 11 0
BBX 10 14 1 0
BITMAP
0E00
0E00
0000
3F80
6080
E080
C000
C000
C000
C3C0
E180
E180
7180
3F80
ENDCHAR
STARTCHAR 0121
ENCODING 289
SWIDTH 540 0
DWIDTH 9 0
BBX 8 15 1 -4
BITMAP
38
38
00
7F
CD
CE
CE
EC
78
C0
FE
FF
86
C6
FC
ENDCHAR
STARTCHAR 0122
ENCODING 290
SWIDTH 660 0
DWIDTH 11 0
BBX 10 16 1 -5
BITMAP
3F80
6080
E080
C000
C000
C000
C3C0
E180
E180
7180
3F80
0000
0E00
0E00
0400
0800
ENDCHAR
STARTCHAR 0123
ENCODING 291
SWIDTH 540 0
DWIDTH 9 0
BBX 8 16 1 -4
BITMAP
10
30
30
20
7F
CD
CE
CE
EC
78
C0
FE
FF
86
C6
FC
ENDCHAR
STARTCHAR 0124
ENCODING 292
SWIDTH 720 0
DWIDTH 12 0
BBX 11 15 1 0
BITMAP
0400
0E00
1100
0000
FBE0
61C0
60C0
60C0
60C0
7FC0
60C0
60C0
60C0
71C0
FBE0
ENDCHAR
STARTCHAR 0125
ENCODING 293
SWIDTH 600 0
DWIDTH 10 0
BBX 10 15 0 0
BITMAP
0C00
1E00
2300
3000
F000
3000
3000
3300
3F80
3180
3180
3180
3180
3180
FBC0
ENDCHAR
STARTCHAR 0126
ENCODING 294
SWIDTH 720 0
DWIDTH 12 0
BBX 11 11 1 0
BITMAP
FBE0
61C0
FFE0
E0C0
60C0
7FC0
60C0
60C0
60C0
71C0
FBE0
ENDCHAR
STARTCHAR 0127
ENCODING 295
SWIDTH 600 0
DWIDTH 10 0
BBX 10 12 0 0
BITMAP
3000
F000
3000
FC00
3300
3F80
3180
3180
3180
3180
3180
FBC0
ENDCHAR
STARTCHAR 0128
ENCODING 296
SWIDTH 360 0
DWIDTH 6 0
BBX 5 14 1 0
BITMAP
F8
30
00
F8
60
60
60
60
60
60
60
60
70
F8
ENDCHAR
STARTCHAR 0129
ENCODING 297
SWIDTH 300 0
DWIDTH 5 0
BBX 6 11 0 0
BITMAP
7C
F8
00
10
70
30
30
30
30
30
78
ENDCHAR
STARTCHAR 012A
ENCODING 298
SWIDTH 360 0
DWIDTH 6 0
BBX 5 14 1 0
BITMAP
F8
00
00
F8
60
60
60
60
60
60
60
60
70
F8
ENDCHAR
STARTCHAR 012B
ENCODING 299
SWIDTH 300 0
DWIDTH 5 0
BBX 5 11 0 0
BITMAP
78
F0
00
10
70
30
30
30
30
30
78
ENDCHAR
STARTCHAR 012C
ENCODING 300
SWIDTH 360 0
DWIDTH 6 0
BBX 5 15 1 0
BITMAP
80
98
F0
00
F8
60
60
60
60
60
60
60
60
70
F8
ENDCHAR
STARTCHAR 012D
ENCODING 301
SWIDTH 300 0
DWIDTH 5 0
BBX 6 12 0 0
BITMAP
8C
C8
78
00
10
70
30
30
30
30
30
78
ENDCHAR
STARTCHAR 012E
ENCODING 302
SWIDTH 360 0
DWIDTH 6 0
BBX 5 15 1 -4
BITMAP
F8
60
60
60
60
60
60
60
60
70
F8
60
C0
F0
F0
ENDCHAR
STARTCHAR 012F
ENCODING 303
SWIDTH 300 0
DWIDTH 5 0
BBX 4 16 1 -4
BITMAP
40
E0
60
00
20
E0
60
60
60
60
60
F0
40
C0
F0
E0
ENDCHAR
STARTCHAR 0130
ENCODING 304
SWIDTH 360 0
DWIDTH 6 0
BBX 5 14 1 0
BITMAP
70
60
00
F8
60
60
60
60
60
60
60
60
70
F8
ENDCHAR
STARTCHAR 0131
ENCODING 305
SWIDTH 300 0
DWIDTH 5 0
BBX 4 8 1 0
BITMAP
20
E0
60
60
60
60
60
F0
ENDCHAR
STARTCHAR 0132
ENCODING 306
SWIDTH 660 0
DWIDTH 11 0
BBX 10 15 1 -4
BITMAP
FFC0
6380
6380
6380
6380
6380
6380
6380
6380
7380
FB80
0300
0300
0600
0C00
ENDCHAR
STARTCHAR 0133
ENCODING 307
SWIDTH 540 0
DWIDTH 9 0
BBX 8 16 1 -4
BITMAP
42
E7
67
00
21
EF
63
63
63
63
63
F3
07
06
06
0C
ENDCHAR
STARTCHAR 0134
ENCODING 308
SWIDTH 360 0
DWIDTH 6 0
BBX 5 19 0 -4
BITMAP
10
78
D8
00
78
30
30
30
30
30
30
30
30
30
30
30
70
60
C0
ENDCHAR
STARTCHAR 0135
ENCODING 309
SWIDTH 300 0
DWIDTH 5 0
BBX 5 16 0 -4
BITMAP
30
70
D8
00
10
70
30
30
30
30
30
30
30
70
60
C0
ENDCHAR
STARTCHAR 0136
ENCODING 310
SWIDTH 720 0
DWIDTH 12 0
BBX 11 16 1 -5
BITMAP
FBC0
6100
6200
6400
6C00
7C00
6E00
6700
6380
7380
F9E0
0000
0C00
0C00
0C00
0800
ENDCHAR
STARTCHAR 0137
ENCODING 311
SWIDTH 600 0
DWIDTH 10 0
BBX 10 17 0 -5
BITMAP
3000
F000
3000
3000
33C0
3180
3200
3600
3600
3700
3380
F9C0
0000
0C00
0C00
0C00
0800
ENDCHAR
STARTCHAR 0138
ENCODING 312
SWIDTH 600 0
DWIDTH 10 0
BBX 9 8 1 0
BITMAP
2700
E600
6C00
7800
7C00
6E00
6700
F380
ENDCHAR
STARTCHAR 0139
ENCODING 313
SWIDTH 600 0
DWIDTH 10 0
BBX 9 15 1 0
BITMAP
3000
3000
6000
0000
F800
6000
6000
6000
6000
6000
6000
6000
6180
7100
FF00
ENDCHAR
STARTCHAR 013A
ENCODING 314
SWIDTH 300 0
DWIDTH 5 0
BBX 5 15 0 0
BITMAP
18
30
00
30
F0
30
30
30
30
30
30
30
30
30
F8
ENDCHAR
STARTCHAR 013B
ENCODING 315
SWIDTH 600 0
DWIDTH 10 0
BBX 9 16 1 -5
BITMAP
F800
6000
6000
6000
6000
6000
6000
6000
6180
7100
FF00
0000
1800
1800
0800
1000
ENDCHAR
STARTCHAR 013C
ENCODING 316
SWIDTH 300 0
DWIDTH 5 0
BBX 5 17 0 -5
BITMAP
30
F0
30
30
30
30
30
30
30
30
30
F8
00
30
30
30
20
ENDCHAR
STARTCHAR 013D
ENCODING 317
SWIDTH 600 0
DWIDTH 10 0
BBX 9 12 1 0
BITMAP
0380
FB80
6100
6100
6200
6000
6000
6000
6000
6180
7100
FF00
ENDCHAR
STARTCHAR 013E
ENCODING 318
SWIDTH 480 0
DWIDTH 8 0
BBX 8 12 0 0
BITMAP
37
F7
33
32
34
30
30
30
30
30
30
F8
ENDCHAR
STARTCHAR 013F
ENCODING 319
SWIDTH 600 0
DWIDTH 10 0
BBX 9 11 1 0
BITMAP
F800
6000
6000
6000
6300
6300
6000
6000
6180
7100
FF00
ENDCHAR
STARTCHAR 0140
ENCODING 320
SWIDTH 300 0
DWIDTH 5 0
BBX 7 12 0 0
BITMAP
30
F0
30
30
30
36
36
30
30
30
30
F8
ENDCHAR
STARTCHAR 0141
ENCODING 321
SWIDTH 600 0
DWIDTH 10 0
BBX 10 11 0 0
BITMAP
7C00
3000
3000
3000
3C00
3800
F000
3000
30C0
3880
7F80
ENDCHAR
STARTCHAR 0142
ENCODING 322
SWIDTH 300 0
DWIDTH 5 0
BBX 6 12 0 0
BITMAP
30
F0
30
30
34
3C
30
F0
B0
30
30
F8
ENDCHAR
STARTCHAR 0143
ENCODING 323
SWIDTH 720 0
DWIDTH 12 0
BBX 10 15 1 0
BITMAP
0600
0400
0C00
0000
E1C0
70C0
7880
5C80
5C80
4E80
4780
4380
4380
4180
E080
ENDCHAR
STARTCHAR 0144
ENCODING 324
SWIDTH 600 0
DWIDTH 10 0
BBX 9 12 1 0
BITMAP
0600
0C00
0800
0000
2600
FF00
6300
6300
6300
6300
6380
F780
ENDCHAR
STARTCHAR 0145
ENCODING 325
SWIDTH 720 0
DWIDTH 12 0
BBX 10 16 1 -5
BITMAP
E1C0
70C0
7880
5C80
5C80
4E80
4780
4380
4380
4180
E080
0000
0E00
0E00
0400
0C00
ENDCHAR
STARTCHAR 0146
ENCODING 326
SWIDTH 600 0
DWIDTH 10 0
BBX 9 13 1 -5
BITMAP
2600
FF00
6300
6300
6300
6300
6380
F780
0000
1C00
1C00
0800
1800
ENDCHAR
STARTCHAR 0147
ENCODING 327
SWIDTH 720 0
DWIDTH 12 0
BBX 10 15 1 0
BITMAP
1100
1E00
0C00
0000
E1C0
70C0
7880
5C80
5C80
4E80
4780
4380
4380
4180
E080
ENDCHAR
STARTCHAR 0148
ENCODING 328
SWIDTH 600 0
DWIDTH 10 0
BBX 9 12 1 0
BITMAP
2200
3600
1C00
0000
2600
FF00
6300
6300
6300
6300
6380
F780
ENDCHAR
STARTCHAR 0149
ENCODING 329
SWIDTH 840 0
DWIDTH 14 0
BBX 13 12 1 0
BITMAP
E000
E000
6000
4000
C4C0
1FE0
0C70
0C70
0C70
0C70
0C70
1EF8
ENDCHAR
STARTCHAR 014A
ENCODING 330
SWIDTH 660 0
DWIDTH 11 0
BBX 10 15 1 -4
BITMAP
EF80
79C0
71C0
71C0
61C0
61C0
61C0
61C0
61C0
71C0
F9C0
01C0
0180
0F80
0F00
ENDCHAR
STARTCHAR 014B
ENCODING 331
SWIDTH 600 0
DWIDTH 10 0
BBX 8 12 1 -4
BITMAP
26
FF
73
63
63
63
63
F3
03
03
1E
1C
ENDCHAR
STARTCHAR 014C
ENCODING 332
SWIDTH 720 0
DWIDTH 12 0
BBX 11 14 1 0
BITMAP
3F00
0000
0000
3F80
61C0
E0C0
C0E0
C0E0
C0E0
C0E0
E0E0
E0C0
7180
3F00
ENDCHAR
STARTCHAR 014D
ENCODING 333
SWIDTH 540 0
DWIDTH 9 0
BBX 8 11 1 0
BITMAP
7E
00
00
3C
6E
C7
C7
C7
C7
E6
7C
ENDCHAR
STARTCHAR 014E
ENCODING 334
SWIDTH 720 0
DWIDTH 12 0
BBX 11 15 1 0
BITMAP
1100
1B00
1E00
0000
3F80
61C0
E0C0
C0E0
C0E0
C0E0
C0E0
E0E0
E0C0
7180
3F00
ENDCHAR
STARTCHAR 014F
ENCODING 335
SWIDTH 540 0
DWIDTH 9 0
BBX 8 12 1 0
BITMAP
42
66
7C
00
3C
6E
C7
C7
C7
C7
E6
7C
ENDCHAR
STARTCHAR 0150
ENCODING 336
SWIDTH 720 0
DWIDTH 12 0
BBX 11 15 1 0
BITMAP
0D80
1B00
1200
0000
3F80
61C0
E0C0
C0E0
C0E0
C0E0
C0E0
E0E0
E0C0
7180
3F00
ENDCHAR
STARTCHAR 0151
ENCODING 337
SWIDTH 540 0
DWIDTH 9 0
BBX 8 12 1 0
BITMAP
36
36
24
00
3C
6E
C7
C7
C7
C7
E6
7C
ENDCHAR
STARTCHAR 0152
ENCODING 338
SWIDTH 960 0
DWIDTH 16 0
BBX 15 11 1 0
BITMAP
3FFC
6184
E1C6
C0C0
C0C8
C0F8
C0C8
C0C0
E1C2
7186
3FFE
ENDCHAR
STARTCHAR 0153
ENCODING 339
SWIDTH 780 0
DWIDTH 13 0
BBX 12 8 1 0
BITMAP
39C0
EF70
C730
C630
C7F0
C700
E710
7DE0
ENDCHAR
STARTCHAR 0154
ENCODING 340
SWIDTH 660 0
DWIDTH 11 0
BBX 10 15 1 0
BITMAP
0E00
0C00
0800
0000
FF00
6380
6180
6180
6380
7F00
6600
6700
6380
7380
F1C0
ENDCHAR
STARTCHAR 0155
ENCODING 341
SWIDTH 420 0
DWIDTH 7 0
BBX 7 12 1 0
BITMAP
18
18
10
00
24
FE
64
60
60
60
60
F8
ENDCHAR
STARTCHAR 0156
ENCODING 342
SWIDTH 660 0
DWIDTH 11 0
BBX 10 16 1 -5
BITMAP
FF00
6380
6180
6180
6380
7F00
6600
6700
6380
7380
F1C0
0000
0C00
0C00
0400
0800
ENDCHAR
STARTCHAR 0157
ENCODING 343
SWIDTH 420 0
DWIDTH 7 0
BBX 7 13 1 -5
BITMAP
24
FE
64
60
60
60
60
F8
00
70
70
20
40
ENDCHAR
STARTCHAR 0158
ENCODING 344
SWIDTH 660 0
DWIDTH 11 0
BBX 10 15 1 0
BITMAP
2200
3C00
1800
0000
FF00
6380
6180
6180
6380
7F00
6600
6700
6380
7380
F1C0
ENDCHAR
STARTCHAR 0159
ENCODING 345
SWIDTH 420 0
DWIDTH 7 0
BBX 7 12 1 0
BITMAP
C4
78
30
00
24
FE
64
60
60
60
60
F8
ENDCHAR
STARTCHAR 015A
ENCODING 346
SWIDTH 540 0
DWIDTH 9 0
BBX 8 15 1 0
BITMAP
0C
18
10
00
7E
C6
C6
E0
F8
7E
1E
87
C7
C6
FC
ENDCHAR
STARTCHAR 015B
ENCODING 347
SWIDTH 420 0
DWIDTH 7 0
BBX 6 12 1 0
BITMAP
18
10
30
00
78
C8
CC
F0
7C
9C
8C
F8
ENDCHAR
STARTCHAR 015C
ENCODING 348
SWIDTH 540 0
DWIDTH 9 0
BBX 8 15 1 0
BITMAP
18
3C
44
00
7E
C6
C6
E0
F8
7E
1E
87
C7
C6
FC
ENDCHAR
STARTCHAR 015D
ENCODING 349
SWIDTH 420 0
DWIDTH 7 0
BBX 6 12 1 0
BITMAP
30
78
CC
00
78
C8
CC
F0
7C
9C
8C
F8
ENDCHAR
STARTCHAR 015E
ENCODING 350
SWIDTH 540 0
DWIDTH 9 0
BBX 8 15 1 -4
BITMAP
7E
C6
C6
E0
F8
7E
1E
87
C7
C6
FC
10
18
08
38
ENDCHAR
STARTCHAR 015F
ENCODING 351
SWIDTH 420 0
DWIDTH 7 0
BBX 6 12 1 -4
BITMAP
78
C8
CC
F0
7C
9C
8C
F8
20
30
10
70
ENDCHAR
STARTCHAR 0160
ENCODING 352
SWIDTH 540 0
DWIDTH 9 0
BBX 8 15 1 0
BITMAP
44
3C
10
00
7E
C6
C6
E0
F8
7E
1E
87
C7
C6
FC
ENDCHAR
STARTCHAR 0161
ENCODING 353
SWIDTH 420 0
DWIDTH 7 0
BBX 6 12 1 0
BITMAP
84
F8
70
00
78
C8
CC
F0
7C
9C
8C
F8
ENDCHAR
STARTCHAR 0162
ENCODING 354
SWIDTH 600 0
DWIDTH 10 0
BBX 10 15 0 -4
BITMAP
7FC0
4E40
CE40
0E00
0E00
0E00
0E00
0E00
0E00
0E00
1F00
0800
0E00
0600
0C00
ENDCHAR
STARTCHAR 0163
ENCODING 355
SWIDTH 360 0
DWIDTH 6 0
BBX 6 14 0 -4
BITMAP
70
70
70
FC
70
70
70
70
30
3C
10
38
08
30
ENDCHAR
STARTCHAR 0164
ENCODING 356
SWIDTH 600 0
DWIDTH 10 0
BBX 10 15 0 0
BITMAP
1100
1E00
0C00
0000
7FC0
4E40
CE40
0E00
0E00
0E00
0E00
0E00
0E00
0E00
1F00
ENDCHAR
STARTCHAR 0165
ENCODING 357
SWIDTH 480 0
DWIDTH 8 0
BBX 9 12 0 0
BITMAP
0380
0380
7180
7100
7300
FC00
7000
7000
7000
7000
3000
3C00
ENDCHAR
STARTCHAR 0166
ENCODING 358
SWIDTH 600 0
DWIDTH 10 0
BBX 10 11 0 0
BITMAP
7FC0
4E40
CE40
0E00
0E00
3F80
0E00
0E00
0E00
0E00
1F00
ENDCHAR
STARTCHAR 0167
ENCODING 359
SWIDTH 360 0
DWIDTH 6 0
BBX 6 10 0 0
BITMAP
70
70
70
FC
70
F8
70
70
30
3C
ENDCHAR
STARTCHAR 0168
ENCODING 360
SWIDTH 660 0
DWIDTH 11 0
BBX 10 14 1 0
BITMAP
3F00
0200
0000
F1C0
6080
6080
6080
6080
6080
6080
6080
6180
7100
3E00
ENDCHAR
STARTCHAR 0169
ENCODING 361
SWIDTH 600 0
DWIDTH 10 0
BBX 10 11 0 0
BITMAP
3F00
2600
0000
3180
F780
7380
7380
7380
7380
7380
3FC0
ENDCHAR
STARTCHAR 016A
ENCODING 362
SWIDTH 660 0
DWIDTH 11 0
BBX 10 14 1 0
BITMAP
3F80
0000
0000
F1C0
6080
6080
6080
6080
6080
6080
6080
6180
7100
3E00
ENDCHAR
STARTCHAR 016B
ENCODING 363
SWIDTH 600 0
DWIDTH 10 0
BBX 10 11 0 0
BITMAP
3F00
0000
0000
3180
F780
7380
7380
7380
7380
7380
3FC0
ENDCHAR
STARTCHAR 016C
ENCODING 364
SWIDTH 660 0
DWIDTH 11 0
BBX 10 15 1 0
BITMAP
1100
1B00
0E00
0000
F1C0
6080
6080
6080
6080
6080
6080
6080
6180
7100
3E00
ENDCHAR
STARTCHAR 016D
ENCODING 365
SWIDTH 600 0
DWIDTH 10 0
BBX 10 12 0 0
BITMAP
2100
3300
1E00
0000
3180
F780
7380
7380
7380
7380
7380
3FC0
ENDCHAR
STARTCHAR 016E
ENCODING 366
SWIDTH 660 0
DWIDTH 11 0
BBX 10 15 1 0
BITMAP
0E00
0A00
0E00
0000
F1C0
6080
6080
6080
6080
6080
6080
6080
6180
7100
3E00
ENDCHAR
STARTCHAR 016F
ENCODING 367
SWIDTH 600 0
DWIDTH 10 0
BBX 10 12 0 0
BITMAP
0E00
1200
1E00
0000
3180
F780
7380
7380
7380
7380
7380
3FC0
ENDCHAR
STARTCHAR 0170
ENCODING 368
SWIDTH 660 0
DWIDTH 11 0
BBX 10 15 1 0
BITMAP
0D80
1900
1200
0000
F1C0
6080
6080
6080
6080
6080
6080
6080
6180
7100
3E00
ENDCHAR
STARTCHAR 0171
ENCODING 369
SWIDTH 600 0
DWIDTH 10 0
BBX 10 12 0 0
BITMAP
0D80
1B00
1200
0000
3180
F780
7380
7380
7380
7380
7380
3FC0
ENDCHAR
STARTCHAR 0172
ENCODING 370
SWIDTH 660 0
DWIDTH 11 0
BBX 10 15 1 -4
BITMAP
F1C0
6080
6080
6080
6080
6080
6080
6080
6180
7100
3E00
0400
0C00
0F00
0F00
ENDCHAR
STARTCHAR 0173
ENCODING 371
SWIDTH 600 0
DWIDTH 10 0
BBX 10 12 0 -4
BITMAP
3180
F780
7380
7380
7380
7380
7380
3FC0
0100
0300
03C0
0380
ENDCHAR
STARTCHAR 0174
ENCODING 372
SWIDTH 960 0
DWIDTH 16 0
BBX 16 15 0 0
BITMAP
00C0
01E0
0230
0000
F8C7
70C2
31E2
39E2
3964
1A74
1E74
1E38
0C38
0C38
0C18
ENDCHAR
STARTCHAR 0175
ENCODING 373
SWIDTH 780 0
DWIDTH 13 0
BBX 13 12 0 0
BITMAP
0100
0380
0CC0
0000
F938
7330
7390
33A0
3DA0
3DE0
18C0
18C0
ENDCHAR
STARTCHAR 0176
ENCODING 374
SWIDTH 600 0
DWIDTH 10 0
BBX 10 15 0 0
BITMAP
0600
0F00
1180
0000
F9C0
7080
3880
3900
1D00
1E00
0E00
0E00
0E00
0E00
3F00
ENDCHAR
STARTCHAR 0177
ENCODING 375
SWIDTH 540 0
DWIDTH 9 0
BBX 9 16 0 -4
BITMAP
0400
0E00
3300
0000
FB80
7180
3100
3A00
3A00
1A00
1C00
0C00
0800
0800
7000
7000
ENDCHAR
STARTCHAR 0178
ENCODING 376
SWIDTH 600 0
DWIDTH 10 0
BBX 10 14 0 0
BITMAP
1980
1980
0000
F9C0
7080
3880
3900
1D00
1E00
0E00
0E00
0E00
0E00
3F00
ENDCHAR
STARTCHAR 0179
ENCODING 377
SWIDTH 600 0
DWIDTH 10 0
BBX 8 15 1 0
BITMAP
0C
0C
18
00
FF
C7
CE
0E
1C
38
38
70
71
E3
FF
ENDCHAR
STARTCHAR 017A
ENCODING 378
SWIDTH 480 0
DWIDTH 8 0
BBX 7 12 1 0
BITMAP
0C
18
10
00
FE
CC
9C
38
30
72
E6
FE
ENDCHAR
STARTCHAR 017B
ENCODING 379
SWIDTH 600 0
DWIDTH 10 0
BBX 8 14 1 0
BITMAP
1C
18
00
FF
C7
CE
0E
1C
38
38
70
71
E3
FF
ENDCHAR
STARTCHAR 017C
ENCODING 380
SWIDTH 480 0
DWIDTH 8 0
BBX 7 11 1 0
BITMAP
38
38
00
FE
CC
9C
38
30
72
E6
FE
ENDCHAR
STARTCHAR 017D
ENCODING 381
SWIDTH 600 0
DWIDTH 10 0
BBX 8 15 1 0
BITMAP
22
3C
18
00
FF
C7
CE
0E
1C
38
38
70
71
E3
FF
ENDCHAR
STARTCHAR 017E
ENCODING 382
SWIDTH 480 0
DWIDTH 8 0
BBX 7 12 1 0
BITMAP
C4
78
30
00
FE
CC
9C
38
30
72
E6
FE
ENDCHAR
STARTCHAR 017F
ENCODING 383
SWIDTH 360 0
DWIDTH 6 0
BBX 7 12 1 0
BITMAP
1E
26
66
60
60
E0
60
60
60
60
60
F8
ENDCHAR
STARTCHAR 018E
ENCODING 398
SWIDTH 600 0
DWIDTH 10 0
BBX 9 11 1 0
BITMAP
FF80
C700
8600
0600
2600
3E00
2600
0600
8600
C700
FF80
ENDCHAR
STARTCHAR 018F
ENCODING 399
SWIDTH 660 0
DWIDTH 11 0
BBX 10 11 1 0
BITMAP
FE00
C380
8380
0180
01C0
FFC0
C180
C180
C180
6300
3E00
ENDCHAR
STARTCHAR 0192
ENCODING 402
SWIDTH 360 0
DWIDTH 6 0
BBX 12 16 -3 -4
BITMAP
00F0
0320
0320
0700
0700
0F80
0600
0600
0600
0E00
0E00
0C00
0C00
4C00
D800
F000
ENDCHAR
STARTCHAR 019D
ENCODING 413
SWIDTH 720 0
DWIDTH 12 0
BBX 13 15 -2 -4
BITMAP
1C38
0E18
0F10
0B90
0B90
09D0
08F0
0870
0870
0830
0810
0800
1800
F000
E000
ENDCHAR
STARTCHAR 01A0
ENCODING 416
SWIDTH 720 0
DWIDTH 12 0
BBX 11 13 1 0
BITMAP
0060
0040
3F80
61C0
E0C0
C0E0
C0E0
C0E0
C0E0
E0E0
E0C0
7180
3F00
ENDCHAR
STARTCHAR 01A1
ENCODING 417
SWIDTH 600 0
DWIDTH 10 0
BBX 8 10 1 0
BITMAP
01
01
3F
6E
C7
C7
C7
C7
E6
7C
ENDCHAR
STARTCHAR 01AF
ENCODING 431
SWIDTH 720 0
DWIDTH 12 0
BBX 11 13 1 0
BITMAP
0020
0060
F1C0
6080
6080
6080
6080
6080
6080
6080
6180
7100
3E00
ENDCHAR
STARTCHAR 01B0
ENCODING 432
SWIDTH 660 0
DWIDTH 11 0
BBX 10 10 0 0
BITMAP
0040
0040
31C0
F780
7380
7380
7380
7380
7380
3FC0
ENDCHAR
STARTCHAR 01B7
ENCODING 439
SWIDTH 600 0
DWIDTH 10 0
BBX 8 11 1 0
BITMAP
FF
C6
8E
1C
38
3E
07
03
83
C7
FE
ENDCHAR
STARTCHAR 01C4
ENCODING 452
SWIDTH 1320 0
DWIDTH 22 0
BBX 21 15 1 0
BITMAP
000220
0003C0
000180
000000
FF07F0
61C470
60CCE0
60E0E0
60E1C0
60E1C0
60E380
60C380
61C718
718E10
FE0FF0
ENDCHAR
STARTCHAR 01C5
ENCODING 453
SWIDTH 1200 0
DWIDTH 20 0
BBX 19 12 1 0
BITMAP
000440
FF06C0
61C380
60C000
60EFE0
60ECE0
60EDC0
60E180
60C380
61C720
718E20
FE0FE0
ENDCHAR
STARTCHAR 01C6
ENCODING 454
SWIDTH 1080 0
DWIDTH 18 0
BBX 17 12 1 0
BITMAP
031100
0F1B00
070E00
070000
3F3F80
673380
C72700
C70E00
C70E00
C71C80
E73980
7FBF80
ENDCHAR
STARTCHAR 01C7
ENCODING 455
SWIDTH 960 0
DWIDTH 16 0
BBX 14 15 1 -4
BITMAP
F83C
6018
6018
6018
6018
6018
6018
6018
6198
7118
FF18
0018
0038
0030
0060
ENDCHAR
STARTCHAR 01C8
ENCODING 456
SWIDTH 900 0
DWIDTH 15 0
BBX 13 15 1 -3
BITMAP
F838
6018
6000
6008
6038
6018
6018
6018
6198
7118
FF18
0018
0038
0030
0060
ENDCHAR
STARTCHAR 01C9
ENCODING 457
SWIDTH 600 0
DWIDTH 10 0
BBX 10 16 0 -4
BITMAP
3080
F1C0
31C0
3000
3040
33C0
31C0
31C0
31C0
31C0
31C0
F9C0
01C0
0180
0180
0200
ENDCHAR
STARTCHAR 01CA
ENCODING 458
SWIDTH 1080 0
DWIDTH 18 0
BBX 16 15 1 -4
BITMAP
E1CF
70C6
7886
5C86
5C86
4E86
4786
4386
4386
4186
E086
0006
000E
000C
0018
ENDCHAR
STARTCHAR 01CB
ENCODING 459
SWIDTH 1020 0
DWIDTH 17 0
BBX 15 15 1 -3
BITMAP
E1C6
70C6
7880
5C82
5C8E
4E86
4786
4386
4386
4186
E086
0006
0006
000C
0018
ENDCHAR
STARTCHAR 01CC
ENCODING 460
SWIDTH 960 0
DWIDTH 16 0
BBX 14 16 1 -4
BITMAP
0008
001C
000C
0000
2604
FF1C
630C
630C
630C
630C
638C
F78C
000C
001C
0018
0030
ENDCHAR
STARTCHAR 01CD
ENCODING 461
SWIDTH 660 0
DWIDTH 11 0
BBX 12 15 0 0
BITMAP
1100
0F00
0400
0000
0600
0600
0F00
0F00
1300
1380
3180
3FC0
21C0
60E0
F1F0
ENDCHAR
STARTCHAR 01CE
ENCODING 462
SWIDTH 540 0
DWIDTH 9 0
BBX 8 12 1 0
BITMAP
C4
78
30
00
1C
6E
CE
0E
3E
CE
EE
7F
ENDCHAR
STARTCHAR 01CF
ENCODING 463
SWIDTH 360 0
DWIDTH 6 0
BBX 5 15 1 0
BITMAP
80
F0
60
00
F8
60
60
60
60
60
60
60
60
70
F8
ENDCHAR
STARTCHAR 01D0
ENCODING 464
SWIDTH 300 0
DWIDTH 5 0
BBX 5 12 0 0
BITMAP
C8
78
30
00
10
70
30
30
30
30
30
78
ENDCHAR
STARTCHAR 01D1
ENCODING 465
SWIDTH 720 0
DWIDTH 12 0
BBX 11 15 1 0
BITMAP
1100
1E00
0C00
0000
3F80
61C0
E0C0
C0E0
C0E0
C0E0
C0E0
E0E0
E0C0
7180
3F00
ENDCHAR
STARTCHAR 01D2
ENCODING 466
SWIDTH 540 0
DWIDTH 9 0
BBX 8 12 1 0
BITMAP
46
7C
38
00
3C
6E
C7
C7
C7
C7
E6
7C
ENDCHAR
STARTCHAR 01D3
ENCODING 467
SWIDTH 660 0
DWIDTH 11 0
BBX 10 15 1 0
BITMAP
1100
1E00
0C00
0000
F1C0
6080
6080
6080
6080
6080
6080
6080
6180
7100
3E00
ENDCHAR
STARTCHAR 01D4
ENCODING 468
SWIDTH 600 0
DWIDTH 10 0
BBX 10 12 0 0
BITMAP
2100
1E00
0C00
0000
3180
F780
7380
7380
7380
7380
7380
3FC0
ENDCHAR
STARTCHAR 01D5
ENCODING 469
SWIDTH 660 0
DWIDTH 11 0
BBX 10 17 1 0
BITMAP
3F80
2000
0000
3B80
1B00
0000
F1C0
6080
6080
6080
6080
6080
6080
6080
6180
7100
3E00
ENDCHAR
STARTCHAR 01D6
ENCODING 470
SWIDTH 600 0
DWIDTH 10 0
BBX 10 13 0 0
BITMAP
3F00
0000
3300
3300
0200
3180
F780
7380
7380
7380
7380
7380
3FC0
ENDCHAR
STARTCHAR 01D7
ENCODING 471
SWIDTH 660 0
DWIDTH 11 0
BBX 10 18 1 0
BITMAP
0200
0600
0400
0000
3B80
1B00
0000
F1C0
6080
6080
6080
6080
6080
6080
6080
6180
7100
3E00
ENDCHAR
STARTCHAR 01D8
ENCODING 472
SWIDTH 600 0
DWIDTH 10 0
BBX 10 14 0 0
BITMAP
0600
0400
0000
3300
3300
0200
3180
F780
7380
7380
7380
7380
7380
3FC0
ENDCHAR
STARTCHAR 01D9
ENCODING 473
SWIDTH 660 0
DWIDTH 11 0
BBX 10 18 1 0
BITMAP
1100
1E00
0C00
0000
3B80
1B00
0000
F1C0
6080
6080
6080
6080
6080
6080
6080
6180
7100
3E00
ENDCHAR
STARTCHAR 01DA
ENCODING 474
SWIDTH 600 0
DWIDTH 10 0
BBX 10 14 0 0
BITMAP
3300
1E00
0800
3300
3300
0200
3180
F780
7380
7380
7380
7380
7380
3FC0
ENDCHAR
STARTCHAR 01DB
ENCODING 475
SWIDTH 660 0
DWIDTH 11 0
BBX 10 17 1 1
BITMAP
0C00
0400
0000
3B80
1B00
0000
F1C0
6080
6080
6080
6080
6080
6080
6080
6180
7100
3E00
ENDCHAR
STARTCHAR 01DC
ENCODING 476
SWIDTH 600 0
DWIDTH 10 0
BBX 10 14 0 0
BITMAP
1800
0800
0000
3300
3300
0200
3180
F780
7380
7380
7380
7380
7380
3FC0
ENDCHAR
STARTCHAR 01DD
ENCODING 477
SWIDTH 480 0
DWIDTH 8 0
BBX 7 8 1 0
BITMAP
78
DC
0E
0E
FE
CE
CC
78
ENDCHAR
STARTCHAR 01E4
ENCODING 484
SWIDTH 660 0
DWIDTH 11 0
BBX 11 11 1 0
BITMAP
3F80
6080
E080
C000
C000
C000
C3C0
E180
E7E0
7180
3F80
ENDCHAR
STARTCHAR 01E5
ENCODING 485
SWIDTH 540 0
DWIDTH 9 0
BBX 9 12 0 -4
BITMAP
3F80
6680
6700
6700
7600
3C00
6000
7F00
7F80
FF80
6300
7E00
ENDCHAR
STARTCHAR 01E6
ENCODING 486
SWIDTH 660 0
DWIDTH 11 0
BBX 10 15 1 0
BITMAP
1100
1E00
0C00
0000
3F80
6080
E080
C000
C000
C000
C3C0
E180
E180
7180
3F80
ENDCHAR
STARTCHAR 01E7
ENCODING 487
SWIDTH 540 0
DWIDTH 9 0
BBX 8 16 1 -4
BITMAP
C4
78
30
00
7F
CD
CE
CE
EC
78
C0
FE
FF
86
C6
FC
ENDCHAR
STARTCHAR 01E8
ENCODING 488
SWIDTH 720 0
DWIDTH 12 0
BBX 11 15 1 0
BITMAP
1100
1E00
0C00
0000
FBC0
6100
6200
6400
6C00
7C00
6E00
6700
6380
7380
F9E0
ENDCHAR
STARTCHAR 01E9
ENCODING 489
SWIDTH 600 0
DWIDTH 10 0
BBX 10 15 0 0
BITMAP
1100
1E00
0C00
3000
F000
3000
3000
33C0
3180
3200
3600
3600
3700
3380
F9C0
ENDCHAR
STARTCHAR 01EA
ENCODING 490
SWIDTH 720 0
DWIDTH 12 0
BBX 11 15 1 -4
BITMAP
3F80
61C0
E0C0
C0E0
C0E0
C0E0
C0E0
E0C0
E0C0
7180
3F00
0600
0C00
0F00
0700
ENDCHAR
STARTCHAR 01EB
ENCODING 491
SWIDTH 540 0
DWIDTH 9 0
BBX 8 12 1 -4
BITMAP
3C
6E
C7
C7
C7
C7
E6
7C
30
20
78
38
ENDCHAR
STARTCHAR 01EE
ENCODING 494
SWIDTH 600 0
DWIDTH 10 0
BBX 8 15 1 0
BITMAP
40
3C
18
00
FF
C6
8E
1C
38
3E
07
03
83
C7
FE
ENDCHAR
STARTCHAR 01EF
ENCODING 495
SWIDTH 480 0
DWIDTH 8 0
BBX 7 16 1 -4
BITMAP
C4
7C
30
00
FE
CE
9C
18
38
78
1C
0E
06
86
CC
F8
ENDCHAR
STARTCHAR 01F1
ENCODING 497
SWIDTH 1320 0
DWIDTH 22 0
BBX 21 11 1 0
BITMAP
FF07F0
61C470
60CCE0
60E0E0
60E1C0
60E1C0
60E380
60C380
61C718
718E10
FE0FF0
ENDCHAR
STARTCHAR 01F2
ENCODING 498
SWIDTH 1200 0
DWIDTH 20 0
BBX 19 11 1 0
BITMAP
FF0000
61C000
60C000
60EFE0
60ECE0
60EDC0
60E180
60C380
61C720
718E20
FE0FE0
ENDCHAR
STARTCHAR 01F3
ENCODING 499
SWIDTH 1080 0
DWIDTH 18 0
BBX 17 12 1 0
BITMAP
030000
0F0000
070000
070000
3F3F80
673380
C72700
C70E00
C70E00
C71C80
E73980
7FBF80
ENDCHAR
STARTCHAR 01FA
ENCODING 506
SWIDTH 660 0
DWIDTH 11 0
BBX 12 18 0 0
BITMAP
0300
0600
0000
0600
0B00
0E00
0000
0600
0600
0F00
0F00
1300
1380
3180
3FC0
21C0
60E0
F1F0
ENDCHAR
STARTCHAR 01FB
ENCODING 507
SWIDTH 540 0
DWIDTH 9 0
BBX 8 15 1 0
BITMAP
08
18
30
00
38
68
30
1C
6E
CE
0E
3E
CE
EE
7F
ENDCHAR
STARTCHAR 01FC
ENCODING 508
SWIDTH 900 0
DWIDTH 15 0
BBX 15 15 0 0
BITMAP
0060
0040
0080
0000
07FE
02C6
02C2
04C0
0CC8
0FF8
18C8
10C8
20C2
60C6
F3FE
ENDCHAR
STARTCHAR 01FD
ENCODING 509
SWIDTH 720 0
DWIDTH 12 0
BBX 11 12 1 0
BITMAP
0600
0600
0400
0000
7B80
DEC0
CCC0
0FE0
FC00
CC00
DE00
F7C0
ENDCHAR
STARTCHAR 01FE
ENCODING 510
SWIDTH 720 0
DWIDTH 12 0
BBX 11 15 1 0
BITMAP
0600
0600
0C00
0040
3FC0
61C0
E1C0
C2E0
C6E0
CCE0
C8E0
F0E0
F0C0
7180
FF00
ENDCHAR
STARTCHAR 01FF
ENCODING 511
SWIDTH 540 0
DWIDTH 9 0
BBX 8 13 1 -1
BITMAP
0C
08
18
00
3F
6E
CF
CF
D7
E7
E6
FC
80
ENDCHAR
STARTCHAR 0200
ENCODING 512
SWIDTH 660 0
DWIDTH 11 0
BBX 12 14 0 0
BITMAP
1200
0B00
0000
0600
0600
0F00
0F00
1300
1380
3180
3FC0
21C0
60E0
F1F0
ENDCHAR
STARTCHAR 0201
ENCODING 513
SWIDTH 540 0
DWIDTH 9 0
BBX 8 12 1 0
BITMAP
D8
48
6C
00
1C
6E
CE
0E
3E
CE
EE
7F
ENDCHAR
STARTCHAR 0202
ENCODING 514
SWIDTH 660 0
DWIDTH 11 0
BBX 12 15 0 0
BITMAP
0600
1F00
1180
0000
0600
0600
0F00
0F00
1300
1380
3180
3FC0
21C0
60E0
F1F0
ENDCHAR
STARTCHAR 0203
ENCODING 515
SWIDTH 540 0
DWIDTH 9 0
BBX 8 12 1 0
BITMAP
38
7C
84
00
1C
6E
CE
0E
3E
CE
EE
7F
ENDCHAR
STARTCHAR 0204
ENCODING 516
SWIDTH 600 0
DWIDTH 10 0
BBX 9 14 1 0
BITMAP
6C00
2400
0000
FF00
6100
6100
6200
6600
7E00
6600
6000
6180
7180
FF00
ENDCHAR
STARTCHAR 0205
ENCODING 517
SWIDTH 480 0
DWIDTH 8 0
BBX 7 12 1 0
BITMAP
D8
6C
24
00
38
EC
C6
C6
FE
C0
E2
7C
ENDCHAR
STARTCHAR 0206
ENCODING 518
SWIDTH 600 0
DWIDTH 10 0
BBX 9 15 1 0
BITMAP
1800
3C00
4600
0000
FF00
6100
6100
6200
6600
7E00
6600
6000
6180
7180
FF00
ENDCHAR
STARTCHAR 0207
ENCODING 519
SWIDTH 480 0
DWIDTH 8 0
BBX 7 12 1 0
BITMAP
38
7C
C6
00
38
EC
C6
C6
FE
C0
E2
7C
ENDCHAR
STARTCHAR 0208
ENCODING 520
SWIDTH 360 0
DWIDTH 6 0
BBX 6 14 0 0
BITMAP
D8
68
00
7C
30
30
30
30
30
30
30
30
38
7C
ENDCHAR
STARTCHAR 0209
ENCODING 521
SWIDTH 300 0
DWIDTH 5 0
BBX 5 12 0 0
BITMAP
B0
D0
48
00
10
70
30
30
30
30
30
78
ENDCHAR
STARTCHAR 020A
ENCODING 522
SWIDTH 360 0
DWIDTH 6 0
BBX 5 14 1 1
BITMAP
F0
98
00
F8
60
60
60
60
60
60
60
60
70
F8
ENDCHAR
STARTCHAR 020B
ENCODING 523
SWIDTH 300 0
DWIDTH 5 0
BBX 6 12 0 0
BITMAP
70
F8
8C
00
10
70
30
30
30
30
30
78
ENDCHAR
STARTCHAR 020C
ENCODING 524
SWIDTH 720 0
DWIDTH 12 0
BBX 11 14 1 0
BITMAP
3600
1200
0000
3F80
61C0
E0C0
C0E0
C0E0
C0E0
C0E0
E0E0
E0C0
7180
3F00
ENDCHAR
STARTCHAR 020D
ENCODING 525
SWIDTH 540 0
DWIDTH 9 0
BBX 8 12 1 0
BITMAP
D8
6C
24
00
3C
6E
C7
C7
C7
C7
E6
7C
ENDCHAR
STARTCHAR 020E
ENCODING 526
SWIDTH 720 0
DWIDTH 12 0
BBX 11 15 1 0
BITMAP
0C00
1F00
3100
0000
3F80
61C0
E0C0
C0E0
C0E0
C0E0
C0E0
E0E0
E0C0
7180
3F00
ENDCHAR
STARTCHAR 020F
ENCODING 527
SWIDTH 540 0
DWIDTH 9 0
BBX 8 12 1 0
BITMAP
38
7C
46
00
3C
6E
C7
C7
C7
C7
E6
7C
ENDCHAR
STARTCHAR 0210
ENCODING 528
SWIDTH 660 0
DWIDTH 11 0
BBX 10 14 1 0
BITMAP
6C00
3600
0000
FF00
6380
6180
6180
6380
7F00
6600
6700
6380
7380
F1C0
ENDCHAR
STARTCHAR 0211
ENCODING 529
SWIDTH 420 0
DWIDTH 7 0
BBX 7 12 1 0
BITMAP
D8
48
6C
00
24
FE
64
60
60
60
60
F8
ENDCHAR
STARTCHAR 0212
ENCODING 530
SWIDTH 660 0
DWIDTH 11 0
BBX 10 15 1 0
BITMAP
1800
3E00
2200
0000
FF00
6380
6180
6180
6380
7F00
6600
6700
6380
7380
F1C0
ENDCHAR
STARTCHAR 0213
ENCODING 531
SWIDTH 420 0
DWIDTH 7 0
BBX 7 12 1 0
BITMAP
38
FC
84
00
24
FE
64
60
60
60
60
F8
ENDCHAR
STARTCHAR 0214
ENCODING 532
SWIDTH 660 0
DWIDTH 11 0
BBX 10 14 1 0
BITMAP
3600
1B00
0000
F1C0
6080
6080
6080
6080
6080
6080
6080
6180
7100
3E00
ENDCHAR
STARTCHAR 0215
ENCODING 533
SWIDTH 600 0
DWIDTH 10 0
BBX 10 12 0 0
BITMAP
3600
3600
1300
0000
3180
F780
7380
7380
7380
7380
7380
3FC0
ENDCHAR
STARTCHAR 0216
ENCODING 534
SWIDTH 660 0
DWIDTH 11 0
BBX 10 15 1 0
BITMAP
0C00
1F00
1100
0000
F1C0
6080
6080
6080
6080
6080
6080
6080
6180
7100
3E00
ENDCHAR
STARTCHAR 0217
ENCODING 535
SWIDTH 600 0
DWIDTH 10 0
BBX 10 12 0 0
BITMAP
1E00
3F00
2100
0000
3180
F780
7380
7380
7380
7380
7380
3FC0
ENDCHAR
STARTCHAR 0218
ENCODING 536
SWIDTH 540 0
DWIDTH 9 0
BBX 8 16 1 -5
BITMAP
7E
C6
C6
E0
F8
7E
1E
87
C7
C6
FC
00
18
18
18
30
ENDCHAR
STARTCHAR 0219
ENCODING 537
SWIDTH 420 0
DWIDTH 7 0
BBX 6 13 1 -5
BITMAP
78
C8
CC
F0
7C
9C
8C
F8
00
30
30
30
60
ENDCHAR
STARTCHAR 021A
ENCODING 538
SWIDTH 600 0
DWIDTH 10 0
BBX 10 16 0 -5
BITMAP
7FC0
4E40
CE40
0E00
0E00
0E00
0E00
0E00
0E00
0E00
1F00
0000
0E00
0E00
0400
0800
ENDCHAR
STARTCHAR 021B
ENCODING 539
SWIDTH 360 0
DWIDTH 6 0
BBX 6 15 0 -5
BITMAP
70
70
70
FC
70
70
70
70
30
3C
00
38
38
18
30
ENDCHAR
STARTCHAR 021C
ENCODING 540
SWIDTH 540 0
DWIDTH 9 0
BBX 8 14 1 -3
BITMAP
FE
C6
86
06
0E
18
7E
07
07
07
07
06
9C
78
ENDCHAR
STARTCHAR 021D
ENCODING 541
SWIDTH 480 0
DWIDTH 8 0
BBX 7 12 1 -4
BITMAP
78
CC
8E
8C
0C
30
7C
0E
0E
0E
0C
F8
ENDCHAR
STARTCHAR 021E
ENCODING 542
SWIDTH 720 0
DWIDTH 12 0
BBX 11 15 1 0
BITMAP
1100
1E00
0C00
0000
FBE0
61C0
60C0
60C0
60C0
7FC0
60C0
60C0
60C0
71C0
FBE0
ENDCHAR
STARTCHAR 021F
ENCODING 543
SWIDTH 600 0
DWIDTH 10 0
BBX 10 15 0 0
BITMAP
3100
1E00
0C00
3000
F000
3000
3000
3300
3F80
3180
3180
3180
3180
3180
FBC0
ENDCHAR
STARTCHAR 0228
ENCODING 552
SWIDTH 600 0
DWIDTH 10 0
BBX 9 15 1 -4
BITMAP
FF00
6100
6100
6200
6600
7E00
6600
6000
6180
7180
FF00
1000
1C00
0C00
1800
ENDCHAR
STARTCHAR 0229
ENCODING 553
SWIDTH 480 0
DWIDTH 8 0
BBX 7 12 1 -4
BITMAP
38
EC
C6
C6
FE
C0
E2
7C
10
38
08
30
ENDCHAR
STARTCHAR 022A
ENCODING 554
SWIDTH 720 0
DWIDTH 12 0
BBX 11 17 1 0
BITMAP
3F00
2000
0000
3B00
3300
0000
3F80
61C0
E0C0
C0E0
C0E0
C0E0
C0E0
E0E0
E0C0
7180
3F00
ENDCHAR
STARTCHAR 022B
ENCODING 555
SWIDTH 540 0
DWIDTH 9 0
BBX 8 13 1 0
BITMAP
7E
00
64
6E
44
3C
6E
C7
C7
C7
C7
E6
7C
ENDCHAR
STARTCHAR 022C
ENCODING 556
SWIDTH 720 0
DWIDTH 12 0
BBX 11 17 1 0
BITMAP
3F00
0000
0000
3F00
2600
0000
3F80
61C0
E0C0
C0E0
C0E0
C0E0
C0E0
E0E0
E0C0
7180
3F00
ENDCHAR
STARTCHAR 022D
ENCODING 557
SWIDTH 540 0
DWIDTH 9 0
BBX 8 13 1 0
BITMAP
7E
00
32
7C
00
3C
6E
C7
C7
C7
C7
E6
7C
ENDCHAR
STARTCHAR 0230
ENCODING 560
SWIDTH 720 0
DWIDTH 12 0
BBX 11 16 1 0
BITMAP
3F00
0000
0E00
0C00
0000
3F80
61C0
E0C0
C0E0
C0E0
C0E0
C0E0
E0E0
E0C0
7180
3F00
ENDCHAR
STARTCHAR 0231
ENCODING 561
SWIDTH 540 0
DWIDTH 9 0
BBX 8 12 1 0
BITMAP
7C
18
38
10
3C
6E
C7
C7
C7
C7
E6
7C
ENDCHAR
STARTCHAR 0232
ENCODING 562
SWIDTH 600 0
DWIDTH 10 0
BBX 10 14 0 0
BITMAP
1F80
0000
0000
F9C0
7080
3880
3900
1D00
1E00
0E00
0E00
0E00
0E00
3F00
ENDCHAR
STARTCHAR 0233
ENCODING 563
SWIDTH 540 0
DWIDTH 9 0
BBX 9 15 0 -4
BITMAP
3F00
0000
0000
FB80
7180
3100
3A00
3A00
1A00
1C00
0C00
0800
0800
7000
7000
ENDCHAR
STARTCHAR 0237
ENCODING 567
SWIDTH 300 0
DWIDTH 5 0
BBX 4 12 0 -4
BITMAP
10
70
30
30
30
30
30
30
30
70
60
C0
ENDCHAR
STARTCHAR 0258
ENCODING 600
SWIDTH 480 0
DWIDTH 8 0
BBX 7 8 1 0
BITMAP
38
CC
CE
CE
FE
0E
8C
F8
ENDCHAR
STARTCHAR 0259
ENCODING 601
SWIDTH 480 0
DWIDTH 8 0
BBX 7 8 1 0
BITMAP
78
DC
0E
0E
FE
CE
CC
78
ENDCHAR
STARTCHAR 0272
ENCODING 626
SWIDTH 600 0
DWIDTH 10 0
BBX 10 12 0 -4
BITMAP
1300
7F80
3980
3180
3180
3180
31C0
33C0
3000
7000
6000
C000
ENDCHAR
STARTCHAR 0292
ENCODING 658
SWIDTH 480 0
DWIDTH 8 0
BBX 7 12 1 -4
BITMAP
FE
CE
9C
18
38
78
1C
0E
06
86
CC
F8
ENDCHAR
STARTCHAR 02B9
ENCODING 697
SWIDTH 240 0
DWIDTH 4 0
BBX 3 5 1 7
BITMAP
60
40
40
80
80
ENDCHAR
STARTCHAR 02BA
ENCODING 698
SWIDTH 420 0
DWIDTH 7 0
BBX 6 5 1 7
BITMAP
6C
4C
48
98
90
ENDCHAR
STARTCHAR 02BB
ENCODING 699
SWIDTH 240 0
DWIDTH 4 0
BBX 3 5 1 7
BITMAP
40
C0
C0
E0
80
ENDCHAR
STARTCHAR 02BC
ENCODING 700
SWIDTH 240 0
DWIDTH 4 0
BBX 3 5 1 7
BITMAP
E0
E0
60
40
C0
ENDCHAR
STARTCHAR 02BE
ENCODING 702
SWIDTH 240 0
DWIDTH 4 0
BBX 3 5 1 7
BITMAP
C0
40
60
C0
80
ENDCHAR
STARTCHAR 02BF
ENCODING 703
SWIDTH 240 0
DWIDTH 4 0
BBX 3 5 1 7
BITMAP
60
C0
80
C0
60
ENDCHAR
STARTCHAR 02C6
ENCODING 710
SWIDTH 300 0
DWIDTH 5 0
BBX 6 3 -1 9
BITMAP
10
38
CC
ENDCHAR
STARTCHAR 02C7
ENCODING 711
SWIDTH 300 0
DWIDTH 5 0
BBX 5 3 0 9
BITMAP
88
D8
70
ENDCHAR
STARTCHAR 02C8
ENCODING 712
SWIDTH 180 0
DWIDTH 3 0
BBX 2 5 1 7
BITMAP
C0
C0
C0
C0
C0
ENDCHAR
STARTCHAR 02C9
ENCODING 713
SWIDTH 480 0
DWIDTH 8 0
BBX 6 1 1 10
BITMAP
FC
ENDCHAR
STARTCHAR 02CA
ENCODING 714
SWIDTH 300 0
DWIDTH 5 0
BBX 2 3 3 9
BITMAP
C0
C0
80
ENDCHAR
STARTCHAR 02CB
ENCODING 715
SWIDTH 300 0
DWIDTH 5 0
BBX 3 3 3 9
BITMAP
C0
C0
60
ENDCHAR
STARTCHAR 02CC
ENCODING 716
SWIDTH 180 0
DWIDTH 3 0
BBX 2 5 1 -3
BITMAP
C0
C0
C0
C0
C0
ENDCHAR
STARTCHAR 02D8
ENCODING 728
SWIDTH 300 0
DWIDTH 5 0
BBX 7 3 -1 9
BITMAP
C2
64
7C
ENDCHAR
STARTCHAR 02D9
ENCODING 729
SWIDTH 300 0
DWIDTH 5 0
BBX 3 2 1 9
BITMAP
E0
E0
ENDCHAR
STARTCHAR 02DA
ENCODING 730
SWIDTH 300 0
DWIDTH 5 0
BBX 3 3 1 9
BITMAP
E0
A0
E0
ENDCHAR
STARTCHAR 02DB
ENCODING 731
SWIDTH 300 0
DWIDTH 5 0
BBX 4 4 0 -3
BITMAP
60
40
F0
70
ENDCHAR
STARTCHAR 02DC
ENCODING 732
SWIDTH 300 0
DWIDTH 5 0
BBX 7 2 -1 9
BITMAP
7E
9C
ENDCHAR
STARTCHAR 02DD
ENCODING 733
SWIDTH 300 0
DWIDTH 5 0
BBX 5 3 0 9
BITMAP
D8
D8
90
ENDCHAR
STARTCHAR 0300
ENCODING 768
SWIDTH 0 0
DWIDTH 0 0
BBX 3 3 1 9
BITMAP
C0
60
20
ENDCHAR
STARTCHAR 0301
ENCODING 769
SWIDTH 0 0
DWIDTH 0 0
BBX 3 3 1 9
BITMAP
60
C0
80
ENDCHAR
STARTCHAR 0302
ENCODING 770
SWIDTH 0 0
DWIDTH 0 0
BBX 6 3 1 9
BITMAP
30
78
CC
ENDCHAR
STARTCHAR 0303
ENCODING 771
SWIDTH 0 0
DWIDTH 0 0
BBX 6 2 1 9
BITMAP
FC
98
ENDCHAR
STARTCHAR 0304
ENCODING 772
SWIDTH 0 0
DWIDTH 0 0
BBX 6 1 1 10
BITMAP
FC
ENDCHAR
STARTCHAR 0306
ENCODING 774
SWIDTH 0 0
DWIDTH 0 0
BBX 6 3 1 9
BITMAP
84
CC
78
ENDCHAR
STARTCHAR 0307
ENCODING 775
SWIDTH 0 0
DWIDTH 0 0
BBX 3 2 1 9
BITMAP
E0
E0
ENDCHAR
STARTCHAR 0308
ENCODING 776
SWIDTH 0 0
DWIDTH 0 0
BBX 6 2 1 9
BITMAP
CC
CC
ENDCHAR
STARTCHAR 0309
ENCODING 777
SWIDTH 0 0
DWIDTH 0 0
BBX 4 3 1 9
BITMAP
60
B0
60
ENDCHAR
STARTCHAR 030A
ENCODING 778
SWIDTH 0 0
DWIDTH 0 0
BBX 4 3 1 9
BITMAP
E0
B0
F0
ENDCHAR
STARTCHAR 030B
ENCODING 779
SWIDTH 0 0
DWIDTH 0 0
BBX 6 3 1 9
BITMAP
6C
D8
90
ENDCHAR
STARTCHAR 030C
ENCODING 780
SWIDTH 0 0
DWIDTH 0 0
BBX 6 3 1 9
BITMAP
84
78
70
ENDCHAR
STARTCHAR 030F
ENCODING 783
SWIDTH 0 0
DWIDTH 0 0
BBX 6 3 1 9
BITMAP
D8
6C
24
ENDCHAR
STARTCHAR 0311
ENCODING 785
SWIDTH 0 0
DWIDTH 0 0
BBX 6 3 1 9
BITMAP
78
FC
84
ENDCHAR
STARTCHAR 0312
ENCODING 786
SWIDTH 0 0
DWIDTH 0 0
BBX 2 4 1 8
BITMAP
40
C0
C0
80
ENDCHAR
STARTCHAR 0313
ENCODING 787
SWIDTH 0 0
DWIDTH 0 0
BBX 3 4 1 8
BITMAP
C0
E0
40
80
ENDCHAR
STARTCHAR 031B
ENCODING 795
SWIDTH 0 0
DWIDTH 0 0
BBX 3 4 -1 6
BITMAP
20
60
60
80
ENDCHAR
STARTCHAR 0323
ENCODING 803
SWIDTH 0 0
DWIDTH 0 0
BBX 3 3 1 -4
BITMAP
C0
E0
C0
ENDCHAR
STARTCHAR 0324
ENCODING 804
SWIDTH 0 0
DWIDTH 0 0
BBX 6 3 1 -4
BITMAP
CC
CC
CC
ENDCHAR
STARTCHAR 0325
ENCODING 805
SWIDTH 0 0
DWIDTH 0 0
BBX 4 3 1 -4
BITMAP
F0
B0
E0
ENDCHAR
STARTCHAR 0326
ENCODING 806
SWIDTH 0 0
DWIDTH 0 0
BBX 3 4 1 -5
BITMAP
E0
E0
40
80
ENDCHAR
STARTCHAR 0327
ENCODING 807
SWIDTH 0 0
DWIDTH 0 0
BBX 3 4 1 -4
BITMAP
80
C0
60
C0
ENDCHAR
STARTCHAR 0328
ENCODING 808
SWIDTH 0 0
DWIDTH 0 0
BBX 4 5 1 -4
BITMAP
20
40
C0
F0
F0
ENDCHAR
STARTCHAR 032E
ENCODING 814
SWIDTH 0 0
DWIDTH 0 0
BBX 5 2 1 -3
BITMAP
88
F8
ENDCHAR
STARTCHAR 0331
ENCODING 817
SWIDTH 0 0
DWIDTH 0 0
BBX 6 1 1 -3
BITMAP
FC
ENDCHAR
STARTCHAR 0335
ENCODING 821
SWIDTH 0 0
DWIDTH 0 0
BBX 5 1 1 5
BITMAP
F8
ENDCHAR
STARTCHAR 0336
ENCODING 822
SWIDTH 0 0
DWIDTH 0 0
BBX 10 1 1 4
BITMAP
FFC0
ENDCHAR
STARTCHAR 0337
ENCODING 823
SWIDTH 0 0
DWIDTH 0 0
BBX 7 5 1 3
BITMAP
02
0E
38
E0
80
ENDCHAR
STARTCHAR 0338
ENCODING 824
SWIDTH 0 0
DWIDTH 0 0
BBX 7 5 1 3
BITMAP
02
0E
38
E0
80
ENDCHAR
STARTCHAR 0374
ENCODING 884
SWIDTH 240 0
DWIDTH 4 0
BBX 3 5 1 7
BITMAP
60
40
40
80
80
ENDCHAR
STARTCHAR 0375
ENCODING 885
SWIDTH 240 0
DWIDTH 4 0
BBX 3 5 1 -4
BITMAP
20
40
40
C0
80
ENDCHAR
STARTCHAR 037E
ENCODING 894
SWIDTH 240 0
DWIDTH 4 0
BBX 3 11 1 -3
BITMAP
40
E0
40
00
00
00
E0
E0
60
40
C0
ENDCHAR
STARTCHAR 0384
ENCODING 900
SWIDTH 300 0
DWIDTH 5 0
BBX 2 3 1 9
BITMAP
C0
C0
C0
ENDCHAR
STARTCHAR 0385
ENCODING 901
SWIDTH 300 0
DWIDTH 5 0
BBX 7 3 -1 9
BITMAP
18
D6
D6
ENDCHAR
STARTCHAR 0386
ENCODING 902
SWIDTH 660 0
DWIDTH 11 0
BBX 12 11 0 0
BITMAP
6600
6600
4F00
0F00
1300
1380
3180
3FC0
21C0
60E0
F1F0
ENDCHAR
STARTCHAR 0387
ENCODING 903
SWIDTH 240 0
DWIDTH 4 0
BBX 3 3 1 5
BITMAP
40
E0
C0
ENDCHAR
STARTCHAR 0388
ENCODING 904
SWIDTH 600 0
DWIDTH 10 0
BBX 12 11 -2 0
BITMAP
DFE0
8C20
8C20
0C40
0CC0
0FC0
0CC0
0C00
0C30
0E30
1FE0
ENDCHAR
STARTCHAR 0389
ENCODING 905
SWIDTH 720 0
DWIDTH 12 0
BBX 14 11 -2 0
BITMAP
DF7C
8C38
8C18
0C18
0C18
0FF8
0C18
0C18
0C18
0E38
1F7C
ENDCHAR
STARTCHAR 038A
ENCODING 906
SWIDTH 360 0
DWIDTH 6 0
BBX 8 11 -2 0
BITMAP
DF
8C
8C
0C
0C
0C
0C
0C
0C
0E
1F
ENDCHAR
STARTCHAR 038C
ENCODING 908
SWIDTH 720 0
DWIDTH 12 0
BBX 13 11 -1 0
BITMAP
CFE0
9870
B830
3038
3038
3038
3038
3838
3830
1C60
0FC0
ENDCHAR
STARTCHAR 038E
ENCODING 910
SWIDTH 600 0
DWIDTH 10 0
BBX 13 11 -3 0
BITMAP
5F38
4E10
C710
0720
03A0
03C0
01C0
01C0
01C0
01C0
07E0
ENDCHAR
STARTCHAR 038F
ENCODING 911
SWIDTH 840 0
DWIDTH 14 0
BBX 14 11 -1 0
BITMAP
C7E0
DC38
D818
381C
381C
181C
1818
0C18
2424
3E7C
3E7C
ENDCHAR
STARTCHAR 0390
ENCODING 912
SWIDTH 300 0
DWIDTH 5 0
BBX 7 12 0 0
BITMAP
30
D4
FE
00
10
70
30
30
30
30
30
3C
ENDCHAR
STARTCHAR 0391
ENCODING 913
SWIDTH 660 0
DWIDTH 11 0
BBX 12 11 0 0
BITMAP
0600
0600
0F00
0F00
1300
1380
3180
3FC0
21C0
60E0
F1F0
ENDCHAR
STARTCHAR 0392
ENCODING 914
SWIDTH 660 0
DWIDTH 11 0
BBX 9 11 1 0
BITMAP
FF00
6380
6380
6300
6600
7F00
6380
6180
6180
7380
FF00
ENDCHAR
STARTCHAR 0393
ENCODING 915
SWIDTH 540 0
DWIDTH 9 0
BBX 8 11 1 0
BITMAP
FF
61
61
60
60
60
60
60
60
70
F8
ENDCHAR
STARTCHAR 0394
ENCODING 916
SWIDTH 660 0
DWIDTH 11 0
BBX 11 11 0 0
BITMAP
0400
0E00
0E00
1700
1300
2380
2380
61C0
41C0
40E0
FFE0
ENDCHAR
STARTCHAR 0395
ENCODING 917
SWIDTH 600 0
DWIDTH 10 0
BBX 9 11 1 0
BITMAP
FF00
6100
6100
6200
6600
7E00
6600
6000
6180
7180
FF00
ENDCHAR
STARTCHAR 0396
ENCODING 918
SWIDTH 600 0
DWIDTH 10 0
BBX 8 11 1 0
BITMAP
FF
C7
CE
0E
1C
38
38
70
71
E3
FF
ENDCHAR
STARTCHAR 0397
ENCODING 919
SWIDTH 720 0
DWIDTH 12 0
BBX 11 11 1 0
BITMAP
FBE0
61C0
60C0
60C0
60C0
7FC0
60C0
60C0
60C0
71C0
FBE0
ENDCHAR
STARTCHAR 0398
ENCODING 920
SWIDTH 720 0
DWIDTH 12 0
BBX 11 11 1 0
BITMAP
3F80
61C0
E0C0
C0E0
C0E0
DFE0
C0E0
E0E0
E0C0
7180
3F00
ENDCHAR
STARTCHAR 0399
ENCODING 921
SWIDTH 360 0
DWIDTH 6 0
BBX 5 11 1 0
BITMAP
F8
60
60
60
60
60
60
60
60
70
F8
ENDCHAR
STARTCHAR 039A
ENCODING 922
SWIDTH 720 0
DWIDTH 12 0
BBX 11 11 1 0
BITMAP
FBC0
6100
6200
6400
6C00
7C00
6E00
6700
6380
7380
F9E0
ENDCHAR
STARTCHAR 039B
ENCODING 923
SWIDTH 660 0
DWIDTH 11 0
BBX 11 11 0 0
BITMAP
0400
0E00
0E00
1700
1700
1300
2380
2380
21C0
61C0
E3E0
ENDCHAR
STARTCHAR 039C
ENCODING 924
SWIDTH 960 0
DWIDTH 16 0
BBX 16 11 0 0
BITMAP
781E
3C1C
3C3C
2C3C
2E2C
264C
274C
278C
238C
638E
F11F
ENDCHAR
STARTCHAR 039D
ENCODING 925
SWIDTH 720 0
DWIDTH 12 0
BBX 10 11 1 0
BITMAP
E1C0
70C0
7880
5C80
5C80
4E80
4780
4380
4380
4180
E080
ENDCHAR
STARTCHAR 039E
ENCODING 926
SWIDTH 600 0
DWIDTH 10 0
BBX 9 11 1 0
BITMAP
FF00
C300
8180
4200
6600
7E00
6200
0000
8180
FF80
FF00
ENDCHAR
STARTCHAR 039F
ENCODING 927
SWIDTH 720 0
DWIDTH 12 0
BBX 11 11 1 0
BITMAP
3F80
61C0
E0C0
C0E0
C0E0
C0E0
C0E0
E0E0
E0C0
7180
3F00
ENDCHAR
STARTCHAR 03A0
ENCODING 928
SWIDTH 720 0
DWIDTH 12 0
BBX 11 11 1 0
BITMAP
FFE0
61C0
61C0
61C0
61C0
61C0
61C0
61C0
61C0
71C0
FBE0
ENDCHAR
STARTCHAR 03A1
ENCODING 929
SWIDTH 600 0
DWIDTH 10 0
BBX 9 11 1 0
BITMAP
FF00
6380
6380
6380
6380
6300
6E00
6000
6000
7000
F800
ENDCHAR
STARTCHAR 03A3
ENCODING 931
SWIDTH 600 0
DWIDTH 10 0
BBX 9 11 1 0
BITMAP
FF00
6300
7100
3800
1C00
1C00
3800
3800
7180
E180
FF00
ENDCHAR
STARTCHAR 03A4
ENCODING 932
SWIDTH 600 0
DWIDTH 10 0
BBX 10 11 0 0
BITMAP
7FC0
4E40
CE40
0E00
0E00
0E00
0E00
0E00
0E00
0E00
1F00
ENDCHAR
STARTCHAR 03A5
ENCODING 933
SWIDTH 600 0
DWIDTH 10 0
BBX 10 11 0 0
BITMAP
F9C0
7080
3880
3900
1D00
1E00
0E00
0E00
0E00
0E00
3F00
ENDCHAR
STARTCHAR 03A6
ENCODING 934
SWIDTH 720 0
DWIDTH 12 0
BBX 11 11 1 0
BITMAP
1F00
0E00
7FC0
EEE0
CE60
CE60
CE60
EEE0
7F80
0E00
1F00
ENDCHAR
STARTCHAR 03A7
ENCODING 935
SWIDTH 660 0
DWIDTH 11 0
BBX 10 11 1 0
BITMAP
FBC0
7180
3900
3A00
1E00
0E00
1E00
3700
2700
6380
E7C0
ENDCHAR
STARTCHAR 03A8
ENCODING 936
SWIDTH 780 0
DWIDTH 13 0
BBX 13 11 0 0
BITMAP
F7B8
7330
7330
7330
7330
3370
1FE0
0300
0300
0700
0FC0
ENDCHAR
STARTCHAR 03A9
ENCODING 937
SWIDTH 840 0
DWIDTH 14 0
BBX 12 11 1 0
BITMAP
1F80
70E0
6060
E070
E070
6070
6060
3060
9090
F9F0
F9F0
ENDCHAR
STARTCHAR 03AA
ENCODING 938
SWIDTH 360 0
DWIDTH 6 0
BBX 6 14 0 0
BITMAP
EC
CC
00
7C
30
30
30
30
30
30
30
30
38
7C
ENDCHAR
STARTCHAR 03AB
ENCODING 939
SWIDTH 600 0
DWIDTH 10 0
BBX 10 14 0 0
BITMAP
1980
1980
0000
F9C0
7080
3880
3900
1D00
1E00
0E00
0E00
0E00
0E00
3F00
ENDCHAR
STARTCHAR 03AC
ENCODING 940
SWIDTH 600 0
DWIDTH 10 0
BBX 10 12 1 0
BITMAP
1800
1800
1000
0000
3B80
6F80
C700
C700
C600
C600
EF00
79C0
ENDCHAR
STARTCHAR 03AD
ENCODING 941
SWIDTH 420 0
DWIDTH 7 0
BBX 6 12 1 0
BITMAP
30
30
30
00
78
C8
C8
60
F0
C0
CC
FC
ENDCHAR
STARTCHAR 03AE
ENCODING 942
SWIDTH 600 0
DWIDTH 10 0
BBX 8 16 1 -4
BITMAP
0C
08
08
00
26
FF
73
63
63
63
63
63
03
03
03
02
ENDCHAR
STARTCHAR 03AF
ENCODING 943
SWIDTH 300 0
DWIDTH 5 0
BBX 5 12 1 0
BITMAP
30
20
60
00
20
E0
60
60
60
60
60
78
ENDCHAR
STARTCHAR 03B0
ENCODING 944
SWIDTH 480 0
DWIDTH 8 0
BBX 8 12 0 0
BITMAP
0C
6B
6B
00
31
F7
71
71
71
71
72
3C
ENDCHAR
STARTCHAR 03B1
ENCODING 945
SWIDTH 600 0
DWIDTH 10 0
BBX 10 8 1 0
BITMAP
3B80
6F80
C700
C700
C600
C600
EF00
79C0
ENDCHAR
STARTCHAR 03B2
ENCODING 946
SWIDTH 540 0
DWIDTH 9 0
BBX 8 16 1 -4
BITMAP
3C
66
C7
C7
C6
DC
CE
C7
C3
C3
C7
FE
C0
C0
C0
80
ENDCHAR
STARTCHAR 03B3
ENCODING 947
SWIDTH 540 0
DWIDTH 9 0
BBX 9 12 0 -4
BITMAP
E380
7300
3B00
3A00
1A00
1C00
0C00
0C00
1400
1600
1600
1C00
ENDCHAR
STARTCHAR 03B4
ENCODING 948
SWIDTH 540 0
DWIDTH 9 0
BBX 8 12 1 0
BITMAP
3C
7C
40
60
78
3C
EE
C7
C7
C7
E6
7C
ENDCHAR
STARTCHAR 03B5
ENCODING 949
SWIDTH 420 0
DWIDTH 7 0
BBX 6 8 1 0
BITMAP
78
C8
C8
60
F0
C0
CC
FC
ENDCHAR
STARTCHAR 03B6
ENCODING 950
SWIDTH 420 0
DWIDTH 7 0
BBX 6 16 1 -4
BITMAP
FC
FC
8C
98
30
60
E0
C0
C0
E0
F8
7C
0C
0C
1C
10
ENDCHAR
STARTCHAR 03B7
ENCODING 951
SWIDTH 600 0
DWIDTH 10 0
BBX 8 12 1 -4
BITMAP
26
FF
73
63
63
63
63
63
03
03
03
02
ENDCHAR
STARTCHAR 03B8
ENCODING 952
SWIDTH 540 0
DWIDTH 9 0
BBX 8 12 1 0
BITMAP
3C
66
C6
C7
C7
FF
FF
C7
C7
C6
66
7C
ENDCHAR
STARTCHAR 03B9
ENCODING 953
SWIDTH 300 0
DWIDTH 5 0
BBX 5 8 1 0
BITMAP
20
E0
60
60
60
60
60
78
ENDCHAR
STARTCHAR 03BA
ENCODING 954
SWIDTH 600 0
DWIDTH 10 0
BBX 9 8 1 0
BITMAP
2F00
E600
6C00
7800
7C00
6E00
6700
6380
ENDCHAR
STARTCHAR 03BB
ENCODING 955
SWIDTH 540 0
DWIDTH 9 0
BBX 9 12 0 0
BITMAP
7000
1800
1800
1C00
1C00
1C00
1E00
3E00
2600
6600
6700
E380
ENDCHAR
STARTCHAR 03BC
ENCODING 956
SWIDTH 600 0
DWIDTH 10 0
BBX 9 12 1 -4
BITMAP
2100
EF00
6300
6300
6300
6700
6780
7B80
6000
6000
6000
C000
ENDCHAR
STARTCHAR 03BD
ENCODING 957
SWIDTH 480 0
DWIDTH 8 0
BBX 8 8 0 0
BITMAP
21
F7
71
31
3A
1E
1C
18
ENDCHAR
STARTCHAR 03BE
ENCODING 958
SWIDTH 420 0
DWIDTH 7 0
BBX 6 16 1 -4
BITMAP
FC
FC
98
60
E0
E0
70
78
C0
C0
F0
7C
0C
0C
1C
10
ENDCHAR
STARTCHAR 03BF
ENCODING 959
SWIDTH 540 0
DWIDTH 9 0
BBX 8 8 1 0
BITMAP
3C
6E
C7
C7
C7
C7
E6
7C
ENDCHAR
STARTCHAR 03C0
ENCODING 960
SWIDTH 540 0
DWIDTH 9 0
BBX 8 9 1 0
BITMAP
01
7F
FF
AE
2E
2E
6E
6E
C7
ENDCHAR
STARTCHAR 03C1
ENCODING 961
SWIDTH 540 0
DWIDTH 9 0
BBX 8 12 1 -4
BITMAP
3C
66
C7
C7
C7
C6
C6
FC
C0
C0
C0
80
ENDCHAR
STARTCHAR 03C2
ENCODING 962
SWIDTH 420 0
DWIDTH 7 0
BBX 6 12 1 -4
BITMAP
38
EC
C4
C0
C0
E0
78
3C
0C
0C
1C
30
ENDCHAR
STARTCHAR 03C3
ENCODING 963
SWIDTH 600 0
DWIDTH 10 0
BBX 10 9 1 0
BITMAP
00C0
3F80
7F80
C600
C700
C700
C700
E600
7C00
ENDCHAR
STARTCHAR 03C4
ENCODING 964
SWIDTH 360 0
DWIDTH 6 0
BBX 6 9 0 0
BITMAP
04
7C
7C
B0
30
30
30
30
1C
ENDCHAR
STARTCHAR 03C5
ENCODING 965
SWIDTH 480 0
DWIDTH 8 0
BBX 8 8 0 0
BITMAP
31
F7
71
71
71
71
72
3C
ENDCHAR
STARTCHAR 03C6
ENCODING 966
SWIDTH 780 0
DWIDTH 13 0
BBX 12 12 1 -4
BITMAP
23C0
66E0
C660
CE70
CE70
CE60
EEE0
7FC0
0E00
0E00
0E00
0C00
ENDCHAR
STARTCHAR 03C7
ENCODING 967
SWIDTH 540 0
DWIDTH 9 0
BBX 9 12 0 -4
BITMAP
3780
F300
3A00
3A00
1E00
1C00
1C00
1C00
2E00
2600
6700
F780
ENDCHAR
STARTCHAR 03C8
ENCODING 968
SWIDTH 720 0
DWIDTH 12 0
BBX 12 16 0 -4
BITMAP
0300
0F00
0700
0700
3710
F770
7730
7730
7730
7730
3F60
1FC0
0700
0700
0700
0600
ENDCHAR
STARTCHAR 03C9
ENCODING 969
SWIDTH 720 0
DWIDTH 12 0
BBX 11 8 1 0
BITMAP
2080
60C0
C4E0
CC60
C460
C4E0
ECE0
7BC0
ENDCHAR
STARTCHAR 03CA
ENCODING 970
SWIDTH 300 0
DWIDTH 5 0
BBX 6 11 0 0
BITMAP
CC
CC
00
10
70
30
30
30
30
30
3C
ENDCHAR
STARTCHAR 03CB
ENCODING 971
SWIDTH 480 0
DWIDTH 8 0
BBX 8 11 0 0
BITMAP
76
77
00
31
F7
71
71
71
71
72
3C
ENDCHAR
STARTCHAR 03CC
ENCODING 972
SWIDTH 540 0
DWIDTH 9 0
BBX 8 12 1 0
BITMAP
18
18
10
00
3C
6E
C7
C7
C7
C7
E6
7C
ENDCHAR
STARTCHAR 03CD
ENCODING 973
SWIDTH 480 0
DWIDTH 8 0
BBX 8 12 0 0
BITMAP
0C
08
08
00
31
F7
71
71
71
71
72
3C
ENDCHAR
STARTCHAR 03CE
ENCODING 974
SWIDTH 720 0
DWIDTH 12 0
BBX 11 12 1 0
BITMAP
0600
0400
0400
0000
2080
60C0
C4E0
CC60
C460
C4E0
ECE0
7BC0
ENDCHAR
STARTCHAR 03CF
ENCODING 975
SWIDTH 720 0
DWIDTH 12 0
BBX 11 15 1 -4
BITMAP
FBC0
6100
6200
6400
6C00
7C00
6E00
6700
6380
7380
F9E0
0380
0700
0700
0700
ENDCHAR
STARTCHAR 03D1
ENCODING 977
SWIDTH 600 0
DWIDTH 10 0
BBX 10 12 0 0
BITMAP
1E00
3300
7300
7380
3380
1FC0
0380
F380
7380
7300
3300
3E00
ENDCHAR
STARTCHAR 03D2
ENCODING 978
SWIDTH 660 0
DWIDTH 11 0
BBX 11 11 0 0
BITMAP
F0E0
39E0
1D20
0E00
0E00
0E00
0E00
0E00
0E00
0E00
1F00
ENDCHAR
STARTCHAR 03D5
ENCODING 981
SWIDTH 780 0
DWIDTH 13 0
BBX 11 16 1 -4
BITMAP
0E00
1E00
0E00
0E00
3F80
6EC0
CE60
CE60
CE60
CE60
EEE0
7FC0
0E00
0E00
0E00
0C00
ENDCHAR
STARTCHAR 03D6
ENCODING 982
SWIDTH 780 0
DWIDTH 13 0
BBX 12 9 1 0
BITMAP
0010
3FF0
FFF0
90C0
3260
7270
7270
7260
3DE0
ENDCHAR
STARTCHAR 03D7
ENCODING 983
SWIDTH 600 0
DWIDTH 10 0
BBX 9 12 1 -4
BITMAP
2F00
E600
6C00
7800
7C00
6E00
6700
6380
0180
0180
2300
3E00
ENDCHAR
STARTCHAR 03F0
ENCODING 1008
SWIDTH 600 0
DWIDTH 10 0
BBX 9 8 1 0
BITMAP
E300
E700
6E00
7C00
7C00
7600
E780
E700
ENDCHAR
STARTCHAR 03F1
ENCODING 1009
SWIDTH 540 0
DWIDTH 9 0
BBX 8 12 1 -4
BITMAP
3C
6E
C7
C7
C7
C7
E6
BC
C0
FC
7E
3E
ENDCHAR
STARTCHAR 03F2
ENCODING 1010
SWIDTH 420 0
DWIDTH 7 0
BBX 6 8 1 0
BITMAP
38
6C
C4
C0
C0
C0
E0
7C
ENDCHAR
STARTCHAR 03F4
ENCODING 1012
SWIDTH 720 0
DWIDTH 12 0
BBX 11 11 1 0
BITMAP
3F80
61C0
E0C0
C0E0
C0E0
FFE0
C0E0
E0E0
E0C0
7180
3F00
ENDCHAR
STARTCHAR 03F6
ENCODING 1014
SWIDTH 420 0
DWIDTH 7 0
BBX 7 8 0 0
BITMAP
78
4E
46
06
3E
06
CE
FC
ENDCHAR
STARTCHAR 03F7
ENCODING 1015
SWIDTH 600 0
DWIDTH 10 0
BBX 9 11 1 0
BITMAP
F800
6000
7F00
6380
6180
6180
6380
6700
6800
7000
F800
ENDCHAR
STARTCHAR 03F8
ENCODING 1016
SWIDTH 600 0
DWIDTH 10 0
BBX 10 16 0 -4
BITMAP
3000
F000
3000
3000
3700
3F80
31C0
31C0
31C0
31C0
3180
3F00
3000
3000
3000
2000
ENDCHAR
STARTCHAR 03F9
ENCODING 1017
SWIDTH 600 0
DWIDTH 10 0
BBX 9 11 1 0
BITMAP
3F80
6180
E180
C000
C000
C000
C000
E000
E000
7080
3F00
ENDCHAR
STARTCHAR 0400
ENCODING 1024
SWIDTH 600 0
DWIDTH 10 0
BBX 9 15 1 0
BITMAP
1000
1800
0800
0000
FF00
6100
6100
6200
6600
7E00
6600
6000
6180
7180
FF00
ENDCHAR
STARTCHAR 0401
ENCODING 1025
SWIDTH 600 0
DWIDTH 10 0
BBX 9 15 1 0
BITMAP
2600
6600
6600
0000
FF00
6100
6100
6200
6600
7E00
6600
6000
6180
7180
FF00
ENDCHAR
STARTCHAR 0402
ENCODING 1026
SWIDTH 780 0
DWIDTH 13 0
BBX 13 11 0 0
BITMAP
7FC0
4E40
CE40
0E00
0E00
0FF0
0E38
0E38
0E38
0E30
1FF0
ENDCHAR
STARTCHAR 0403
ENCODING 1027
SWIDTH 540 0
DWIDTH 9 0
BBX 8 16 1 0
BITMAP
0C
0C
18
00
00
FF
61
61
60
60
60
60
60
60
70
F8
ENDCHAR
STARTCHAR 0404
ENCODING 1028
SWIDTH 600 0
DWIDTH 10 0
BBX 9 11 1 0
BITMAP
3F80
6180
E180
C000
C000
FE00
C000
C000
E180
7180
3F00
ENDCHAR
STARTCHAR 0405
ENCODING 1029
SWIDTH 540 0
DWIDTH 9 0
BBX 8 11 1 0
BITMAP
7E
C6
C6
E0
F8
7E
1E
87
C7
C6
FC
ENDCHAR
STARTCHAR 0406
ENCODING 1030
SWIDTH 360 0
DWIDTH 6 0
BBX 5 11 1 0
BITMAP
F8
60
60
60
60
60
60
60
60
70
F8
ENDCHAR
STARTCHAR 0407
ENCODING 1031
SWIDTH 360 0
DWIDTH 6 0
BBX 6 14 0 0
BITMAP
EC
6C
00
7C
30
30
30
30
30
30
30
30
38
7C
ENDCHAR
STARTCHAR 0408
ENCODING 1032
SWIDTH 360 0
DWIDTH 6 0
BBX 5 15 0 -4
BITMAP
78
30
30
30
30
30
30
30
30
30
30
30
70
60
C0
ENDCHAR
STARTCHAR 0409
ENCODING 1033
SWIDTH 900 0
DWIDTH 15 0
BBX 15 11 0 0
BITMAP
3FE0
09C0
0980
0980
0980
11FC
118E
118E
318E
F1CE
E3F8
ENDCHAR
STARTCHAR 040A
ENCODING 1034
SWIDTH 960 0
DWIDTH 16 0
BBX 15 11 1 0
BITMAP
FBE0
61C0
61C0
61C0
61C0
7FFC
61CE
61CE
61CE
71CE
FBFC
ENDCHAR
STARTCHAR 040B
ENCODING 1035
SWIDTH 840 0
DWIDTH 14 0
BBX 14 11 0 0
BITMAP
7FC0
4E40
CE40
0E00
0E00
0FF0
0E30
0E38
0E38
0E38
1F7C
ENDCHAR
STARTCHAR 040C
ENCODING 1036
SWIDTH 720 0
DWIDTH 12 0
BBX 11 16 1 0
BITMAP
0300
0600
0400
0400
0000
F9C0
6180
6300
6600
6400
6E00
6700
6700
6380
71C0
F9E0
ENDCHAR
STARTCHAR 040D
ENCODING 1037
SWIDTH 720 0
DWIDTH 12 0
BBX 11 15 1 0
BITMAP
0800
0C00
0400
0000
F9E0
61C0
63C0
62C0
66C0
64C0
68C0
68C0
70C0
71C0
E3E0
ENDCHAR
STARTCHAR 040E
ENCODING 1038
SWIDTH 660 0
DWIDTH 11 0
BBX 11 15 0 0
BITMAP
18C0
1880
0F00
0000
F8E0
7040
3880
1880
1D00
0F00
0700
0600
0600
3C00
3800
ENDCHAR
STARTCHAR 040F
ENCODING 1039
SWIDTH 720 0
DWIDTH 12 0
BBX 11 14 1 -3
BITMAP
FBE0
61C0
61C0
61C0
61C0
61C0
61C0
61C0
61C0
71C0
FFE0
0C00
0400
0400
ENDCHAR
STARTCHAR 0410
ENCODING 1040
SWIDTH 660 0
DWIDTH 11 0
BBX 12 11 0 0
BITMAP
0600
0600
0F00
0F00
1300
1380
3180
3FC0
21C0
60E0
F1F0
ENDCHAR
STARTCHAR 0411
ENCODING 1041
SWIDTH 660 0
DWIDTH 11 0
BBX 9 11 1 0
BITMAP
FF00
6100
6100
6000
6000
7F00
6380
6180
6180
7380
FF00
ENDCHAR
STARTCHAR 0412
ENCODING 1042
SWIDTH 660 0
DWIDTH 11 0
BBX 9 11 1 0
BITMAP
FF00
6380
6380
6300
6600
7F00
6380
6180
6180
7380
FF00
ENDCHAR
STARTCHAR 0413
ENCODING 1043
SWIDTH 540 0
DWIDTH 9 0
BBX 8 11 1 0
BITMAP
FF
61
61
60
60
60
60
60
60
70
F8
ENDCHAR
STARTCHAR 0414
ENCODING 1044
SWIDTH 720 0
DWIDTH 12 0
BBX 12 14 0 -3
BITMAP
3FE0
09C0
09C0
09C0
09C0
19C0
11C0
11C0
11C0
31C0
FFF0
C030
4030
4030
ENDCHAR
STARTCHAR 0415
ENCODING 1045
SWIDTH 600 0
DWIDTH 10 0
BBX 9 11 1 0
BITMAP
FF00
6100
6100
6200
6600
7E00
6600
6000
6180
7180
FF00
ENDCHAR
STARTCHAR 0416
ENCODING 1046
SWIDTH 1020 0
DWIDTH 17 0
BBX 17 11 0 0
BITMAP
79E780
10C600
08CC00
04C800
06D800
0ED800
0CDC00
1CCE00
38CE00
39C700
F1E780
ENDCHAR
STARTCHAR 0417
ENCODING 1047
SWIDTH 540 0
DWIDTH 9 0
BBX 8 11 1 0
BITMAP
FE
C7
C7
06
1C
3E
07
07
C7
C7
FC
ENDCHAR
STARTCHAR 0418
ENCODING 1048
SWIDTH 720 0
DWIDTH 12 0
BBX 11 11 1 0
BITMAP
F9E0
61C0
63C0
62C0
66C0
64C0
68C0
68C0
70C0
71C0
E3E0
ENDCHAR
STARTCHAR 0419
ENCODING 1049
SWIDTH 720 0
DWIDTH 12 0
BBX 11 15 1 0
BITMAP
3180
3180
1F00
0000
F9E0
61C0
63C0
62C0
66C0
64C0
68C0
68C0
70C0
71C0
E3E0
ENDCHAR
STARTCHAR 041A
ENCODING 1050
SWIDTH 720 0
DWIDTH 12 0
BBX 11 11 1 0
BITMAP
F9C0
6180
6300
6600
6400
6E00
6700
6700
6380
71C0
F9E0
ENDCHAR
STARTCHAR 041B
ENCODING 1051
SWIDTH 660 0
DWIDTH 11 0
BBX 11 11 0 0
BITMAP
3FE0
09C0
09C0
09C0
09C0
11C0
11C0
11C0
31C0
F1C0
E3E0
ENDCHAR
STARTCHAR 041C
ENCODING 1052
SWIDTH 960 0
DWIDTH 16 0
BBX 16 11 0 0
BITMAP
781E
3C1C
3C3C
2C3C
2E2C
264C
274C
278C
238C
638E
F11F
ENDCHAR
STARTCHAR 041D
ENCODING 1053
SWIDTH 720 0
DWIDTH 12 0
BBX 11 11 1 0
BITMAP
FBE0
61C0
60C0
60C0
60C0
7FC0
60C0
60C0
60C0
71C0
FBE0
ENDCHAR
STARTCHAR 041E
ENCODING 1054
SWIDTH 720 0
DWIDTH 12 0
BBX 11 11 1 0
BITMAP
3F80
61C0
E0C0
C0E0
C0E0
C0E0
C0E0
E0E0
E0C0
7180
3F00
ENDCHAR
STARTCHAR 041F
ENCODING 1055
SWIDTH 720 0
DWIDTH 12 0
BBX 11 11 1 0
BITMAP
FFE0
61C0
61C0
61C0
61C0
61C0
61C0
61C0
61C0
71C0
FBE0
ENDCHAR
STARTCHAR 0420
ENCODING 1056
SWIDTH 600 0
DWIDTH 10 0
BBX 9 11 1 0
BITMAP
FF00
6380
6380
6380
6380
6300
6E00
6000
6000
7000
F800
ENDCHAR
STARTCHAR 0421
ENCODING 1057
SWIDTH 600 0
DWIDTH 10 0
BBX 9 11 1 0
BITMAP
3F80
6180
E180
C000
C000
C000
C000
E000
E000
7080
3F00
ENDCHAR
STARTCHAR 0422
ENCODING 1058
SWIDTH 600 0
DWIDTH 10 0
BBX 10 11 0 0
BITMAP
7FC0
4E40
CE40
0E00
0E00
0E00
0E00
0E00
0E00
0E00
1F00
ENDCHAR
STARTCHAR 0423
ENCODING 1059
SWIDTH 660 0
DWIDTH 11 0
BBX 11 11 0 0
BITMAP
F8E0
7040
3880
1880
1D00
0F00
0700
0600
0600
3C00
3800
ENDCHAR
STARTCHAR 0424
ENCODING 1060
SWIDTH 840 0
DWIDTH 14 0
BBX 13 12 1 0
BITMAP
1F80
0700
1FC0
7670
C638
C638
C638
E630
7670
1FC0
0700
1F80
ENDCHAR
STARTCHAR 0425
ENCODING 1061
SWIDTH 660 0
DWIDTH 11 0
BBX 10 11 1 0
BITMAP
FBC0
7180
3900
3A00
1E00
0E00
1E00
3700
2700
6380
E7C0
ENDCHAR
STARTCHAR 0426
ENCODING 1062
SWIDTH 780 0
DWIDTH 13 0
BBX 12 14 1 -3
BITMAP
FBE0
61C0
61C0
61C0
61C0
61C0
61C0
61C0
61C0
61C0
FFF0
0030
0030
0030
ENDCHAR
STARTCHAR 0427
ENCODING 1063
SWIDTH 720 0
DWIDTH 12 0
BBX 11 11 1 0
BITMAP
F3E0
6180
6180
6180
7180
7F80
1D80
0180
0180
01C0
07E0
ENDCHAR
STARTCHAR 0428
ENCODING 1064
SWIDTH 1020 0
DWIDTH 17 0
BBX 16 11 1 0
BITMAP
F3DF
718E
618E
618E
618E
618E
618E
618E
618E
618E
FFFF
ENDCHAR
STARTCHAR 0429
ENCODING 1065
SWIDTH 1080 0
DWIDTH 18 0
BBX 17 14 1 -3
BITMAP
F3DF00
718E00
618E00
618E00
618E00
618E00
618E00
618E00
618E00
618E00
FFFF80
000180
000180
000180
ENDCHAR
STARTCHAR 042A
ENCODING 1066
SWIDTH 720 0
DWIDTH 12 0
BBX 12 11 0 0
BITMAP
7F00
4E00
CE00
0E00
0E00
0FE0
0E70
0E70
0E70
0E70
1FE0
ENDCHAR
STARTCHAR 042B
ENCODING 1067
SWIDTH 900 0
DWIDTH 15 0
BBX 14 11 1 0
BITMAP
F87C
7038
6038
6038
6038
7F38
63B8
63B8
63B8
7338
FE7C
ENDCHAR
STARTCHAR 042C
ENCODING 1068
SWIDTH 660 0
DWIDTH 11 0
BBX 9 11 1 0
BITMAP
F800
7000
6000
6000
6000
7F80
6380
6180
6180
7380
FF00
ENDCHAR
STARTCHAR 042D
ENCODING 1069
SWIDTH 600 0
DWIDTH 10 0
BBX 9 11 1 0
BITMAP
FE00
C700
8380
0380
0380
3F80
0380
0380
8300
C700
FC00
ENDCHAR
STARTCHAR 042E
ENCODING 1070
SWIDTH 1020 0
DWIDTH 17 0
BBX 16 11 1 0
BITMAP
F9FC
630E
6306
6707
6607
7F07
6707
6707
6306
738C
F8F8
ENDCHAR
STARTCHAR 042F
ENCODING 1071
SWIDTH 660 0
DWIDTH 11 0
BBX 11 11 0 0
BITMAP
1FE0
31C0
31C0
31C0
39C0
1FC0
1DC0
1DC0
39C0
71C0
F3E0
ENDCHAR
STARTCHAR 0430
ENCODING 1072
SWIDTH 480 0
DWIDTH 8 0
BBX 8 8 0 0
BITMAP
1C
6E
E6
0E
36
66
E7
7F
ENDCHAR
STARTCHAR 0431
ENCODING 1073
SWIDTH 540 0
DWIDTH 9 0
BBX 9 12 0 0
BITMAP
0180
0F80
1F00
2000
6000
7F00
6380
E380
E380
6380
7300
3E00
ENDCHAR
STARTCHAR 0432
ENCODING 1074
SWIDTH 540 0
DWIDTH 9 0
BBX 8 8 1 0
BITMAP
FC
E6
66
6C
7E
67
E7
FE
ENDCHAR
STARTCHAR 0433
ENCODING 1075
SWIDTH 480 0
DWIDTH 8 0
BBX 7 8 1 0
BITMAP
FE
E6
66
60
60
60
E0
F0
ENDCHAR
STARTCHAR 0434
ENCODING 1076
SWIDTH 600 0
DWIDTH 10 0
BBX 10 11 0 -3
BITMAP
3F80
3380
1300
1300
1300
2300
2300
FFC0
C0C0
C0C0
C0C0
ENDCHAR
STARTCHAR 0435
ENCODING 1077
SWIDTH 480 0
DWIDTH 8 0
BBX 7 8 1 0
BITMAP
38
EC
C6
C6
FE
C0
E2
7C
ENDCHAR
STARTCHAR 0436
ENCODING 1078
SWIDTH 840 0
DWIDTH 14 0
BBX 14 8 0 0
BITMAP
7FFC
3398
1390
0BA0
1FF0
1BB0
3BB8
F7DC
ENDCHAR
STARTCHAR 0437
ENCODING 1079
SWIDTH 480 0
DWIDTH 8 0
BBX 7 8 1 0
BITMAP
78
CC
8C
1C
3C
8E
8C
FC
ENDCHAR
STARTCHAR 0438
ENCODING 1080
SWIDTH 600 0
DWIDTH 10 0
BBX 9 8 1 0
BITMAP
F380
E700
6700
6B00
6B00
7300
E300
E780
ENDCHAR
STARTCHAR 0439
ENCODING 1081
SWIDTH 600 0
DWIDTH 10 0
BBX 9 12 1 0
BITMAP
6300
6300
3E00
0000
F380
E700
6700
6B00
6B00
7300
E300
E780
ENDCHAR
STARTCHAR 043A
ENCODING 1082
SWIDTH 600 0
DWIDTH 10 0
BBX 9 8 1 0
BITMAP
F780
E300
6400
6800
7C00
6E00
E700
F780
ENDCHAR
STARTCHAR 043B
ENCODING 1083
SWIDTH 540 0
DWIDTH 9 0
BBX 9 8 0 0
BITMAP
3F80
1380
1300
1300
1300
2300
E300
E780
ENDCHAR
STARTCHAR 043C
ENCODING 1084
SWIDTH 720 0
DWIDTH 12 0
BBX 12 8 0 0
BITMAP
70F0
38E0
39E0
3DE0
2E60
4E60
4660
E4F0
ENDCHAR
STARTCHAR 043D
ENCODING 1085
SWIDTH 600 0
DWIDTH 10 0
BBX 9 8 1 0
BITMAP
F780
E380
6300
6300
7F00
6300
6300
F780
ENDCHAR
STARTCHAR 043E
ENCODING 1086
SWIDTH 540 0
DWIDTH 9 0
BBX 8 8 1 0
BITMAP
3C
6E
C7
C7
C7
C7
E6
7C
ENDCHAR
STARTCHAR 043F
ENCODING 1087
SWIDTH 600 0
DWIDTH 10 0
BBX 9 8 1 0
BITMAP
FF80
E300
6300
6300
6300
6300
E300
F780
ENDCHAR
STARTCHAR 0440
ENCODING 1088
SWIDTH 600 0
DWIDTH 10 0
BBX 9 12 1 -4
BITMAP
2E00
FF00
6380
6380
6380
6380
6300
7E00
6000
6000
6000
F800
ENDCHAR
STARTCHAR 0441
ENCODING 1089
SWIDTH 420 0
DWIDTH 7 0
BBX 6 8 1 0
BITMAP
38
6C
C4
C0
C0
C0
E0
7C
ENDCHAR
STARTCHAR 0442
ENCODING 1090
SWIDTH 540 0
DWIDTH 9 0
BBX 9 8 0 0
BITMAP
7F80
DD80
DC80
1C00
1C00
1C00
1C00
3E00
ENDCHAR
STARTCHAR 0443
ENCODING 1091
SWIDTH 540 0
DWIDTH 9 0
BBX 9 12 0 -4
BITMAP
FB80
7380
3100
3A00
3A00
1A00
1C00
0C00
0800
0800
7000
7000
ENDCHAR
STARTCHAR 0444
ENCODING 1092
SWIDTH 780 0
DWIDTH 13 0
BBX 12 16 1 -4
BITMAP
0600
1E00
0E00
0E00
1F80
7FE0
CE60
CE70
CE70
CE60
EEE0
3F80
0E00
0E00
0E00
1F00
ENDCHAR
STARTCHAR 0445
ENCODING 1093
SWIDTH 540 0
DWIDTH 9 0
BBX 9 8 0 0
BITMAP
7B80
7300
3A00
1E00
1E00
3E00
2700
FF80
ENDCHAR
STARTCHAR 0446
ENCODING 1094
SWIDTH 660 0
DWIDTH 11 0
BBX 10 11 1 -3
BITMAP
F780
E700
6300
6300
6300
6300
E300
FFC0
00C0
00C0
00C0
ENDCHAR
STARTCHAR 0447
ENCODING 1095
SWIDTH 540 0
DWIDTH 9 0
BBX 9 8 0 0
BITMAP
F780
7380
7300
7300
3F00
0300
0380
0780
ENDCHAR
STARTCHAR 0448
ENCODING 1096
SWIDTH 840 0
DWIDTH 14 0
BBX 13 8 1 0
BITMAP
FF78
E738
6730
6730
6730
6730
E730
FFF8
ENDCHAR
STARTCHAR 0449
ENCODING 1097
SWIDTH 900 0
DWIDTH 15 0
BBX 14 11 1 -3
BITMAP
FF78
E738
6730
6730
6730
6730
E730
FFFC
000C
000C
000C
ENDCHAR
STARTCHAR 044A
ENCODING 1098
SWIDTH 600 0
DWIDTH 10 0
BBX 10 8 0 0
BITMAP
FE00
DC00
D800
1F00
1980
19C0
19C0
3F80
ENDCHAR
STARTCHAR 044B
ENCODING 1099
SWIDTH 780 0
DWIDTH 13 0
BBX 12 8 1 0
BITMAP
F0F0
E070
6060
7C60
6660
6760
E760
FEF0
ENDCHAR
STARTCHAR 044C
ENCODING 1100
SWIDTH 540 0
DWIDTH 9 0
BBX 8 8 1 0
BITMAP
F0
E0
60
7C
67
67
E7
FE
ENDCHAR
STARTCHAR 044D
ENCODING 1101
SWIDTH 420 0
DWIDTH 7 0
BBX 7 8 0 0
BITMAP
78
4E
46
06
3E
06
CE
FC
ENDCHAR
STARTCHAR 044E
ENCODING 1102
SWIDTH 780 0
DWIDTH 13 0
BBX 12 8 1 0
BITMAP
F1C0
E660
6670
6E30
7E30
6E30
E670
F3E0
ENDCHAR
STARTCHAR 044F
ENCODING 1103
SWIDTH 540 0
DWIDTH 9 0
BBX 9 8 0 0
BITMAP
1F80
7300
6300
7300
3F00
3300
3300
E780
ENDCHAR
STARTCHAR 0450
ENCODING 1104
SWIDTH 480 0
DWIDTH 8 0
BBX 7 12 1 0
BITMAP
60
20
10
00
38
EC
C6
C6
FE
C0
E2
7C
ENDCHAR
STARTCHAR 0451
ENCODING 1105
SWIDTH 480 0
DWIDTH 8 0
BBX 7 11 1 0
BITMAP
EC
EE
00
38
EC
C6
C6
FE
C0
E2
7C
ENDCHAR
STARTCHAR 0452
ENCODING 1106
SWIDTH 600 0
DWIDTH 10 0
BBX 9 16 0 -4
BITMAP
3000
F000
3000
FC00
3300
3F80
3980
3180
3180
3180
3180
F980
0180
0300
0300
0400
ENDCHAR
STARTCHAR 0453
ENCODING 1107
SWIDTH 480 0
DWIDTH 8 0
BBX 7 12 1 0
BITMAP
18
18
10
00
FE
E6
66
60
60
60
E0
F0
ENDCHAR
STARTCHAR 0454
ENCODING 1108
SWIDTH 420 0
DWIDTH 7 0
BBX 6 8 1 0
BITMAP
38
EC
C4
C0
F8
C0
E4
7C
ENDCHAR
STARTCHAR 0455
ENCODING 1109
SWIDTH 420 0
DWIDTH 7 0
BBX 6 8 1 0
BITMAP
78
C8
CC
F0
7C
9C
8C
F8
ENDCHAR
STARTCHAR 0456
ENCODING 1110
SWIDTH 300 0
DWIDTH 5 0
BBX 4 12 1 0
BITMAP
40
E0
60
00
20
E0
60
60
60
60
60
F0
ENDCHAR
STARTCHAR 0457
ENCODING 1111
SWIDTH 300 0
DWIDTH 5 0
BBX 6 11 0 0
BITMAP
DC
DC
00
10
70
30
30
30
30
30
78
ENDCHAR
STARTCHAR 0458
ENCODING 1112
SWIDTH 300 0
DWIDTH 5 0
BBX 4 16 0 -4
BITMAP
20
70
30
00
10
70
30
30
30
30
30
30
30
70
60
C0
ENDCHAR
STARTCHAR 0459
ENCODING 1113
SWIDTH 780 0
DWIDTH 13 0
BBX 13 8 0 0
BITMAP
3F80
1380
1300
13E0
1338
3338
E338
E7F0
ENDCHAR
STARTCHAR 045A
ENCODING 1114
SWIDTH 840 0
DWIDTH 14 0
BBX 13 8 1 0
BITMAP
F780
E700
6700
6700
7FF0
6738
E738
F7F0
ENDCHAR
STARTCHAR 045B
ENCODING 1115
SWIDTH 600 0
DWIDTH 10 0
BBX 10 12 0 0
BITMAP
3000
F000
3000
FC00
3000
3F80
3980
3180
3180
3180
3180
FBC0
ENDCHAR
STARTCHAR 045C
ENCODING 1116
SWIDTH 540 0
DWIDTH 9 0
BBX 9 12 1 0
BITMAP
0600
0400
0800
0000
F780
E300
6400
6800
7C00
6E00
E700
F780
ENDCHAR
STARTCHAR 045D
ENCODING 1117
SWIDTH 600 0
DWIDTH 10 0
BBX 9 12 1 0
BITMAP
3000
1800
0800
0000
F380
E700
6700
6B00
6B00
7300
E300
E780
ENDCHAR
STARTCHAR 045E
ENCODING 1118
SWIDTH 540 0
DWIDTH 9 0
BBX 9 16 0 -4
BITMAP
3180
3180
1F00
0000
FB80
7180
3100
3A00
3A00
1A00
1C00
0C00
0800
0800
7000
7000
ENDCHAR
STARTCHAR 045F
ENCODING 1119
SWIDTH 600 0
DWIDTH 10 0
BBX 9 11 1 -3
BITMAP
F780
E700
6300
6300
6300
6300
E300
FF80
1800
1800
0800
ENDCHAR
STARTCHAR 0462
ENCODING 1122
SWIDTH 720 0
DWIDTH 12 0
BBX 11 12 0 0
BITMAP
3E00
1C00
7F80
7D80
DC80
1C00
1FC0
1CE0
1C60
1C60
1CE0
3FC0
ENDCHAR
STARTCHAR 0463
ENCODING 1123
SWIDTH 600 0
DWIDTH 10 0
BBX 10 12 0 0
BITMAP
1800
3800
1800
1800
7F00
D900
D980
1F00
19C0
18C0
18C0
3F80
ENDCHAR
STARTCHAR 046A
ENCODING 1130
SWIDTH 900 0
DWIDTH 15 0
BBX 16 11 0 0
BITMAP
3FFC
1C18
0E10
0720
03C0
0FF0
1DB8
1998
399C
319C
F3CF
ENDCHAR
STARTCHAR 046B
ENCODING 1131
SWIDTH 780 0
DWIDTH 13 0
BBX 13 8 0 0
BITMAP
7FF0
3820
1C40
0E80
1FE0
3370
7730
E7B8
ENDCHAR
STARTCHAR 0472
ENCODING 1138
SWIDTH 720 0
DWIDTH 12 0
BBX 11 11 1 0
BITMAP
3F80
61C0
E0C0
C0E0
D8E0
FFE0
C0E0
E0E0
E0C0
7180
3F00
ENDCHAR
STARTCHAR 0473
ENCODING 1139
SWIDTH 540 0
DWIDTH 9 0
BBX 8 8 1 0
BITMAP
3C
6E
C7
F7
FF
C7
E6
7C
ENDCHAR
STARTCHAR 0474
ENCODING 1140
SWIDTH 720 0
DWIDTH 12 0
BBX 12 11 0 0
BITMAP
F870
70F0
3080
3880
1900
1D00
1D00
0E00
0E00
0600
0400
ENDCHAR
STARTCHAR 0475
ENCODING 1141
SWIDTH 480 0
DWIDTH 8 0
BBX 9 8 0 0
BITMAP
F180
7380
7200
3400
3C00
1C00
1800
1800
ENDCHAR
STARTCHAR 048A
ENCODING 1162
SWIDTH 780 0
DWIDTH 13 0
BBX 12 18 1 -3
BITMAP
3180
3180
1F00
0000
F9E0
61C0
63C0
62C0
66C0
64C0
68C0
68C0
70C0
71C0
E3F0
0030
0060
0060
ENDCHAR
STARTCHAR 048B
ENCODING 1163
SWIDTH 660 0
DWIDTH 11 0
BBX 10 15 1 -3
BITMAP
6300
6300
3E00
0000
F380
E700
6700
6B00
6B00
7300
E300
E7C0
00C0
0180
0100
ENDCHAR
STARTCHAR 048C
ENCODING 1164
SWIDTH 660 0
DWIDTH 11 0
BBX 10 11 0 0
BITMAP
7C00
3800
FC00
3000
3000
3FC0
31C0
30C0
30C0
39C0
7F80
ENDCHAR
STARTCHAR 048D
ENCODING 1165
SWIDTH 540 0
DWIDTH 9 0
BBX 9 12 0 0
BITMAP
3000
F000
3000
3000
FE00
3000
3000
3F00
3380
3380
7380
7F00
ENDCHAR
STARTCHAR 048E
ENCODING 1166
SWIDTH 600 0
DWIDTH 10 0
BBX 9 11 1 0
BITMAP
FF00
6380
6180
6180
6580
6700
6F00
6080
6000
7000
F800
ENDCHAR
STARTCHAR 048F
ENCODING 1167
SWIDTH 600 0
DWIDTH 10 0
BBX 9 12 1 -4
BITMAP
2E00
FF00
6380
6380
6380
6380
6700
7E00
6100
6000
6000
F800
ENDCHAR
STARTCHAR 0490
ENCODING 1168
SWIDTH 540 0
DWIDTH 9 0
BBX 8 14 1 0
BITMAP
03
03
03
FF
60
60
60
60
60
60
60
60
70
F8
ENDCHAR
STARTCHAR 0491
ENCODING 1169
SWIDTH 420 0
DWIDTH 7 0
BBX 6 11 1 0
BITMAP
04
04
04
FC
E0
60
60
60
60
E0
F0
ENDCHAR
STARTCHAR 0492
ENCODING 1170
SWIDTH 540 0
DWIDTH 9 0
BBX 9 11 0 0
BITMAP
7F80
3080
3080
3000
3000
FE00
3000
3000
3000
3800
7C00
ENDCHAR
STARTCHAR 0493
ENCODING 1171
SWIDTH 480 0
DWIDTH 8 0
BBX 8 8 0 0
BITMAP
7F
73
33
30
FC
30
70
78
ENDCHAR
STARTCHAR 0494
ENCODING 1172
SWIDTH 600 0
DWIDTH 10 0
BBX 9 15 1 -4
BITMAP
FF00
6100
6100
6000
6000
7F00
6380
6380
6180
7180
F980
0380
0300
0600
0400
ENDCHAR
STARTCHAR 0495
ENCODING 1173
SWIDTH 540 0
DWIDTH 9 0
BBX 8 12 1 -4
BITMAP
FE
E6
62
60
7E
67
67
F3
03
06
06
0C
ENDCHAR
STARTCHAR 0496
ENCODING 1174
SWIDTH 1080 0
DWIDTH 18 0
BBX 18 14 0 -3
BITMAP
7BE780
11C600
09CC00
0DC800
07D800
0FD800
0DDC00
1DCC00
39CE00
79C700
F3E7C0
0000C0
0000C0
0000C0
ENDCHAR
STARTCHAR 0497
ENCODING 1175
SWIDTH 840 0
DWIDTH 14 0
BBX 15 11 0 -3
BITMAP
77BC
3398
13B0
0BE0
1FE0
1BF0
33B8
F79E
0006
0006
0006
ENDCHAR
STARTCHAR 0498
ENCODING 1176
SWIDTH 540 0
DWIDTH 9 0
BBX 8 14 1 -3
BITMAP
FE
C7
C7
06
1C
3E
07
07
C7
C7
FC
10
10
10
ENDCHAR
STARTCHAR 0499
ENCODING 1177
SWIDTH 480 0
DWIDTH 8 0
BBX 7 11 1 -3
BITMAP
78
CC
8C
1C
3C
8E
8C
FC
30
20
20
ENDCHAR
STARTCHAR 049A
ENCODING 1178
SWIDTH 720 0
DWIDTH 12 0
BBX 12 14 1 -3
BITMAP
F9C0
6180
6300
6600
6400
6E00
6700
6700
6380
71C0
F9F0
0070
0020
0020
ENDCHAR
STARTCHAR 049B
ENCODING 1179
SWIDTH 540 0
DWIDTH 9 0
BBX 9 11 1 -3
BITMAP
F780
E300
6400
6800
7C00
6E00
E700
F780
0080
0080
0080
ENDCHAR
STARTCHAR 049C
ENCODING 1180
SWIDTH 720 0
DWIDTH 12 0
BBX 11 11 1 0
BITMAP
F8E0
61E0
6960
6A00
6E00
7F00
6B00
6B80
6180
71C0
F8E0
ENDCHAR
STARTCHAR 049D
ENCODING 1181
SWIDTH 660 0
DWIDTH 11 0
BBX 10 8 1 0
BITMAP
F0C0
E180
6A80
6C00
7E00
6B00
6380
F1C0
ENDCHAR
STARTCHAR 049E
ENCODING 1182
SWIDTH 720 0
DWIDTH 12 0
BBX 12 11 0 0
BITMAP
7CE0
30E0
FD20
3300
3600
3F00
3380
31C0
31C0
38E0
7CF0
ENDCHAR
STARTCHAR 049F
ENCODING 1183
SWIDTH 600 0
DWIDTH 10 0
BBX 10 12 0 0
BITMAP
3000
F000
3000
FE00
3180
3180
3280
3400
3E00
3700
3380
F9C0
ENDCHAR
STARTCHAR 04A0
ENCODING 1184
SWIDTH 840 0
DWIDTH 14 0
BBX 14 11 0 0
BITMAP
7F38
4E38
CE48
0E40
0F80
0FC0
0EE0
0E70
0E70
0E38
1F3C
ENDCHAR
STARTCHAR 04A1
ENCODING 1185
SWIDTH 660 0
DWIDTH 11 0
BBX 11 8 0 0
BITMAP
FE60
DCE0
DD20
1F00
1F80
1D80
1CC0
3EE0
ENDCHAR
STARTCHAR 04A2
ENCODING 1186
SWIDTH 780 0
DWIDTH 13 0
BBX 12 14 1 -3
BITMAP
FBE0
61C0
60C0
60C0
60C0
7FC0
60C0
60C0
60C0
71C0
FBF0
0030
0030
0030
ENDCHAR
STARTCHAR 04A3
ENCODING 1187
SWIDTH 660 0
DWIDTH 11 0
BBX 10 11 1 -3
BITMAP
F780
E380
6300
6300
7F00
6300
6300
F7C0
00C0
00C0
0040
ENDCHAR
STARTCHAR 04A4
ENCODING 1188
SWIDTH 900 0
DWIDTH 15 0
BBX 14 11 1 0
BITMAP
FBFC
61CC
61C4
61C0
61C0
7FC0
61C0
61C0
61C0
71C0
FBE0
ENDCHAR
STARTCHAR 04A5
ENCODING 1189
SWIDTH 720 0
DWIDTH 12 0
BBX 11 8 1 0
BITMAP
F7E0
E720
6320
6300
7F00
6300
E300
F7C0
ENDCHAR
STARTCHAR 04A8
ENCODING 1192
SWIDTH 900 0
DWIDTH 15 0
BBX 14 11 1 0
BITMAP
39C0
6370
E630
C638
CE38
CE38
C638
E630
E770
73EC
1FF8
ENDCHAR
STARTCHAR 04A9
ENCODING 1193
SWIDTH 780 0
DWIDTH 13 0
BBX 11 8 1 0
BITMAP
2000
6FC0
CCC0
DCE0
CCC0
CCC0
E780
3FE0
ENDCHAR
STARTCHAR 04AA
ENCODING 1194
SWIDTH 600 0
DWIDTH 10 0
BBX 9 14 1 -3
BITMAP
3F80
6180
E180
C000
C000
C000
C000
E000
E000
7080
3F00
0C00
0C00
0C00
ENDCHAR
STARTCHAR 04AB
ENCODING 1195
SWIDTH 420 0
DWIDTH 7 0
BBX 6 11 1 -3
BITMAP
38
6C
C4
C0
C0
C0
E0
7C
10
10
10
ENDCHAR
STARTCHAR 04AC
ENCODING 1196
SWIDTH 600 0
DWIDTH 10 0
BBX 10 14 0 -3
BITMAP
7FC0
4E40
CE40
0E00
0E00
0E00
0E00
0E00
0E00
0E00
1F80
0180
0180
0180
ENDCHAR
STARTCHAR 04AD
ENCODING 1197
SWIDTH 540 0
DWIDTH 9 0
BBX 9 11 0 -3
BITMAP
7F80
DD80
DC80
1C00
1C00
1C00
1C00
3F00
0300
0300
0300
ENDCHAR
STARTCHAR 04AE
ENCODING 1198
SWIDTH 600 0
DWIDTH 10 0
BBX 10 11 0 0
BITMAP
F9C0
7080
3880
3900
1D00
1E00
0E00
0E00
0E00
0E00
3F00
ENDCHAR
STARTCHAR 04AF
ENCODING 1199
SWIDTH 540 0
DWIDTH 9 0
BBX 9 12 0 -4
BITMAP
FB80
7180
7100
3A00
3A00
1A00
1C00
0C00
0C00
0C00
0C00
3E00
ENDCHAR
STARTCHAR 04B0
ENCODING 1200
SWIDTH 600 0
DWIDTH 10 0
BBX 10 11 0 0
BITMAP
F9C0
7080
3880
3900
1D00
1E00
0E00
3F80
0E00
0E00
3F00
ENDCHAR
STARTCHAR 04B1
ENCODING 1201
SWIDTH 540 0
DWIDTH 9 0
BBX 9 12 0 -4
BITMAP
FB80
7180
7100
3A00
3A00
1A00
1C00
3F00
0C00
0C00
0C00
3E00
ENDCHAR
STARTCHAR 04B2
ENCODING 1202
SWIDTH 720 0
DWIDTH 12 0
BBX 11 14 1 -3
BITMAP
FBC0
7180
3900
3A00
1E00
0E00
1E00
3700
2700
6380
E7E0
0060
0060
0060
ENDCHAR
STARTCHAR 04B3
ENCODING 1203
SWIDTH 540 0
DWIDTH 9 0
BBX 9 11 0 -3
BITMAP
7B80
7300
3A00
1E00
1E00
3E00
2700
FF80
0080
0080
0080
ENDCHAR
STARTCHAR 04B4
ENCODING 1204
SWIDTH 1020 0
DWIDTH 17 0
BBX 17 14 0 -3
BITMAP
7FDE00
4ECC00
CE4C00
0E0C00
0E0C00
0E0C00
0E0C00
0E0C00
0E0C00
0E0C00
1FFF80
000180
000100
000100
ENDCHAR
STARTCHAR 04B5
ENCODING 1205
SWIDTH 840 0
DWIDTH 14 0
BBX 14 11 0 -3
BITMAP
7F78
DF70
DD70
1C70
1C70
1C70
1C70
3FFC
000C
000C
000C
ENDCHAR
STARTCHAR 04B6
ENCODING 1206
SWIDTH 780 0
DWIDTH 13 0
BBX 11 14 1 -3
BITMAP
F3E0
6180
6180
6180
7180
7F80
1D80
0180
0180
01C0
07E0
0020
0020
0020
ENDCHAR
STARTCHAR 04B7
ENCODING 1207
SWIDTH 600 0
DWIDTH 10 0
BBX 10 11 0 -3
BITMAP
F780
7380
7300
7300
3F00
0300
0380
07C0
00C0
0040
0040
ENDCHAR
STARTCHAR 04B8
ENCODING 1208
SWIDTH 720 0
DWIDTH 12 0
BBX 11 11 1 0
BITMAP
F3E0
61C0
60C0
64C0
74C0
3FC0
04C0
04C0
04C0
01C0
03E0
ENDCHAR
STARTCHAR 04B9
ENCODING 1209
SWIDTH 600 0
DWIDTH 10 0
BBX 10 8 0 0
BITMAP
FBC0
71C0
7580
7580
3F80
0580
0180
03C0
ENDCHAR
STARTCHAR 04BA
ENCODING 1210
SWIDTH 720 0
DWIDTH 12 0
BBX 11 11 1 0
BITMAP
F800
7000
6000
6000
7F00
6380
6180
61C0
61C0
71C0
F3E0
ENDCHAR
STARTCHAR 04BB
ENCODING 1211
SWIDTH 600 0
DWIDTH 10 0
BBX 10 12 0 0
BITMAP
3000
F000
3000
3000
3300
3F80
3180
3180
3180
3180
3180
FBC0
ENDCHAR
STARTCHAR 04BC
ENCODING 1212
SWIDTH 780 0
DWIDTH 13 0
BBX 12 11 1 0
BITMAP
07C0
1C60
D870
B830
F830
7FF0
3800
3800
1C10
0E30
07C0
ENDCHAR
STARTCHAR 04BD
ENCODING 1213
SWIDTH 600 0
DWIDTH 10 0
BBX 9 8 1 0
BITMAP
0E00
D980
B980
F180
7F80
3800
1880
0F80
ENDCHAR
STARTCHAR 04BE
ENCODING 1214
SWIDTH 780 0
DWIDTH 13 0
BBX 12 14 1 -3
BITMAP
07C0
1C60
D870
B830
F830
7FF0
3800
3800
1C10
0E30
07C0
0180
0100
0100
ENDCHAR
STARTCHAR 04BF
ENCODING 1215
SWIDTH 600 0
DWIDTH 10 0
BBX 9 11 1 -3
BITMAP
0E00
D980
B980
F180
7F80
3800
1880
0F80
0600
0600
0600
ENDCHAR
STARTCHAR 04C0
ENCODING 1216
SWIDTH 360 0
DWIDTH 6 0
BBX 5 11 1 0
BITMAP
F8
60
60
60
60
60
60
60
60
70
F8
ENDCHAR
STARTCHAR 04C1
ENCODING 1217
SWIDTH 1020 0
DWIDTH 17 0
BBX 17 15 0 0
BITMAP
063000
073000
01E000
000000
7BE780
11C600
09CC00
0DC800
07D800
0FD800
0DDC00
1DCC00
39CE00
79C700
F3E780
ENDCHAR
STARTCHAR 04C2
ENCODING 1218
SWIDTH 840 0
DWIDTH 14 0
BBX 14 12 0 0
BITMAP
0C60
0C60
07C0
0000
77BC
3398
13B0
0BE0
1FE0
1BF0
33B8
F79C
ENDCHAR
STARTCHAR 04C3
ENCODING 1219
SWIDTH 660 0
DWIDTH 11 0
BBX 10 15 1 -4
BITMAP
F9C0
63C0
6240
6400
6C00
7F00
6380
61C0
61C0
70C0
F9C0
01C0
0180
0300
0600
ENDCHAR
STARTCHAR 04C4
ENCODING 1220
SWIDTH 540 0
DWIDTH 9 0
BBX 8 12 1 -4
BITMAP
F3
E7
69
78
7E
67
E3
F3
03
07
06
0C
ENDCHAR
STARTCHAR 04C5
ENCODING 1221
SWIDTH 720 0
DWIDTH 12 0
BBX 12 14 0 -3
BITMAP
3FE0
09C0
09C0
09C0
09C0
11C0
11C0
11C0
31C0
F1C0
E3F0
0030
0060
0040
ENDCHAR
STARTCHAR 04C6
ENCODING 1222
SWIDTH 600 0
DWIDTH 10 0
BBX 10 11 0 -3
BITMAP
3F80
1380
1300
1300
1300
2300
E300
E7C0
00C0
0180
0100
ENDCHAR
STARTCHAR 04C7
ENCODING 1223
SWIDTH 720 0
DWIDTH 12 0
BBX 11 15 1 -4
BITMAP
FBE0
61C0
60C0
60C0
60C0
7FC0
60C0
60C0
60C0
70C0
F8C0
01C0
0180
0180
0300
ENDCHAR
STARTCHAR 04C8
ENCODING 1224
SWIDTH 600 0
DWIDTH 10 0
BBX 9 12 1 -4
BITMAP
F780
E780
6300
6300
7F00
6300
6300
F300
0300
0700
0600
0C00
ENDCHAR
STARTCHAR 04C9
ENCODING 1225
SWIDTH 780 0
DWIDTH 13 0
BBX 12 14 1 -3
BITMAP
FBE0
61C0
60C0
60C0
60C0
7FC0
60C0
60C0
60C0
71C0
FBF0
0030
0060
0060
ENDCHAR
STARTCHAR 04CA
ENCODING 1226
SWIDTH 660 0
DWIDTH 11 0
BBX 10 11 1 -3
BITMAP
F780
E380
6300
6300
7F00
6300
6300
F7C0
00C0
0080
0180
ENDCHAR
STARTCHAR 04CB
ENCODING 1227
SWIDTH 720 0
DWIDTH 12 0
BBX 11 14 1 -3
BITMAP
F3E0
6180
6180
6180
7180
7F80
1D80
0180
0180
01C0
07E0
0400
0400
0400
ENDCHAR
STARTCHAR 04CC
ENCODING 1228
SWIDTH 540 0
DWIDTH 9 0
BBX 9 11 0 -3
BITMAP
F780
7380
7300
7300
3F00
0300
0380
0F80
0C00
0C00
0C00
ENDCHAR
STARTCHAR 04CD
ENCODING 1229
SWIDTH 960 0
DWIDTH 16 0
BBX 16 14 0 -3
BITMAP
781E
3C1C
3C3C
2C3C
2E2C
264C
274C
278C
238C
638E
F11F
0003
0003
0002
ENDCHAR
STARTCHAR 04CE
ENCODING 1230
SWIDTH 780 0
DWIDTH 13 0
BBX 13 11 0 -3
BITMAP
70F0
38E0
39E0
3DE0
2E60
4E60
4660
E4F8
0018
0030
0020
ENDCHAR
STARTCHAR 04CF
ENCODING 1231
SWIDTH 300 0
DWIDTH 5 0
BBX 5 12 0 0
BITMAP
30
F0
30
30
30
30
30
30
30
30
30
F8
ENDCHAR
STARTCHAR 04D0
ENCODING 1232
SWIDTH 660 0
DWIDTH 11 0
BBX 12 15 0 0
BITMAP
3180
1980
0F00
0000
0600
0600
0F00
0F00
1300
1380
3180
3FC0
21C0
60E0
F1F0
ENDCHAR
STARTCHAR 04D1
ENCODING 1233
SWIDTH 540 0
DWIDTH 9 0
BBX 8 12 1 0
BITMAP
4C
CC
7C
00
1C
6E
CE
0E
3E
CE
EE
7F
ENDCHAR
STARTCHAR 04D2
ENCODING 1234
SWIDTH 660 0
DWIDTH 11 0
BBX 12 14 0 0
BITMAP
1B80
1980
0000
0600
0600
0F00
0F00
1300
1380
3180
3FC0
21C0
60E0
F1F0
ENDCHAR
STARTCHAR 04D3
ENCODING 1235
SWIDTH 540 0
DWIDTH 9 0
BBX 8 11 1 0
BITMAP
CC
EC
00
1C
6E
CE
0E
3E
CE
EE
7F
ENDCHAR
STARTCHAR 04D4
ENCODING 1236
SWIDTH 900 0
DWIDTH 15 0
BBX 15 11 0 0
BITMAP
07FE
02C6
02C2
04C0
0CC8
0FF8
18C8
10C8
20C2
60C6
F3FE
ENDCHAR
STARTCHAR 04D5
ENCODING 1237
SWIDTH 720 0
DWIDTH 12 0
BBX 11 8 1 0
BITMAP
7B80
DEC0
CCC0
0FE0
FC00
CC00
DE00
F7C0
ENDCHAR
STARTCHAR 04D6
ENCODING 1238
SWIDTH 600 0
DWIDTH 10 0
BBX 9 15 1 0
BITMAP
6300
6600
3C00
0000
FF00
6100
6100
6200
6600
7E00
6600
6000
6180
7180
FF00
ENDCHAR
STARTCHAR 04D7
ENCODING 1239
SWIDTH 480 0
DWIDTH 8 0
BBX 7 12 1 0
BITMAP
4C
CC
7C
00
38
EC
C6
C6
FE
C0
E2
7C
ENDCHAR
STARTCHAR 04D8
ENCODING 1240
SWIDTH 660 0
DWIDTH 11 0
BBX 10 11 1 0
BITMAP
FE00
C380
8380
0180
01C0
FFC0
C180
C180
C180
6300
3E00
ENDCHAR
STARTCHAR 04D9
ENCODING 1241
SWIDTH 480 0
DWIDTH 8 0
BBX 7 8 1 0
BITMAP
78
CC
8E
0E
FE
CE
CC
78
ENDCHAR
STARTCHAR 04DA
ENCODING 1242
SWIDTH 660 0
DWIDTH 11 0
BBX 10 14 1 0
BITMAP
7700
3600
0000
FE00
C380
8380
0180
01C0
FFC0
C180
C180
C180
6300
3E00
ENDCHAR
STARTCHAR 04DB
ENCODING 1243
SWIDTH 480 0
DWIDTH 8 0
BBX 7 11 1 0
BITMAP
CC
EC
00
78
CC
8E
0E
FE
CE
CC
78
ENDCHAR
STARTCHAR 04DC
ENCODING 1244
SWIDTH 1020 0
DWIDTH 17 0
BBX 17 14 0 0
BITMAP
037000
033000
000000
7BE780
11C600
09CC00
0DC800
07D800
0FD800
0DDC00
1DCC00
39CE00
79C700
F3E780
ENDCHAR
STARTCHAR 04DD
ENCODING 1245
SWIDTH 840 0
DWIDTH 14 0
BBX 14 11 0 0
BITMAP
0EC0
0EC0
0000
77BC
3398
13B0
0BE0
1FE0
1BF0
33B8
F79C
ENDCHAR
STARTCHAR 04DE
ENCODING 1246
SWIDTH 540 0
DWIDTH 9 0
BBX 8 14 1 0
BITMAP
6E
66
00
FE
C7
C7
06
1C
3E
07
07
C7
C7
FC
ENDCHAR
STARTCHAR 04DF
ENCODING 1247
SWIDTH 480 0
DWIDTH 8 0
BBX 7 11 1 0
BITMAP
CC
CC
00
78
CC
8C
1C
3C
8E
8C
FC
ENDCHAR
STARTCHAR 04E0
ENCODING 1248
SWIDTH 540 0
DWIDTH 9 0
BBX 8 11 1 0
BITMAP
FE
FE
C4
08
10
3E
0F
07
87
C6
FC
ENDCHAR
STARTCHAR 04E1
ENCODING 1249
SWIDTH 480 0
DWIDTH 8 0
BBX 7 12 1 -4
BITMAP
FC
FC
CC
88
10
38
3C
0E
0E
8E
CC
F8
ENDCHAR
STARTCHAR 04E2
ENCODING 1250
SWIDTH 720 0
DWIDTH 12 0
BBX 11 14 1 0
BITMAP
3F80
0000
0000
F9E0
61C0
63C0
62C0
66C0
64C0
68C0
68C0
70C0
71C0
E3E0
ENDCHAR
STARTCHAR 04E3
ENCODING 1251
SWIDTH 600 0
DWIDTH 10 0
BBX 9 11 1 0
BITMAP
7E00
0000
0000
F380
E700
6700
6B00
6B00
7300
E300
E780
ENDCHAR
STARTCHAR 04E4
ENCODING 1252
SWIDTH 720 0
DWIDTH 12 0
BBX 11 14 1 0
BITMAP
3B80
1B00
0000
F9E0
61C0
63C0
62C0
66C0
64C0
68C0
68C0
70C0
71C0
E3E0
ENDCHAR
STARTCHAR 04E5
ENCODING 1253
SWIDTH 600 0
DWIDTH 10 0
BBX 9 11 1 0
BITMAP
7600
7600
0000
F380
E700
6700
6B00
6B00
7300
E300
E780
ENDCHAR
STARTCHAR 04E6
ENCODING 1254
SWIDTH 720 0
DWIDTH 12 0
BBX 11 14 1 0
BITMAP
3B00
3300
0000
3F80
61C0
E0C0
C0E0
C0E0
C0E0
C0E0
E0E0
E0C0
7180
3F00
ENDCHAR
STARTCHAR 04E7
ENCODING 1255
SWIDTH 540 0
DWIDTH 9 0
BBX 8 11 1 0
BITMAP
6E
6E
00
3C
6E
C7
C7
C7
C7
E6
7C
ENDCHAR
STARTCHAR 04E8
ENCODING 1256
SWIDTH 720 0
DWIDTH 12 0
BBX 11 11 1 0
BITMAP
3F80
61C0
E0C0
C0E0
C0E0
FFE0
C0E0
E0E0
E0C0
7180
3F00
ENDCHAR
STARTCHAR 04E9
ENCODING 1257
SWIDTH 540 0
DWIDTH 9 0
BBX 8 8 1 0
BITMAP
3C
6E
C7
C7
FF
C7
E6
7C
ENDCHAR
STARTCHAR 04EA
ENCODING 1258
SWIDTH 720 0
DWIDTH 12 0
BBX 11 14 1 0
BITMAP
3B00
3300
0000
3F80
61C0
E0C0
C0E0
C0E0
FFE0
C0E0
E0E0
E0C0
7180
3F00
ENDCHAR
STARTCHAR 04EB
ENCODING 1259
SWIDTH 540 0
DWIDTH 9 0
BBX 8 11 1 0
BITMAP
6E
6E
00
3C
6E
C7
C7
FF
C7
E6
7C
ENDCHAR
STARTCHAR 04EC
ENCODING 1260
SWIDTH 600 0
DWIDTH 10 0
BBX 9 14 1 0
BITMAP
6E00
6600
0000
FE00
C700
8380
0380
0380
3F80
0380
0380
8300
C700
FC00
ENDCHAR
STARTCHAR 04ED
ENCODING 1261
SWIDTH 420 0
DWIDTH 7 0
BBX 7 11 0 0
BITMAP
CC
EC
00
78
4E
46
06
3E
06
CE
FC
ENDCHAR
STARTCHAR 04EE
ENCODING 1262
SWIDTH 660 0
DWIDTH 11 0
BBX 11 14 0 0
BITMAP
1F80
0000
0000
F8E0
7040
3880
1880
1D00
0F00
0700
0600
0600
3C00
3800
ENDCHAR
STARTCHAR 04EF
ENCODING 1263
SWIDTH 540 0
DWIDTH 9 0
BBX 9 15 0 -4
BITMAP
3F00
0000
0000
FB80
7180
3100
3A00
3A00
1A00
1C00
0C00
0800
0800
7000
7000
ENDCHAR
STARTCHAR 04F0
ENCODING 1264
SWIDTH 660 0
DWIDTH 11 0
BBX 11 14 0 0
BITMAP
1D80
1980
0000
F8E0
7040
3880
1880
1D00
0F00
0700
0600
0600
3C00
3800
ENDCHAR
STARTCHAR 04F1
ENCODING 1265
SWIDTH 540 0
DWIDTH 9 0
BBX 9 15 0 -4
BITMAP
3B00
3B00
0000
FB80
7180
3100
3A00
3A00
1A00
1C00
0C00
0800
0800
7000
7000
ENDCHAR
STARTCHAR 04F2
ENCODING 1266
SWIDTH 660 0
DWIDTH 11 0
BBX 11 15 0 0
BITMAP
06C0
0D80
0900
0000
F8E0
7040
3880
1880
1D00
0F00
0700
0600
0600
3C00
3800
ENDCHAR
STARTCHAR 04F3
ENCODING 1267
SWIDTH 540 0
DWIDTH 9 0
BBX 9 16 0 -4
BITMAP
0D80
0900
1B00
0000
FB80
7180
3100
3A00
3A00
1A00
1C00
0C00
0800
0800
7000
7000
ENDCHAR
STARTCHAR 04F4
ENCODING 1268
SWIDTH 720 0
DWIDTH 12 0
BBX 11 14 1 0
BITMAP
3300
3300
0000
F3E0
6180
6180
6180
7180
7F80
1D80
0180
0180
01C0
07E0
ENDCHAR
STARTCHAR 04F5
ENCODING 1269
SWIDTH 540 0
DWIDTH 9 0
BBX 9 11 0 0
BITMAP
3300
3700
0000
F780
7380
7300
7300
3F00
0300
0380
0780
ENDCHAR
STARTCHAR 04F6
ENCODING 1270
SWIDTH 540 0
DWIDTH 9 0
BBX 8 14 1 -3
BITMAP
FF
61
61
60
60
60
60
60
60
70
FC
0C
0C
0C
ENDCHAR
STARTCHAR 04F7
ENCODING 1271
SWIDTH 480 0
DWIDTH 8 0
BBX 7 11 1 -3
BITMAP
FE
E6
66
60
60
60
E0
F8
18
18
18
ENDCHAR
STARTCHAR 04F8
ENCODING 1272
SWIDTH 900 0
DWIDTH 15 0
BBX 14 14 1 0
BITMAP
0EC0
0CC0
0000
F87C
7038
6038
6038
6038
7F38
63B8
63B8
63B8
7338
FE7C
ENDCHAR
STARTCHAR 04F9
ENCODING 1273
SWIDTH 780 0
DWIDTH 13 0
BBX 12 11 1 0
BITMAP
1980
1980
0000
F0F0
E070
6060
7C60
6660
6760
E760
FEF0
ENDCHAR
STARTCHAR 04FA
ENCODING 1274
SWIDTH 540 0
DWIDTH 9 0
BBX 9 15 0 -4
BITMAP
7F80
3080
3080
3000
3000
FE00
3000
3000
3000
3800
7E00
0600
0600
0C00
1800
ENDCHAR
STARTCHAR 04FB
ENCODING 1275
SWIDTH 480 0
DWIDTH 8 0
BBX 8 12 0 -4
BITMAP
7F
73
33
30
FC
30
70
7C
0C
0C
1C
30
ENDCHAR
STARTCHAR 04FC
ENCODING 1276
SWIDTH 660 0
DWIDTH 11 0
BBX 10 15 1 -4
BITMAP
FBC0
7100
3B00
3A00
1C00
0E00
1700
3700
2380
61C0
F0C0
00C0
00C0
0180
0300
ENDCHAR
STARTCHAR 04FD
ENCODING 1277
SWIDTH 540 0
DWIDTH 9 0
BBX 9 12 0 -4
BITMAP
7B80
7300
3A00
1C00
1E00
1700
2700
F380
0180
0180
0300
0200
ENDCHAR
STARTCHAR 04FE
ENCODING 1278
SWIDTH 660 0
DWIDTH 11 0
BBX 10 11 1 0
BITMAP
FBC0
7180
3900
3A00
1E00
FFC0
1E00
3700
2700
6380
E7C0
ENDCHAR
STARTCHAR 04FF
ENCODING 1279
SWIDTH 540 0
DWIDTH 9 0
BBX 9 8 0 0
BITMAP
7B80
7300
3A00
1E00
7F00
3E00
2700
FF80
ENDCHAR
STARTCHAR 0510
ENCODING 1296
SWIDTH 540 0
DWIDTH 9 0
BBX 8 11 1 0
BITMAP
7F
E2
E3
E0
78
78
E0
C0
C3
E3
7E
ENDCHAR
STARTCHAR 0511
ENCODING 1297
SWIDTH 420 0
DWIDTH 7 0
BBX 7 8 1 0
BITMAP
7C
E4
C4
70
78
C0
C4
FE
ENDCHAR
STARTCHAR 0512
ENCODING 1298
SWIDTH 660 0
DWIDTH 11 0
BBX 11 15 0 -4
BITMAP
3FE0
09C0
09C0
09C0
09C0
11C0
11C0
11C0
31C0
F1C0
E1C0
01C0
0180
0300
0200
ENDCHAR
STARTCHAR 0513
ENCODING 1299
SWIDTH 540 0
DWIDTH 9 0
BBX 9 12 0 -4
BITMAP
3F80
1380
1300
1300
1300
1300
E300
E300
0300
0300
0600
0400
ENDCHAR
STARTCHAR 051A
ENCODING 1306
SWIDTH 720 0
DWIDTH 12 0
BBX 12 14 1 -3
BITMAP
3F80
61C0
E0C0
C0E0
C0E0
C0E0
C0E0
E0E0
E0C0
7180
3F00
0380
01E0
00F0
ENDCHAR
STARTCHAR 051B
ENCODING 1307
SWIDTH 540 0
DWIDTH 9 0
BBX 9 12 1 -4
BITMAP
3C00
6700
C700
C700
C700
C700
E700
7F00
0700
0700
0700
0F80
ENDCHAR
STARTCHAR 051C
ENCODING 1308
SWIDTH 960 0
DWIDTH 16 0
BBX 16 11 0 0
BITMAP
F8C7
70C2
31E2
39E2
3964
1A74
1E74
1E38
0C38
0C38
0C18
ENDCHAR
STARTCHAR 051D
ENCODING 1309
SWIDTH 780 0
DWIDTH 13 0
BBX 13 8 0 0
BITMAP
F938
7330
7390
33A0
3DA0
3DE0
18C0
18C0
ENDCHAR
STARTCHAR 0524
ENCODING 1316
SWIDTH 780 0
DWIDTH 13 0
BBX 12 14 1 -3
BITMAP
FFE0
61C0
61C0
61C0
61C0
61C0
61C0
61C0
61C0
71C0
FBF0
0030
0030
0030
ENDCHAR
STARTCHAR 0525
ENCODING 1317
SWIDTH 660 0
DWIDTH 11 0
BBX 10 11 1 -3
BITMAP
FF80
E300
6300
6300
6300
6300
E300
F7C0
00C0
00C0
00C0
ENDCHAR
STARTCHAR 0526
ENCODING 1318
SWIDTH 780 0
DWIDTH 13 0
BBX 12 14 1 -3
BITMAP
F800
7000
6000
6000
7F00
6380
6180
61C0
61C0
71C0
F3F0
0030
0030
0030
ENDCHAR
STARTCHAR 0527
ENCODING 1319
SWIDTH 660 0
DWIDTH 11 0
BBX 11 15 0 -3
BITMAP
3000
F000
3000
3000
3300
3F80
3180
3180
3180
3180
3180
FBE0
0060
0020
0020
ENDCHAR
STARTCHAR 0528
ENCODING 1320
SWIDTH 720 0
DWIDTH 12 0
BBX 12 15 0 -4
BITMAP
7DF0
30E0
3060
3060
3060
3FE0
3060
3060
3060
30E0
31F0
3000
3000
6000
C000
ENDCHAR
STARTCHAR 0529
ENCODING 1321
SWIDTH 600 0
DWIDTH 10 0
BBX 10 12 0 -4
BITMAP
7BC0
71C0
3180
3180
3F80
3180
3180
33C0
3000
7000
6000
C000
ENDCHAR
STARTCHAR 052E
ENCODING 1326
SWIDTH 720 0
DWIDTH 12 0
BBX 12 14 0 -3
BITMAP
3FE0
09C0
09C0
09C0
09C0
11C0
11C0
11C0
31C0
F1C0
E3F0
0030
0030
0030
ENDCHAR
STARTCHAR 052F
ENCODING 1327
SWIDTH 600 0
DWIDTH 10 0
BBX 10 11 0 -3
BITMAP
3F80
1380
1300
1300
1300
2300
E300
E7C0
00C0
00C0
00C0
ENDCHAR
STARTCHAR 058F
ENCODING 1423
SWIDTH 600 0
DWIDTH 10 0
BBX 10 11 0 0
BITMAP
3E00
6700
6700
C300
0300
1FC0
0300
1FC0
0300
0700
0F80
ENDCHAR
STARTCHAR 1E08
ENCODING 7688
SWIDTH 600 0
DWIDTH 10 0
BBX 9 19 1 -4
BITMAP
0600
0600
0C00
0000
3F80
6180
E180
C000
C000
C000
C000
E000
E000
7080
3F00
0800
0C00
0400
0C00
ENDCHAR
STARTCHAR 1E09
ENCODING 7689
SWIDTH 420 0
DWIDTH 7 0
BBX 6 16 1 -4
BITMAP
0C
18
10
00
38
6C
C4
C0
C0
C0
E0
7C
10
38
08
30
ENDCHAR
STARTCHAR 1E0C
ENCODING 7692
SWIDTH 720 0
DWIDTH 12 0
BBX 11 15 1 -4
BITMAP
FF00
61C0
60C0
60E0
60E0
60E0
60E0
60C0
61C0
7180
FE00
0000
0800
1C00
0800
ENDCHAR
STARTCHAR 1E0D
ENCODING 7693
SWIDTH 600 0
DWIDTH 10 0
BBX 9 16 1 -4
BITMAP
0300
0F00
0700
0700
3F00
6700
C700
C700
C700
C700
E700
7F80
0000
1800
1800
1800
ENDCHAR
STARTCHAR 1E0E
ENCODING 7694
SWIDTH 720 0
DWIDTH 12 0
BBX 11 14 1 -3
BITMAP
FF00
61C0
60C0
60E0
60E0
60E0
60E0
60C0
61C0
7180
FE00
0000
0000
7F00
ENDCHAR
STARTCHAR 1E0F
ENCODING 7695
SWIDTH 600 0
DWIDTH 10 0
BBX 9 15 1 -3
BITMAP
0300
0F00
0700
0700
3F00
6700
C700
C700
C700
C700
E700
7F80
0000
0000
7E00
ENDCHAR
STARTCHAR 1E10
ENCODING 7696
SWIDTH 720 0
DWIDTH 12 0
BBX 11 16 1 -5
BITMAP
FF00
61C0
60C0
60E0
60E0
60E0
60E0
60C0
61C0
7180
FE00
0000
1C00
1C00
0800
1800
ENDCHAR
STARTCHAR 1E11
ENCODING 7697
SWIDTH 600 0
DWIDTH 10 0
BBX 9 17 1 -5
BITMAP
0300
0F00
0700
0700
3F00
6700
C700
C700
C700
C700
E700
7F80
0000
1800
1800
1800
1000
ENDCHAR
STARTCHAR 1E14
ENCODING 7700
SWIDTH 600 0
DWIDTH 10 0
BBX 9 17 1 0
BITMAP
3000
1800
0000
7E00
0000
0000
FF00
6100
6100
6200
6600
7E00
6600
6000
6180
7180
FF00
ENDCHAR
STARTCHAR 1E15
ENCODING 7701
SWIDTH 480 0
DWIDTH 8 0
BBX 7 13 1 0
BITMAP
30
10
00
FE
00
38
EC
C6
C6
FE
C0
E2
7C
ENDCHAR
STARTCHAR 1E16
ENCODING 7702
SWIDTH 600 0
DWIDTH 10 0
BBX 9 17 1 0
BITMAP
0C00
0800
0000
7E00
0000
0000
FF00
6100
6100
6200
6600
7E00
6600
6000
6180
7180
FF00
ENDCHAR
STARTCHAR 1E17
ENCODING 7703
SWIDTH 480 0
DWIDTH 8 0
BBX 7 13 1 0
BITMAP
18
10
00
FE
00
38
EC
C6
C6
FE
C0
E2
7C
ENDCHAR
STARTCHAR 1E1C
ENCODING 7708
SWIDTH 600 0
DWIDTH 10 0
BBX 9 19 1 -4
BITMAP
2200
7E00
3C00
0000
FF00
6100
6100
6200
6600
7E00
6600
6000
6180
7180
FF00
1000
1C00
0C00
1800
ENDCHAR
STARTCHAR 1E1D
ENCODING 7709
SWIDTH 480 0
DWIDTH 8 0
BBX 7 16 1 -4
BITMAP
C6
C4
7C
00
38
EC
C6
C6
FE
C0
E2
7C
10
38
08
30
ENDCHAR
STARTCHAR 1E20
ENCODING 7712
SWIDTH 660 0
DWIDTH 11 0
BBX 10 14 1 0
BITMAP
3F80
0000
0000
3F80
6080
E080
C000
C000
C000
C3C0
E180
E180
7180
3F80
ENDCHAR
STARTCHAR 1E21
ENCODING 7713
SWIDTH 540 0
DWIDTH 9 0
BBX 8 15 1 -4
BITMAP
FC
00
00
7F
CD
CE
CE
EC
78
C0
FE
FF
86
C6
FC
ENDCHAR
STARTCHAR 1E24
ENCODING 7716
SWIDTH 720 0
DWIDTH 12 0
BBX 11 15 1 -4
BITMAP
FBE0
61C0
60C0
60C0
60C0
7FC0
60C0
60C0
60C0
71C0
FBE0
0000
0400
0E00
0400
ENDCHAR
STARTCHAR 1E25
ENCODING 7717
SWIDTH 600 0
DWIDTH 10 0
BBX 10 16 0 -4
BITMAP
3000
F000
3000
3000
3300
3F80
3180
3180
3180
3180
3180
FBC0
0000
0400
0E00
0400
ENDCHAR
STARTCHAR 1E2A
ENCODING 7722
SWIDTH 720 0
DWIDTH 12 0
BBX 11 14 1 -3
BITMAP
FBE0
61C0
60C0
60C0
60C0
7FC0
60C0
60C0
60C0
71C0
FBE0
0000
1100
1F00
ENDCHAR
STARTCHAR 1E2B
ENCODING 7723
SWIDTH 600 0
DWIDTH 10 0
BBX 10 15 0 -3
BITMAP
3000
F000
3000
3000
3300
3F80
3180
3180
3180
3180
3180
FBC0
0000
1100
1F00
ENDCHAR
STARTCHAR 1E2E
ENCODING 7726
SWIDTH 360 0
DWIDTH 6 0
BBX 6 17 0 0
BITMAP
18
10
00
EC
6C
00
7C
30
30
30
30
30
30
30
30
38
7C
ENDCHAR
STARTCHAR 1E2F
ENCODING 7727
SWIDTH 300 0
DWIDTH 5 0
BBX 6 14 0 0
BITMAP
18
10
20
48
FC
48
10
70
30
30
30
30
30
78
ENDCHAR
STARTCHAR 1E36
ENCODING 7734
SWIDTH 600 0
DWIDTH 10 0
BBX 9 15 1 -4
BITMAP
F800
6000
6000
6000
6000
6000
6000
6000
6180
7100
FF00
0000
1800
1C00
1800
ENDCHAR
STARTCHAR 1E37
ENCODING 7735
SWIDTH 300 0
DWIDTH 5 0
BBX 5 16 0 -4
BITMAP
30
F0
30
30
30
30
30
30
30
30
30
F8
00
30
70
30
ENDCHAR
STARTCHAR 1E3A
ENCODING 7738
SWIDTH 600 0
DWIDTH 10 0
BBX 9 14 1 -3
BITMAP
F800
6000
6000
6000
6000
6000
6000
6000
6180
7100
FF00
0000
0000
7E00
ENDCHAR
STARTCHAR 1E3B
ENCODING 7739
SWIDTH 300 0
DWIDTH 5 0
BBX 5 15 0 -3
BITMAP
30
F0
30
30
30
30
30
30
30
30
30
F8
00
00
F8
ENDCHAR
STARTCHAR 1E42
ENCODING 7746
SWIDTH 960 0
DWIDTH 16 0
BBX 16 15 0 -4
BITMAP
781E
3C1C
3C3C
2C3C
2E2C
264C
274C
278C
238C
638E
F11F
0000
0100
0380
0100
ENDCHAR
STARTCHAR 1E43
ENCODING 7747
SWIDTH 960 0
DWIDTH 16 0
BBX 15 12 1 -4
BITMAP
2630
FF78
639C
631C
631C
631C
639C
F7BE
0000
0300
0300
0300
ENDCHAR
STARTCHAR 1E44
ENCODING 7748
SWIDTH 720 0
DWIDTH 12 0
BBX 10 14 1 0
BITMAP
0C00
0C00
0000
E1C0
70C0
7880
5C80
5C80
4E80
4780
4380
4380
4180
E080
ENDCHAR
STARTCHAR 1E45
ENCODING 7749
SWIDTH 600 0
DWIDTH 10 0
BBX 9 11 1 0
BITMAP
1C00
1C00
0000
2600
FF00
6300
6300
6300
6300
6380
F780
ENDCHAR
STARTCHAR 1E46
ENCODING 7750
SWIDTH 720 0
DWIDTH 12 0
BBX 10 15 1 -4
BITMAP
E1C0
70C0
7880
5C80
5C80
4E80
4780
4380
4380
4180
E080
0000
0400
0E00
0400
ENDCHAR
STARTCHAR 1E47
ENCODING 7751
SWIDTH 600 0
DWIDTH 10 0
BBX 9 12 1 -4
BITMAP
2600
FF00
6300
6300
6300
6300
6380
F780
0000
0800
1C00
0800
ENDCHAR
STARTCHAR 1E48
ENCODING 7752
SWIDTH 720 0
DWIDTH 12 0
BBX 10 14 1 -3
BITMAP
E1C0
70C0
7880
5C80
5C80
4E80
4780
4380
4380
4180
E080
0000
0000
3F80
ENDCHAR
STARTCHAR 1E49
ENCODING 7753
SWIDTH 600 0
DWIDTH 10 0
BBX 9 11 1 -3
BITMAP
2600
FF00
6300
6300
6300
6300
6380
F780
0000
0000
7F00
ENDCHAR
STARTCHAR 1E4C
ENCODING 7756
SWIDTH 720 0
DWIDTH 12 0
BBX 11 18 1 0
BITMAP
0600
0600
0C00
0000
3F00
2600
0000
3F80
61C0
E0C0
C0E0
C0E0
C0E0
C0E0
E0E0
E0C0
7180
3F00
ENDCHAR
STARTCHAR 1E4D
ENCODING 7757
SWIDTH 540 0
DWIDTH 9 0
BBX 8 14 1 0
BITMAP
0C
18
00
32
7C
00
3C
6E
C7
C7
C7
C7
E6
7C
ENDCHAR
STARTCHAR 1E4E
ENCODING 7758
SWIDTH 720 0
DWIDTH 12 0
BBX 11 17 1 0
BITMAP
3B00
3300
0000
3F00
2600
0000
3F80
61C0
E0C0
C0E0
C0E0
C0E0
C0E0
E0E0
E0C0
7180
3F00
ENDCHAR
STARTCHAR 1E4F
ENCODING 7759
SWIDTH 540 0
DWIDTH 9 0
BBX 8 14 1 0
BITMAP
66
6E
04
32
7C
00
3C
6E
C7
C7
C7
C7
E6
7C
ENDCHAR
STARTCHAR 1E50
ENCODING 7760
SWIDTH 720 0
DWIDTH 12 0
BBX 11 17 1 0
BITMAP
1800
0C00
0000
3F00
0000
0000
3F80
61C0
E0C0
C0E0
C0E0
C0E0
C0E0
E0E0
E0C0
7180
3F00
ENDCHAR
STARTCHAR 1E51
ENCODING 7761
SWIDTH 540 0
DWIDTH 9 0
BBX 8 13 1 0
BITMAP
30
10
00
7E
00
3C
6E
C7
C7
C7
C7
E6
7C
ENDCHAR
STARTCHAR 1E52
ENCODING 7762
SWIDTH 720 0
DWIDTH 12 0
BBX 11 17 1 0
BITMAP
0600
0400
0000
3F00
0000
0000
3F80
61C0
E0C0
C0E0
C0E0
C0E0
C0E0
E0E0
E0C0
7180
3F00
ENDCHAR
STARTCHAR 1E53
ENCODING 7763
SWIDTH 540 0
DWIDTH 9 0
BBX 8 13 1 0
BITMAP
18
10
00
7E
00
3C
6E
C7
C7
C7
C7
E6
7C
ENDCHAR
STARTCHAR 1E5A
ENCODING 7770
SWIDTH 660 0
DWIDTH 11 0
BBX 10 15 1 -4
BITMAP
FF00
6380
6180
6180
6380
7F00
6600
6700
6380
7380
F1C0
0000
0C00
0E00
0C00
ENDCHAR
STARTCHAR 1E5B
ENCODING 7771
SWIDTH 420 0
DWIDTH 7 0
BBX 7 12 1 -4
BITMAP
24
FE
64
60
60
60
60
F8
00
60
70
60
ENDCHAR
STARTCHAR 1E5E
ENCODING 7774
SWIDTH 660 0
DWIDTH 11 0
BBX 10 14 1 -3
BITMAP
FF00
6380
6180
6180
6380
7F00
6600
6700
6380
7380
F1C0
0000
0000
3F00
ENDCHAR
STARTCHAR 1E5F
ENCODING 7775
SWIDTH 420 0
DWIDTH 7 0
BBX 8 11 0 -3
BITMAP
12
7F
32
30
30
30
30
7C
00
00
FC
ENDCHAR
STARTCHAR 1E60
ENCODING 7776
SWIDTH 540 0
DWIDTH 9 0
BBX 8 14 1 0
BITMAP
38
38
00
7E
C6
C6
E0
F8
7E
1E
87
C7
C6
FC
ENDCHAR
STARTCHAR 1E61
ENCODING 7777
SWIDTH 420 0
DWIDTH 7 0
BBX 6 11 1 0
BITMAP
70
70
00
78
C8
CC
F0
7C
9C
8C
F8
ENDCHAR
STARTCHAR 1E62
ENCODING 7778
SWIDTH 540 0
DWIDTH 9 0
BBX 8 15 1 -4
BITMAP
7E
C6
C6
E0
F8
7E
1E
87
C7
C6
FC
00
18
38
18
ENDCHAR
STARTCHAR 1E63
ENCODING 7779
SWIDTH 420 0
DWIDTH 7 0
BBX 6 12 1 -4
BITMAP
78
C8
CC
F0
7C
9C
8C
F8
00
30
70
30
ENDCHAR
STARTCHAR 1E64
ENCODING 7780
SWIDTH 540 0
DWIDTH 9 0
BBX 8 18 1 0
BITMAP
18
18
18
0C
18
10
00
7E
C6
C6
E0
F8
7E
1E
87
C7
C6
FC
ENDCHAR
STARTCHAR 1E65
ENCODING 7781
SWIDTH 420 0
DWIDTH 7 0
BBX 6 14 1 0
BITMAP
30
30
00
18
30
00
78
C8
CC
F0
7C
9C
8C
F8
ENDCHAR
STARTCHAR 1E66
ENCODING 7782
SWIDTH 540 0
DWIDTH 9 0
BBX 8 18 1 0
BITMAP
18
38
10
44
3C
10
00
7E
C6
C6
E0
F8
7E
1E
87
C7
C6
FC
ENDCHAR
STARTCHAR 1E67
ENCODING 7783
SWIDTH 420 0
DWIDTH 7 0
BBX 6 14 1 0
BITMAP
70
70
00
C8
70
00
78
C8
CC
F0
7C
9C
8C
F8
ENDCHAR
STARTCHAR 1E68
ENCODING 7784
SWIDTH 540 0
DWIDTH 9 0
BBX 8 18 1 -4
BITMAP
38
38
00
7E
C6
C6
E0
F8
7E
1E
87
C7
C6
FC
00
18
38
18
ENDCHAR
STARTCHAR 1E69
ENCODING 7785
SWIDTH 420 0
DWIDTH 7 0
BBX 6 15 1 -4
BITMAP
70
70
00
78
C8
CC
F0
7C
9C
8C
F8
00
30
70
30
ENDCHAR
STARTCHAR 1E6C
ENCODING 7788
SWIDTH 600 0
DWIDTH 10 0
BBX 10 15 0 -4
BITMAP
7FC0
4E40
CE40
0E00
0E00
0E00
0E00
0E00
0E00
0E00
1F00
0000
0400
0E00
0C00
ENDCHAR
STARTCHAR 1E6D
ENCODING 7789
SWIDTH 360 0
DWIDTH 6 0
BBX 6 14 0 -4
BITMAP
70
70
70
FC
70
70
70
70
30
3C
00
18
38
10
ENDCHAR
STARTCHAR 1E6E
ENCODING 7790
SWIDTH 600 0
DWIDTH 10 0
BBX 10 14 0 -3
BITMAP
7FC0
4E40
CE40
0E00
0E00
0E00
0E00
0E00
0E00
0E00
1F00
0000
0000
3F00
ENDCHAR
STARTCHAR 1E6F
ENCODING 7791
SWIDTH 360 0
DWIDTH 6 0
BBX 7 13 0 -3
BITMAP
70
70
70
FC
70
70
70
70
30
3C
00
00
7E
ENDCHAR
STARTCHAR 1E78
ENCODING 7800
SWIDTH 660 0
DWIDTH 11 0
BBX 10 18 1 0
BITMAP
0700
0600
0400
0000
3F00
0200
0000
F1C0
6080
6080
6080
6080
6080
6080
6080
6180
7100
3E00
ENDCHAR
STARTCHAR 1E79
ENCODING 7801
SWIDTH 600 0
DWIDTH 10 0
BBX 10 16 0 0
BITMAP
0600
0600
0400
0000
0000
3F00
2600
0000
3180
F780
7380
7380
7380
7380
7380
3FC0
ENDCHAR
STARTCHAR 1E7A
ENCODING 7802
SWIDTH 660 0
DWIDTH 11 0
BBX 10 17 1 0
BITMAP
1300
3B80
1100
3F80
0000
0000
F1C0
6080
6080
6080
6080
6080
6080
6080
6180
7100
3E00
ENDCHAR
STARTCHAR 1E7B
ENCODING 7803
SWIDTH 600 0
DWIDTH 10 0
BBX 10 13 0 0
BITMAP
3300
3300
0000
3F00
0000
3180
F780
7380
7380
7380
7380
7380
3FC0
ENDCHAR
STARTCHAR 1E80
ENCODING 7808
SWIDTH 960 0
DWIDTH 16 0
BBX 16 15 0 0
BITMAP
0180
0080
00C0
0000
F8C7
70C2
31E2
39E2
3964
1A74
1E74
1E38
0C38
0C38
0C18
ENDCHAR
STARTCHAR 1E81
ENCODING 7809
SWIDTH 780 0
DWIDTH 13 0
BBX 13 12 0 0
BITMAP
0600
0200
0300
0000
F938
7330
7390
33A0
3DA0
3DE0
18C0
18C0
ENDCHAR
STARTCHAR 1E82
ENCODING 7810
SWIDTH 960 0
DWIDTH 16 0
BBX 16 15 0 0
BITMAP
0060
0040
0080
0000
F8C7
70C2
31E2
39E2
3964
1A74
1E74
1E38
0C38
0C38
0C18
ENDCHAR
STARTCHAR 1E83
ENCODING 7811
SWIDTH 780 0
DWIDTH 13 0
BBX 13 12 0 0
BITMAP
0180
0180
0100
0000
F938
7330
7390
33A0
3DA0
3DE0
18C0
18C0
ENDCHAR
STARTCHAR 1E84
ENCODING 7812
SWIDTH 960 0
DWIDTH 16 0
BBX 16 14 0 0
BITMAP
0330
0330
0000
F8C7
70C2
31E2
39E2
3964
1A74
1E74
1E38
0C38
0C38
0C18
ENDCHAR
STARTCHAR 1E85
ENCODING 7813
SWIDTH 780 0
DWIDTH 13 0
BBX 13 11 0 0
BITMAP
0CC0
0EC0
0000
F938
7330
7390
33A0
3DA0
3DE0
18C0
18C0
ENDCHAR
STARTCHAR 1E8E
ENCODING 7822
SWIDTH 600 0
DWIDTH 10 0
BBX 10 14 0 0
BITMAP
0600
0600
0000
F9C0
7080
3880
3900
1D00
1E00
0E00
0E00
0E00
0E00
3F00
ENDCHAR
STARTCHAR 1E8F
ENCODING 7823
SWIDTH 540 0
DWIDTH 9 0
BBX 9 15 0 -4
BITMAP
0E00
0E00
0000
FB80
7180
3100
3A00
3A00
1A00
1C00
0C00
0800
0800
7000
7000
ENDCHAR
STARTCHAR 1E90
ENCODING 7824
SWIDTH 600 0
DWIDTH 10 0
BBX 8 15 1 0
BITMAP
08
3C
26
00
FF
C7
CE
0E
1C
38
38
70
71
E3
FF
ENDCHAR
STARTCHAR 1E91
ENCODING 7825
SWIDTH 480 0
DWIDTH 8 0
BBX 7 12 1 0
BITMAP
10
38
CC
00
FE
CC
9C
38
30
72
E6
FE
ENDCHAR
STARTCHAR 1E92
ENCODING 7826
SWIDTH 600 0
DWIDTH 10 0
BBX 8 15 1 -4
BITMAP
FF
C7
CE
0E
1C
38
38
70
71
E3
FF
00
18
18
18
ENDCHAR
STARTCHAR 1E93
ENCODING 7827
SWIDTH 480 0
DWIDTH 8 0
BBX 7 12 1 -4
BITMAP
FE
CC
9C
38
30
72
E6
FE
00
30
38
30
ENDCHAR
STARTCHAR 1E97
ENCODING 7831
SWIDTH 360 0
DWIDTH 6 0
BBX 6 13 0 0
BITMAP
CC
CC
00
70
70
70
FC
70
70
70
70
30
3C
ENDCHAR
STARTCHAR 1E9E
ENCODING 7838
SWIDTH 720 0
DWIDTH 12 0
BBX 11 11 1 0
BITMAP
3FC0
71C0
6380
6380
6700
63C0
60E0
60E0
6CE0
6CC0
EFC0
ENDCHAR
STARTCHAR 1EA0
ENCODING 7840
SWIDTH 660 0
DWIDTH 11 0
BBX 12 15 0 -4
BITMAP
0600
0600
0F00
0F00
1300
1380
3180
3FC0
21C0
60E0
F1F0
0000
0C00
0E00
0C00
ENDCHAR
STARTCHAR 1EA1
ENCODING 7841
SWIDTH 540 0
DWIDTH 9 0
BBX 8 12 1 -4
BITMAP
1C
6E
CE
0E
3E
CE
EE
7F
00
10
38
10
ENDCHAR
STARTCHAR 1EA2
ENCODING 7842
SWIDTH 660 0
DWIDTH 11 0
BBX 12 15 0 0
BITMAP
0E00
0A00
0400
0000
0600
0600
0F00
0F00
1300
1380
3180
3FC0
21C0
60E0
F1F0
ENDCHAR
STARTCHAR 1EA3
ENCODING 7843
SWIDTH 540 0
DWIDTH 9 0
BBX 8 12 1 0
BITMAP
38
68
10
00
1C
6E
CE
0E
3E
CE
EE
7F
ENDCHAR
STARTCHAR 1EA4
ENCODING 7844
SWIDTH 660 0
DWIDTH 11 0
BBX 12 17 0 0
BITMAP
0040
00C0
0680
0F00
1100
0000
0600
0600
0F00
0F00
1300
1380
3180
3FC0
21C0
60E0
F1F0
ENDCHAR
STARTCHAR 1EA5
ENCODING 7845
SWIDTH 540 0
DWIDTH 9 0
BBX 8 13 1 0
BITMAP
03
06
38
7C
00
1C
6E
CE
0E
3E
CE
EE
7F
ENDCHAR
STARTCHAR 1EA6
ENCODING 7846
SWIDTH 660 0
DWIDTH 11 0
BBX 12 17 0 0
BITMAP
0100
0180
0680
0F00
1100
0000
0600
0600
0F00
0F00
1300
1380
3180
3FC0
21C0
60E0
F1F0
ENDCHAR
STARTCHAR 1EA7
ENCODING 7847
SWIDTH 540 0
DWIDTH 9 0
BBX 8 13 1 0
BITMAP
0C
04
38
7C
00
1C
6E
CE
0E
3E
CE
EE
7F
ENDCHAR
STARTCHAR 1EA8
ENCODING 7848
SWIDTH 660 0
DWIDTH 11 0
BBX 12 17 0 0
BITMAP
03C0
0080
0680
0F00
1100
0000
0600
0600
0F00
0F00
1300
1380
3180
3FC0
21C0
60E0
F1F0
ENDCHAR
STARTCHAR 1EA9
ENCODING 7849
SWIDTH 540 0
DWIDTH 9 0
BBX 8 14 1 0
BITMAP
06
0A
06
38
7C
00
1C
6E
CE
0E
3E
CE
EE
7F
ENDCHAR
STARTCHAR 1EAA
ENCODING 7850
SWIDTH 660 0
DWIDTH 11 0
BBX 12 18 0 0
BITMAP
0C00
1F00
0000
0600
0F00
1100
0000
0600
0600
0F00
0F00
1300
1380
3180
3FC0
21C0
60E0
F1F0
ENDCHAR
STARTCHAR 1EAB
ENCODING 7851
SWIDTH 540 0
DWIDTH 9 0
BBX 8 14 1 0
BITMAP
74
BC
00
38
7C
00
1C
6E
CE
0E
3E
CE
EE
7F
ENDCHAR
STARTCHAR 1EAC
ENCODING 7852
SWIDTH 660 0
DWIDTH 11 0
BBX 12 19 0 -4
BITMAP
0600
0F00
1100
0000
0600
0600
0F00
0F00
1300
1380
3180
3FC0
21C0
60E0
F1F0
0000
0C00
0E00
0C00
ENDCHAR
STARTCHAR 1EAD
ENCODING 7853
SWIDTH 540 0
DWIDTH 9 0
BBX 8 16 1 -4
BITMAP
10
38
CC
00
1C
6E
CE
0E
3E
CE
EE
7F
00
10
38
10
ENDCHAR
STARTCHAR 1EAE
ENCODING 7854
SWIDTH 660 0
DWIDTH 11 0
BBX 12 17 0 0
BITMAP
0300
0600
1100
1F00
0F00
0000
0600
0600
0F00
0F00
1300
1380
3180
3FC0
21C0
60E0
F1F0
ENDCHAR
STARTCHAR 1EAF
ENCODING 7855
SWIDTH 540 0
DWIDTH 9 0
BBX 8 13 1 0
BITMAP
18
10
44
7C
30
1C
6E
CE
0E
3E
CE
EE
7F
ENDCHAR
STARTCHAR 1EB0
ENCODING 7856
SWIDTH 660 0
DWIDTH 11 0
BBX 12 17 0 0
BITMAP
0C00
0400
1100
1F00
0F00
0000
0600
0600
0F00
0F00
1300
1380
3180
3FC0
21C0
60E0
F1F0
ENDCHAR
STARTCHAR 1EB1
ENCODING 7857
SWIDTH 540 0
DWIDTH 9 0
BBX 8 13 1 0
BITMAP
30
10
44
7C
30
1C
6E
CE
0E
3E
CE
EE
7F
ENDCHAR
STARTCHAR 1EB2
ENCODING 7858
SWIDTH 660 0
DWIDTH 11 0
BBX 12 17 0 0
BITMAP
0E00
0200
1500
1F00
0F00
0000
0600
0600
0F00
0F00
1300
1380
3180
3FC0
21C0
60E0
F1F0
ENDCHAR
STARTCHAR 1EB3
ENCODING 7859
SWIDTH 540 0
DWIDTH 9 0
BBX 8 14 1 0
BITMAP
30
28
10
44
7C
30
1C
6E
CE
0E
3E
CE
EE
7F
ENDCHAR
STARTCHAR 1EB4
ENCODING 7860
SWIDTH 660 0
DWIDTH 11 0
BBX 12 17 0 0
BITMAP
1F80
0700
1100
1F00
0F00
0000
0600
0600
0F00
0F00
1300
1380
3180
3FC0
21C0
60E0
F1F0
ENDCHAR
STARTCHAR 1EB5
ENCODING 7861
SWIDTH 540 0
DWIDTH 9 0
BBX 8 14 1 0
BITMAP
20
FC
08
44
7C
30
1C
6E
CE
0E
3E
CE
EE
7F
ENDCHAR
STARTCHAR 1EB6
ENCODING 7862
SWIDTH 660 0
DWIDTH 11 0
BBX 12 19 0 -4
BITMAP
1100
1F00
0F00
0000
0600
0600
0F00
0F00
1300
1380
3180
3FC0
21C0
60E0
F1F0
0000
0C00
0E00
0C00
ENDCHAR
STARTCHAR 1EB7
ENCODING 7863
SWIDTH 540 0
DWIDTH 9 0
BBX 8 16 1 -4
BITMAP
84
C4
7C
00
1C
6E
CE
0E
3E
CE
EE
7F
00
10
38
10
ENDCHAR
STARTCHAR 1EB8
ENCODING 7864
SWIDTH 600 0
DWIDTH 10 0
BBX 9 15 1 -4
BITMAP
FF00
6100
6100
6200
6600
7E00
6600
6000
6180
7180
FF00
0000
0800
1C00
1800
ENDCHAR
STARTCHAR 1EB9
ENCODING 7865
SWIDTH 480 0
DWIDTH 8 0
BBX 7 12 1 -4
BITMAP
38
EC
C6
C6
FE
C0
E2
7C
00
18
38
18
ENDCHAR
STARTCHAR 1EBA
ENCODING 7866
SWIDTH 600 0
DWIDTH 10 0
BBX 9 15 1 0
BITMAP
3C00
2C00
1800
0000
FF00
6100
6100
6200
6600
7E00
6600
6000
6180
7180
FF00
ENDCHAR
STARTCHAR 1EBB
ENCODING 7867
SWIDTH 480 0
DWIDTH 8 0
BBX 7 12 1 0
BITMAP
38
68
10
00
38
EC
C6
C6
FE
C0
E2
7C
ENDCHAR
STARTCHAR 1EBC
ENCODING 7868
SWIDTH 600 0
DWIDTH 10 0
BBX 9 14 1 0
BITMAP
7E00
0C00
0000
FF00
6100
6100
6200
6600
7E00
6600
6000
6180
7180
FF00
ENDCHAR
STARTCHAR 1EBD
ENCODING 7869
SWIDTH 480 0
DWIDTH 8 0
BBX 7 11 1 0
BITMAP
7C
9C
00
38
EC
C6
C6
FE
C0
E2
7C
ENDCHAR
STARTCHAR 1EBE
ENCODING 7870
SWIDTH 600 0
DWIDTH 10 0
BBX 9 17 1 0
BITMAP
0180
0300
1A00
3C00
4600
0000
FF00
6100
6100
6200
6600
7E00
6600
6000
6180
7180
FF00
ENDCHAR
STARTCHAR 1EBF
ENCODING 7871
SWIDTH 480 0
DWIDTH 8 0
BBX 8 13 1 0
BITMAP
03
02
38
7C
00
38
EC
C6
C6
FE
C0
E2
7C
ENDCHAR
STARTCHAR 1EC0
ENCODING 7872
SWIDTH 600 0
DWIDTH 10 0
BBX 9 17 1 0
BITMAP
0400
0600
1A00
3C00
4600
0000
FF00
6100
6100
6200
6600
7E00
6600
6000
6180
7180
FF00
ENDCHAR
STARTCHAR 1EC1
ENCODING 7873
SWIDTH 480 0
DWIDTH 8 0
BBX 7 13 1 0
BITMAP
0C
04
38
7C
00
38
EC
C6
C6
FE
C0
E2
7C
ENDCHAR
STARTCHAR 1EC2
ENCODING 7874
SWIDTH 600 0
DWIDTH 10 0
BBX 9 17 1 0
BITMAP
0700
0300
1A00
3C00
4600
0000
FF00
6100
6100
6200
6600
7E00
6600
6000
6180
7180
FF00
ENDCHAR
STARTCHAR 1EC3
ENCODING 7875
SWIDTH 480 0
DWIDTH 8 0
BBX 8 14 1 0
BITMAP
06
0B
06
38
7C
00
38
EC
C6
C6
FE
C0
E2
7C
ENDCHAR
STARTCHAR 1EC4
ENCODING 7876
SWIDTH 600 0
DWIDTH 10 0
BBX 9 18 1 0
BITMAP
3000
7E00
0000
1800
3C00
4600
0000
FF00
6100
6100
6200
6600
7E00
6600
6000
6180
7180
FF00
ENDCHAR
STARTCHAR 1EC5
ENCODING 7877
SWIDTH 480 0
DWIDTH 8 0
BBX 7 14 1 0
BITMAP
76
9C
00
38
7C
00
38
EC
C6
C6
FE
C0
E2
7C
ENDCHAR
STARTCHAR 1EC6
ENCODING 7878
SWIDTH 600 0
DWIDTH 10 0
BBX 9 19 1 -4
BITMAP
1800
3C00
4600
0000
FF00
6100
6100
6200
6600
7E00
6600
6000
6180
7180
FF00
0000
0800
1C00
1800
ENDCHAR
STARTCHAR 1EC7
ENCODING 7879
SWIDTH 480 0
DWIDTH 8 0
BBX 7 16 1 -4
BITMAP
18
38
4C
00
38
EC
C6
C6
FE
C0
E2
7C
00
18
38
18
ENDCHAR
STARTCHAR 1EC8
ENCODING 7880
SWIDTH 360 0
DWIDTH 6 0
BBX 5 15 1 0
BITMAP
70
B0
20
00
F8
60
60
60
60
60
60
60
60
70
F8
ENDCHAR
STARTCHAR 1EC9
ENCODING 7881
SWIDTH 300 0
DWIDTH 5 0
BBX 4 12 1 0
BITMAP
E0
B0
60
00
20
E0
60
60
60
60
60
F0
ENDCHAR
STARTCHAR 1ECA
ENCODING 7882
SWIDTH 360 0
DWIDTH 6 0
BBX 5 15 1 -4
BITMAP
F8
60
60
60
60
60
60
60
60
70
F8
00
60
70
60
ENDCHAR
STARTCHAR 1ECB
ENCODING 7883
SWIDTH 300 0
DWIDTH 5 0
BBX 4 16 1 -4
BITMAP
40
E0
60
00
20
E0
60
60
60
60
60
F0
00
60
60
60
ENDCHAR
STARTCHAR 1ECC
ENCODING 7884
SWIDTH 720 0
DWIDTH 12 0
BBX 11 15 1 -4
BITMAP
3F80
61C0
E0C0
C0E0
C0E0
C0E0
C0E0
E0E0
E0C0
7180
3F00
0000
0C00
0E00
0C00
ENDCHAR
STARTCHAR 1ECD
ENCODING 7885
SWIDTH 540 0
DWIDTH 9 0
BBX 8 12 1 -4
BITMAP
3C
6E
C7
C7
C7
C7
E6
7C
00
18
38
18
ENDCHAR
STARTCHAR 1ECE
ENCODING 7886
SWIDTH 720 0
DWIDTH 12 0
BBX 11 15 1 0
BITMAP
0E00
0E00
0400
0000
3F80
61C0
E0C0
C0E0
C0E0
C0E0
C0E0
E0E0
E0C0
7180
3F00
ENDCHAR
STARTCHAR 1ECF
ENCODING 7887
SWIDTH 540 0
DWIDTH 9 0
BBX 8 12 1 0
BITMAP
38
2C
10
00
3C
6E
C7
C7
C7
C7
E6
7C
ENDCHAR
STARTCHAR 1ED0
ENCODING 7888
SWIDTH 720 0
DWIDTH 12 0
BBX 11 17 1 0
BITMAP
00C0
0080
0500
1E00
1300
0000
3F80
61C0
E0C0
C0E0
C0E0
C0E0
C0E0
E0E0
E0C0
7180
3F00
ENDCHAR
STARTCHAR 1ED1
ENCODING 7889
SWIDTH 540 0
DWIDTH 9 0
BBX 8 13 1 0
BITMAP
03
02
18
6C
00
3C
6E
C7
C7
C7
C7
E6
7C
ENDCHAR
STARTCHAR 1ED2
ENCODING 7890
SWIDTH 720 0
DWIDTH 12 0
BBX 11 17 1 0
BITMAP
0300
0300
0580
1E00
1300
0000
3F80
61C0
E0C0
C0E0
C0E0
C0E0
C0E0
E0E0
E0C0
7180
3F00
ENDCHAR
STARTCHAR 1ED3
ENCODING 7891
SWIDTH 540 0
DWIDTH 9 0
BBX 8 13 1 0
BITMAP
0C
06
18
6C
00
3C
6E
C7
C7
C7
C7
E6
7C
ENDCHAR
STARTCHAR 1ED4
ENCODING 7892
SWIDTH 720 0
DWIDTH 12 0
BBX 11 17 1 0
BITMAP
0380
0180
0500
1E00
1300
0000
3F80
61C0
E0C0
C0E0
C0E0
C0E0
C0E0
E0E0
E0C0
7180
3F00
ENDCHAR
STARTCHAR 1ED5
ENCODING 7893
SWIDTH 540 0
DWIDTH 9 0
BBX 8 14 1 0
BITMAP
06
0B
02
18
6C
00
3C
6E
C7
C7
C7
C7
E6
7C
ENDCHAR
STARTCHAR 1ED6
ENCODING 7894
SWIDTH 720 0
DWIDTH 12 0
BBX 11 18 1 0
BITMAP
1800
3F00
0000
0400
1E00
1300
0000
3F80
61C0
E0C0
C0E0
C0E0
C0E0
C0E0
E0E0
E0C0
7180
3F00
ENDCHAR
STARTCHAR 1ED7
ENCODING 7895
SWIDTH 540 0
DWIDTH 9 0
BBX 8 14 1 0
BITMAP
72
5C
00
18
6C
00
3C
6E
C7
C7
C7
C7
E6
7C
ENDCHAR
STARTCHAR 1ED8
ENCODING 7896
SWIDTH 720 0
DWIDTH 12 0
BBX 11 19 1 -4
BITMAP
0400
1E00
1300
0000
3F80
61C0
E0C0
C0E0
C0E0
C0E0
C0E0
E0E0
E0C0
7180
3F00
0000
0C00
0E00
0C00
ENDCHAR
STARTCHAR 1ED9
ENCODING 7897
SWIDTH 540 0
DWIDTH 9 0
BBX 8 16 1 -4
BITMAP
18
3C
66
00
3C
6E
C7
C7
C7
C7
E6
7C
00
18
38
18
ENDCHAR
STARTCHAR 1EDA
ENCODING 7898
SWIDTH 720 0
DWIDTH 12 0
BBX 11 15 1 0
BITMAP
0600
0600
0C60
0040
3F80
61C0
E0C0
C0E0
C0E0
C0E0
C0E0
E0E0
E0C0
7180
3F00
ENDCHAR
STARTCHAR 1EDB
ENCODING 7899
SWIDTH 600 0
DWIDTH 10 0
BBX 8 12 1 0
BITMAP
0C
08
19
01
3F
6E
C7
C7
C7
C7
E6
7C
ENDCHAR
STARTCHAR 1EDC
ENCODING 7900
SWIDTH 720 0
DWIDTH 12 0
BBX 11 15 1 0
BITMAP
0800
0C00
0460
0040
3F80
61C0
E0C0
C0E0
C0E0
C0E0
C0E0
E0E0
E0C0
7180
3F00
ENDCHAR
STARTCHAR 1EDD
ENCODING 7901
SWIDTH 600 0
DWIDTH 10 0
BBX 8 12 1 0
BITMAP
70
30
11
01
3F
6E
C7
C7
C7
C7
E6
7C
ENDCHAR
STARTCHAR 1EDE
ENCODING 7902
SWIDTH 720 0
DWIDTH 12 0
BBX 11 15 1 0
BITMAP
0E00
0E00
0460
0040
3F80
61C0
E0C0
C0E0
C0E0
C0E0
C0E0
E0E0
E0C0
7180
3F00
ENDCHAR
STARTCHAR 1EDF
ENCODING 7903
SWIDTH 600 0
DWIDTH 10 0
BBX 8 12 1 0
BITMAP
38
2C
11
01
3F
6E
C7
C7
C7
C7
E6
7C
ENDCHAR
STARTCHAR 1EE0
ENCODING 7904
SWIDTH 720 0
DWIDTH 12 0
BBX 11 14 1 0
BITMAP
3F00
2660
0040
3F80
61C0
E0C0
C0E0
C0E0
C0E0
C0E0
E0E0
E0C0
7180
3F00
ENDCHAR
STARTCHAR 1EE1
ENCODING 7905
SWIDTH 600 0
DWIDTH 10 0
BBX 8 11 1 0
BITMAP
7E
1D
01
3F
6E
C7
C7
C7
C7
E6
7C
ENDCHAR
STARTCHAR 1EE2
ENCODING 7906
SWIDTH 720 0
DWIDTH 12 0
BBX 11 17 1 -4
BITMAP
0060
0040
3F80
61C0
E0C0
C0E0
C0E0
C0E0
C0E0
E0E0
E0C0
7180
3F00
0000
0C00
0E00
0C00
ENDCHAR
STARTCHAR 1EE3
ENCODING 7907
SWIDTH 600 0
DWIDTH 10 0
BBX 8 14 1 -4
BITMAP
01
01
3F
6E
C7
C7
C7
C7
E6
7C
00
18
38
18
ENDCHAR
STARTCHAR 1EE4
ENCODING 7908
SWIDTH 660 0
DWIDTH 11 0
BBX 10 15 1 -4
BITMAP
F1C0
6080
6080
6080
6080
6080
6080
6080
6180
7100
3E00
0000
0C00
1C00
0C00
ENDCHAR
STARTCHAR 1EE5
ENCODING 7909
SWIDTH 600 0
DWIDTH 10 0
BBX 10 12 0 -4
BITMAP
3180
F780
7380
7380
7380
7380
7380
3FC0
0000
0C00
0C00
0C00
ENDCHAR
STARTCHAR 1EE6
ENCODING 7910
SWIDTH 660 0
DWIDTH 11 0
BBX 10 15 1 0
BITMAP
0E00
0A00
0400
0000
F1C0
6080
6080
6080
6080
6080
6080
6080
6180
7100
3E00
ENDCHAR
STARTCHAR 1EE7
ENCODING 7911
SWIDTH 600 0
DWIDTH 10 0
BBX 10 12 0 0
BITMAP
0C00
1600
0C00
0000
3180
F780
7380
7380
7380
7380
7380
3FC0
ENDCHAR
STARTCHAR 1EE8
ENCODING 7912
SWIDTH 720 0
DWIDTH 12 0
BBX 11 15 1 0
BITMAP
0700
0600
0420
0060
F1C0
6080
6080
6080
6080
6080
6080
6080
6180
7100
3E00
ENDCHAR
STARTCHAR 1EE9
ENCODING 7913
SWIDTH 660 0
DWIDTH 11 0
BBX 10 12 0 0
BITMAP
0600
0400
0C40
0040
31C0
F780
7380
7380
7380
7380
7380
3FC0
ENDCHAR
STARTCHAR 1EEA
ENCODING 7914
SWIDTH 720 0
DWIDTH 12 0
BBX 11 15 1 0
BITMAP
0800
0C00
0420
0060
F1C0
6080
6080
6080
6080
6080
6080
6080
6180
7100
3E00
ENDCHAR
STARTCHAR 1EEB
ENCODING 7915
SWIDTH 660 0
DWIDTH 11 0
BBX 10 12 0 0
BITMAP
1800
0800
0C40
0040
31C0
F780
7380
7380
7380
7380
7380
3FC0
ENDCHAR
STARTCHAR 1EEC
ENCODING 7916
SWIDTH 720 0
DWIDTH 12 0
BBX 11 15 1 0
BITMAP
0E00
0A00
0420
0060
F1C0
6080
6080
6080
6080
6080
6080
6080
6180
7100
3E00
ENDCHAR
STARTCHAR 1EED
ENCODING 7917
SWIDTH 660 0
DWIDTH 11 0
BBX 10 12 0 0
BITMAP
0C00
1600
0C40
0040
31C0
F780
7380
7380
7380
7380
7380
3FC0
ENDCHAR
STARTCHAR 1EEE
ENCODING 7918
SWIDTH 720 0
DWIDTH 12 0
BBX 11 14 1 0
BITMAP
3F00
0220
0060
F1C0
6080
6080
6080
6080
6080
6080
6080
6180
7100
3E00
ENDCHAR
STARTCHAR 1EEF
ENCODING 7919
SWIDTH 660 0
DWIDTH 11 0
BBX 10 11 0 0
BITMAP
3F00
2640
0040
31C0
F780
7380
7380
7380
7380
7380
3FC0
ENDCHAR
STARTCHAR 1EF0
ENCODING 7920
SWIDTH 720 0
DWIDTH 12 0
BBX 11 17 1 -4
BITMAP
0020
0060
F1C0
6080
6080
6080
6080
6080
6080
6080
6180
7100
3E00
0000
0C00
1C00
0C00
ENDCHAR
STARTCHAR 1EF1
ENCODING 7921
SWIDTH 660 0
DWIDTH 11 0
BBX 10 14 0 -4
BITMAP
0040
0040
31C0
F780
7380
7380
7380
7380
7380
3FC0
0000
0C00
0C00
0C00
ENDCHAR
STARTCHAR 1EF2
ENCODING 7922
SWIDTH 600 0
DWIDTH 10 0
BBX 10 15 0 0
BITMAP
0C00
0400
0600
0000
F9C0
7080
3880
3900
1D00
1E00
0E00
0E00
0E00
0E00
3F00
ENDCHAR
STARTCHAR 1EF3
ENCODING 7923
SWIDTH 540 0
DWIDTH 9 0
BBX 9 16 0 -4
BITMAP
1800
0C00
0400
0000
FB80
7180
3100
3A00
3A00
1A00
1C00
0C00
0800
0800
7000
7000
ENDCHAR
STARTCHAR 1EF4
ENCODING 7924
SWIDTH 600 0
DWIDTH 10 0
BBX 10 15 0 -4
BITMAP
F9C0
7080
3880
3900
1D00
1E00
0E00
0E00
0E00
0E00
3F00
0000
0C00
0E00
0C00
ENDCHAR
STARTCHAR 1EF5
ENCODING 7925
SWIDTH 540 0
DWIDTH 9 0
BBX 9 12 0 -4
BITMAP
FB80
7180
3100
3A00
3A00
1A00
1C00
0C00
0800
0B00
7700
7300
ENDCHAR
STARTCHAR 1EF6
ENCODING 7926
SWIDTH 600 0
DWIDTH 10 0
BBX 10 15 0 0
BITMAP
0F00
0B00
0600
0000
F9C0
7080
3880
3900
1D00
1E00
0E00
0E00
0E00
0E00
3F00
ENDCHAR
STARTCHAR 1EF7
ENCODING 7927
SWIDTH 540 0
DWIDTH 9 0
BBX 9 16 0 -4
BITMAP
0E00
1A00
0400
0000
FB80
7180
3100
3A00
3A00
1A00
1C00
0C00
0800
0800
7000
7000
ENDCHAR
STARTCHAR 1EF8
ENCODING 7928
SWIDTH 600 0
DWIDTH 10 0
BBX 10 14 0 0
BITMAP
1F80
0300
0000
F9C0
7080
3880
3900
1D00
1E00
0E00
0E00
0E00
0E00
3F00
ENDCHAR
STARTCHAR 1EF9
ENCODING 7929
SWIDTH 540 0
DWIDTH 9 0
BBX 9 15 0 -4
BITMAP
1F00
2700
0000
FB80
7180
3100
3A00
3A00
1A00
1C00
0C00
0800
0800
7000
7000
ENDCHAR
STARTCHAR 2007
ENCODING 8199
SWIDTH 540 0
DWIDTH 9 0
BBX 0 0 0 0
BITMAP
ENDCHAR
STARTCHAR 2008
ENCODING 8200
SWIDTH 180 0
DWIDTH 3 0
BBX 0 0 0 0
BITMAP
ENDCHAR
STARTCHAR 2009
ENCODING 8201
SWIDTH 60 0
DWIDTH 1 0
BBX 0 0 0 0
BITMAP
ENDCHAR
STARTCHAR 200A
ENCODING 8202
SWIDTH 0 0
DWIDTH 0 0
BBX 0 0 0 0
BITMAP
ENDCHAR
STARTCHAR 200B
ENCODING 8203
SWIDTH 0 0
DWIDTH 0 0
BBX 0 0 0 0
BITMAP
ENDCHAR
STARTCHAR 2010
ENCODING 8208
SWIDTH 360 0
DWIDTH 6 0
BBX 5 1 1 4
BITMAP
F8
ENDCHAR
STARTCHAR 2011
ENCODING 8209
SWIDTH 360 0
DWIDTH 6 0
BBX 5 1 1 4
BITMAP
F8
ENDCHAR
STARTCHAR 2012
ENCODING 8210
SWIDTH 540 0
DWIDTH 9 0
BBX 7 1 1 4
BITMAP
FE
ENDCHAR
STARTCHAR 2013
ENCODING 8211
SWIDTH 540 0
DWIDTH 9 0
BBX 8 1 1 4
BITMAP
FF
ENDCHAR
STARTCHAR 2014
ENCODING 8212
SWIDTH 1020 0
DWIDTH 17 0
BBX 15 1 1 4
BITMAP
FFFE
ENDCHAR
STARTCHAR 2015
ENCODING 8213
SWIDTH 1020 0
DWIDTH 17 0
BBX 15 1 1 4
BITMAP
FFFE
ENDCHAR
STARTCHAR 2016
ENCODING 8214
SWIDTH 300 0
DWIDTH 5 0
BBX 4 16 1 -4
BITMAP
90
90
90
90
90
90
90
90
90
90
90
90
90
90
90
90
ENDCHAR
STARTCHAR 2018
ENCODING 8216
SWIDTH 240 0
DWIDTH 4 0
BBX 3 5 1 7
BITMAP
40
C0
C0
E0
80
ENDCHAR
STARTCHAR 2019
ENCODING 8217
SWIDTH 240 0
DWIDTH 4 0
BBX 3 5 1 7
BITMAP
E0
E0
60
40
80
ENDCHAR
STARTCHAR 201A
ENCODING 8218
SWIDTH 240 0
DWIDTH 4 0
BBX 3 4 1 -3
BITMAP
E0
E0
60
40
ENDCHAR
STARTCHAR 201B
ENCODING 8219
SWIDTH 240 0
DWIDTH 4 0
BBX 3 5 1 7
BITMAP
C0
E0
C0
40
40
ENDCHAR
STARTCHAR 201C
ENCODING 8220
SWIDTH 420 0
DWIDTH 7 0
BBX 6 5 1 7
BITMAP
48
D8
D8
FC
90
ENDCHAR
STARTCHAR 201D
ENCODING 8221
SWIDTH 420 0
DWIDTH 7 0
BBX 6 5 1 7
BITMAP
D8
FC
48
48
10
ENDCHAR
STARTCHAR 201E
ENCODING 8222
SWIDTH 420 0
DWIDTH 7 0
BBX 6 5 1 -3
BITMAP
D8
FC
48
48
10
ENDCHAR
STARTCHAR 201F
ENCODING 8223
SWIDTH 420 0
DWIDTH 7 0
BBX 6 5 1 7
BITMAP
D8
FC
D8
48
48
ENDCHAR
STARTCHAR 2020
ENCODING 8224
SWIDTH 480 0
DWIDTH 8 0
BBX 6 15 1 -4
BITMAP
30
30
30
FC
FC
30
30
30
30
20
20
20
20
20
20
ENDCHAR
STARTCHAR 2021
ENCODING 8225
SWIDTH 480 0
DWIDTH 8 0
BBX 6 14 1 -3
BITMAP
30
30
30
FC
FC
30
30
30
10
90
FC
30
30
30
ENDCHAR
STARTCHAR 2022
ENCODING 8226
SWIDTH 360 0
DWIDTH 6 0
BBX 5 4 1 2
BITMAP
F0
F8
F0
70
ENDCHAR
STARTCHAR 2023
ENCODING 8227
SWIDTH 360 0
DWIDTH 6 0
BBX 4 4 1 3
BITMAP
E0
F0
E0
C0
ENDCHAR
STARTCHAR 2024
ENCODING 8228
SWIDTH 240 0
DWIDTH 4 0
BBX 3 3 1 0
BITMAP
40
E0
E0
ENDCHAR
STARTCHAR 2025
ENCODING 8229
SWIDTH 600 0
DWIDTH 10 0
BBX 8 2 1 0
BITMAP
E3
E3
ENDCHAR
STARTCHAR 2026
ENCODING 8230
SWIDTH 900 0
DWIDTH 15 0
BBX 14 3 1 0
BITMAP
4308
E71C
E318
ENDCHAR
STARTCHAR 2027
ENCODING 8231
SWIDTH 240 0
DWIDTH 4 0
BBX 3 3 1 3
BITMAP
40
E0
C0
ENDCHAR
STARTCHAR 202F
ENCODING 8239
SWIDTH 180 0
DWIDTH 3 0
BBX 0 0 0 0
BITMAP
ENDCHAR
STARTCHAR 2030
ENCODING 8240
SWIDTH 1200 0
DWIDTH 20 0
BBX 18 11 1 0
BITMAP
782000
4C4000
CC8000
4D0000
7B0000
060000
05E380
0936C0
113440
2136C0
61E380
ENDCHAR
STARTCHAR 2031
ENCODING 8241
SWIDTH 1560 0
DWIDTH 26 0
BBX 24 11 1 0
BITMAP
782000
4C4000
CC8000
4D0000
7B0000
060000
04E38F
0936D9
113459
2136D9
61E38E
ENDCHAR
STARTCHAR 2032
ENCODING 8242
SWIDTH 240 0
DWIDTH 4 0
BBX 3 5 1 7
BITMAP
60
40
40
80
80
ENDCHAR
STARTCHAR 2033
ENCODING 8243
SWIDTH 420 0
DWIDTH 7 0
BBX 6 5 1 7
BITMAP
6C
4C
48
98
90
ENDCHAR
STARTCHAR 2034
ENCODING 8244
SWIDTH 660 0
DWIDTH 11 0
BBX 9 5 1 7
BITMAP
6D80
4D80
4900
9B00
9200
ENDCHAR
STARTCHAR 2035
ENCODING 8245
SWIDTH 240 0
DWIDTH 4 0
BBX 3 5 1 7
BITMAP
C0
C0
40
40
20
ENDCHAR
STARTCHAR 2036
ENCODING 8246
SWIDTH 420 0
DWIDTH 7 0
BBX 6 5 1 7
BITMAP
D8
C8
48
4C
24
ENDCHAR
STARTCHAR 2037
ENCODING 8247
SWIDTH 600 0
DWIDTH 10 0
BBX 9 5 1 7
BITMAP
DB00
D900
4900
4900
2480
ENDCHAR
STARTCHAR 2038
ENCODING 8248
SWIDTH 540 0
DWIDTH 9 0
BBX 7 5 1 0
BITMAP
18
28
44
C6
82
ENDCHAR
STARTCHAR 2039
ENCODING 8249
SWIDTH 300 0
DWIDTH 5 0
BBX 3 6 1 1
BITMAP
20
60
C0
C0
60
20
ENDCHAR
STARTCHAR 203A
ENCODING 8250
SWIDTH 300 0
DWIDTH 5 0
BBX 3 6 1 1
BITMAP
80
60
60
60
40
80
ENDCHAR
STARTCHAR 203D
ENCODING 8253
SWIDTH 600 0
DWIDTH 10 0
BBX 7 12 2 0
BITMAP
7C
CE
B6
36
36
3C
18
30
00
00
38
38
ENDCHAR
STARTCHAR 203F
ENCODING 8255
SWIDTH 660 0
DWIDTH 11 0
BBX 10 3 1 -3
BITMAP
8040
F3C0
3F00
ENDCHAR
STARTCHAR 2040
ENCODING 8256
SWIDTH 660 0
DWIDTH 11 0
BBX 10 3 1 11
BITMAP
3F00
F3C0
8040
ENDCHAR
STARTCHAR 2043
ENCODING 8259
SWIDTH 360 0
DWIDTH 6 0
BBX 5 3 1 3
BITMAP
F8
F8
F8
ENDCHAR
STARTCHAR 2044
ENCODING 8260
SWIDTH 180 0
DWIDTH 3 0
BBX 10 12 -3 0
BITMAP
00C0
0180
0100
0200
0600
0400
0800
1000
3000
2000
4000
C000
ENDCHAR
STARTCHAR 204B
ENCODING 8267
SWIDTH 540 0
DWIDTH 9 0
BBX 9 15 0 -4
BITMAP
FF00
2B80
2980
2980
2B80
2F00
2800
2800
2800
2800
2800
2800
2800
2800
2800
ENDCHAR
STARTCHAR 2052
ENCODING 8274
SWIDTH 540 0
DWIDTH 9 0
BBX 8 10 1 1
BITMAP
01
E3
C2
04
08
18
30
62
C7
83
ENDCHAR
STARTCHAR 205D
ENCODING 8285
SWIDTH 240 0
DWIDTH 4 0
BBX 3 11 1 0
BITMAP
E0
E0
00
00
C0
E0
40
00
00
E0
E0
ENDCHAR
STARTCHAR 2070
ENCODING 8304
SWIDTH 420 0
DWIDTH 7 0
BBX 7 6 0 7
BITMAP
38
6C
C6
C6
66
7C
ENDCHAR
STARTCHAR 2074
ENCODING 8308
SWIDTH 420 0
DWIDTH 7 0
BBX 7 8 0 5
BITMAP
08
18
28
28
48
FE
08
08
ENDCHAR
STARTCHAR 2075
ENCODING 8309
SWIDTH 300 0
DWIDTH 5 0
BBX 5 8 0 5
BITMAP
78
78
40
70
38
18
18
F0
ENDCHAR
STARTCHAR 2076
ENCODING 8310
SWIDTH 360 0
DWIDTH 6 0
BBX 6 7 0 7
BITMAP
18
60
60
FC
CC
4C
78
ENDCHAR
STARTCHAR 2077
ENCODING 8311
SWIDTH 300 0
DWIDTH 5 0
BBX 5 8 0 5
BITMAP
78
F8
90
10
20
20
60
60
ENDCHAR
STARTCHAR 2078
ENCODING 8312
SWIDTH 360 0
DWIDTH 6 0
BBX 5 7 1 7
BITMAP
F0
D8
F0
70
98
98
F8
ENDCHAR
STARTCHAR 2079
ENCODING 8313
SWIDTH 360 0
DWIDTH 6 0
BBX 6 8 0 5
BITMAP
38
6C
CC
CC
7C
0C
18
60
ENDCHAR
STARTCHAR 2080
ENCODING 8320
SWIDTH 420 0
DWIDTH 7 0
BBX 7 6 0 -2
BITMAP
10
6C
46
C6
66
7C
ENDCHAR
STARTCHAR 2081
ENCODING 8321
SWIDTH 240 0
DWIDTH 4 0
BBX 3 5 1 -1
BITMAP
E0
C0
C0
C0
E0
ENDCHAR
STARTCHAR 2082
ENCODING 8322
SWIDTH 300 0
DWIDTH 5 0
BBX 5 6 0 -2
BITMAP
10
58
58
10
68
F8
ENDCHAR
STARTCHAR 2083
ENCODING 8323
SWIDTH 300 0
DWIDTH 5 0
BBX 5 7 0 -3
BITMAP
78
50
30
38
18
08
F8
ENDCHAR
STARTCHAR 2084
ENCODING 8324
SWIDTH 420 0
DWIDTH 7 0
BBX 7 8 0 -4
BITMAP
08
18
28
28
48
FE
08
08
ENDCHAR
STARTCHAR 2085
ENCODING 8325
SWIDTH 300 0
DWIDTH 5 0
BBX 4 8 1 -4
BITMAP
90
F0
80
E0
F0
30
30
E0
ENDCHAR
STARTCHAR 2086
ENCODING 8326
SWIDTH 360 0
DWIDTH 6 0
BBX 6 7 0 -2
BITMAP
18
60
60
7C
CC
4C
7C
ENDCHAR
STARTCHAR 2087
ENCODING 8327
SWIDTH 300 0
DWIDTH 5 0
BBX 5 7 0 -4
BITMAP
78
D0
10
30
20
60
60
ENDCHAR
STARTCHAR 2088
ENCODING 8328
SWIDTH 360 0
DWIDTH 6 0
BBX 5 7 1 -2
BITMAP
F0
D8
D0
70
B8
98
F8
ENDCHAR
STARTCHAR 2089
ENCODING 8329
SWIDTH 360 0
DWIDTH 6 0
BBX 6 8 0 -4
BITMAP
10
6C
CC
CC
7C
0C
18
70
ENDCHAR
STARTCHAR 20A1
ENCODING 8353
SWIDTH 600 0
DWIDTH 10 0
BBX 9 14 1 -1
BITMAP
0500
3F80
6180
E180
C000
C000
C000
C000
E000
E000
7080
3F00
1400
0400
ENDCHAR
STARTCHAR 20A3
ENCODING 8355
SWIDTH 540 0
DWIDTH 9 0
BBX 9 11 0 0
BITMAP
7F80
3080
3080
3000
3100
3F00
3300
3100
FC00
3800
7C00
ENDCHAR
STARTCHAR 20A4
ENCODING 8356
SWIDTH 540 0
DWIDTH 9 0
BBX 8 11 1 0
BITMAP
7E
66
E2
E0
70
FC
30
20
7D
7F
8E
ENDCHAR
STARTCHAR 20A6
ENCODING 8358
SWIDTH 720 0
DWIDTH 12 0
BBX 12 11 0 0
BITMAP
70E0
3860
3C40
2E40
FFF0
2740
23C0
21C0
21C0
20C0
7040
ENDCHAR
STARTCHAR 20A7
ENCODING 8359
SWIDTH 600 0
DWIDTH 10 0
BBX 11 11 0 0
BITMAP
7F80
31C0
31C0
FFE0
31C0
3180
3700
3000
3000
3800
7C00
ENDCHAR
STARTCHAR 20A9
ENCODING 8361
SWIDTH 960 0
DWIDTH 16 0
BBX 16 11 0 0
BITMAP
F8C7
70C2
31E2
39E2
FF7F
1A74
FE77
1E38
0C38
0C38
0C10
ENDCHAR
STARTCHAR 20AB
ENCODING 8363
SWIDTH 600 0
DWIDTH 10 0
BBX 9 12 1 0
BITMAP
0300
0F00
1F80
0700
3F00
E700
C700
C700
E700
FB80
0000
FF80
ENDCHAR
STARTCHAR 20AC
ENCODING 8364
SWIDTH 720 0
DWIDTH 12 0
BBX 11 11 1 0
BITMAP
0FC0
3840
3040
7000
FF00
7000
FE00
7000
3800
1C60
0FC0
ENDCHAR
STARTCHAR 20AD
ENCODING 8365
SWIDTH 720 0
DWIDTH 12 0
BBX 12 11 0 0
BITMAP
7DE0
3080
3100
3200
3400
FFC0
3700
3380
31C0
39C0
7CF0
ENDCHAR
STARTCHAR 20AE
ENCODING 8366
SWIDTH 600 0
DWIDTH 10 0
BBX 10 11 0 0
BITMAP
7FC0
4E40
CE40
0E80
0F80
3E00
0F80
3E00
0E00
0E00
1F00
ENDCHAR
STARTCHAR 20B1
ENCODING 8369
SWIDTH 600 0
DWIDTH 10 0
BBX 11 11 0 0
BITMAP
7F80
31C0
F1E0
31C0
F1E0
3180
3700
3000
3000
3800
7C00
ENDCHAR
STARTCHAR 20B2
ENCODING 8370
SWIDTH 660 0
DWIDTH 11 0
BBX 10 13 1 -1
BITMAP
0400
3F80
6080
E080
C000
C000
C000
C3C0
E180
E180
7180
3F00
0400
ENDCHAR
STARTCHAR 20B4
ENCODING 8372
SWIDTH 600 0
DWIDTH 10 0
BBX 9 11 1 0
BITMAP
7E00
6700
4700
0E00
FF80
0000
FF80
6000
E300
E300
7E00
ENDCHAR
STARTCHAR 20B5
ENCODING 8373
SWIDTH 600 0
DWIDTH 10 0
BBX 9 13 1 -1
BITMAP
0400
3F80
6580
E580
C400
C400
C400
C400
E400
E400
7480
3F00
0400
ENDCHAR
STARTCHAR 20B8
ENCODING 8376
SWIDTH 600 0
DWIDTH 10 0
BBX 10 11 0 0
BITMAP
7FC0
0000
7FC0
4E40
CE40
0E00
0E00
0E00
0E00
0E00
1F00
ENDCHAR
STARTCHAR 20B9
ENCODING 8377
SWIDTH 540 0
DWIDTH 9 0
BBX 8 11 1 0
BITMAP
FF
1C
1C
FF
1C
78
F0
38
1C
1C
0F
ENDCHAR
STARTCHAR 20BA
ENCODING 8378
SWIDTH 540 0
DWIDTH 9 0
BBX 9 11 0 0
BITMAP
7C00
3800
3C00
3C00
3800
FE00
B880
7880
F980
3B00
3E00
ENDCHAR
STARTCHAR 20BC
ENCODING 8380
SWIDTH 780 0
DWIDTH 13 0
BBX 12 12 1 1
BITMAP
0400
3F80
25C0
64C0
44C0
44C0
44C0
44C0
44C0
44C0
60E0
F1F0
ENDCHAR
STARTCHAR 20BD
ENCODING 8381
SWIDTH 660 0
DWIDTH 11 0
BBX 10 11 1 0
BITMAP
7F80
31C0
31C0
31C0
3180
FF00
3000
FF00
F000
3000
7800
ENDCHAR
STARTCHAR 2102
ENCODING 8450
SWIDTH 600 0
DWIDTH 10 0
BBX 9 11 1 0
BITMAP
3F80
7180
F180
B000
B000
B000
B000
F000
F000
7080
3F00
ENDCHAR
STARTCHAR 210D
ENCODING 8461
SWIDTH 720 0
DWIDTH 12 0
BBX 11 11 1 0
BITMAP
FDE0
58C0
58C0
58C0
58C0
5FC0
58C0
58C0
58C0
58C0
FDE0
ENDCHAR
STARTCHAR 2113
ENCODING 8467
SWIDTH 420 0
DWIDTH 7 0
BBX 7 12 0 0
BITMAP
0C
1A
32
32
34
34
38
70
B0
30
3A
1C
ENDCHAR
STARTCHAR 2115
ENCODING 8469
SWIDTH 780 0
DWIDTH 13 0
BBX 11 11 1 0
BITMAP
F8E0
4C40
6440
5240
5B40
4DC0
44C0
4240
4340
41C0
E0C0
ENDCHAR
STARTCHAR 2116
ENCODING 8470
SWIDTH 1140 0
DWIDTH 19 0
BBX 18 11 1 0
BITMAP
E1CF80
70D8C0
7898C0
5C98C0
5C8D80
4E8200
478000
439FC0
438000
418000
E08000
ENDCHAR
STARTCHAR 2117
ENCODING 8471
SWIDTH 780 0
DWIDTH 13 0
BBX 11 12 1 -2
BITMAP
0600
3980
6040
5FA0
8DA0
8DA0
8DA0
8E20
DC20
5E40
30C0
0F00
ENDCHAR
STARTCHAR 2119
ENCODING 8473
SWIDTH 660 0
DWIDTH 11 0
BBX 10 11 1 0
BITMAP
FF00
5980
5880
58C0
5880
5980
5F00
5800
5800
5800
FC00
ENDCHAR
STARTCHAR 211A
ENCODING 8474
SWIDTH 720 0
DWIDTH 12 0
BBX 12 14 1 -3
BITMAP
3F80
71C0
F0C0
B060
B060
B060
B060
F060
F0C0
7180
3F00
0380
01E0
00F0
ENDCHAR
STARTCHAR 211D
ENCODING 8477
SWIDTH 660 0
DWIDTH 11 0
BBX 11 11 1 0
BITMAP
FF80
5180
5080
5080
5180
5F00
5300
5300
5180
5980
F8E0
ENDCHAR
STARTCHAR 2122
ENCODING 8482
SWIDTH 960 0
DWIDTH 16 0
BBX 15 6 1 7
BITMAP
FF8C
B5DC
31DC
31EC
316C
7B4E
ENDCHAR
STARTCHAR 2124
ENCODING 8484
SWIDTH 660 0
DWIDTH 11 0
BBX 10 11 1 0
BITMAP
FF80
C580
CD00
0B00
1A00
3600
2400
6C00
58C0
D080
FF80
ENDCHAR
STARTCHAR 2126
ENCODING 8486
SWIDTH 840 0
DWIDTH 14 0
BBX 12 11 1 0
BITMAP
1F80
70E0
6060
E070
E070
6070
6060
3060
9090
F9F0
F9F0
ENDCHAR
STARTCHAR 212E
ENCODING 8494
SWIDTH 540 0
DWIDTH 9 0
BBX 10 10 0 0
BITMAP
1E00
2100
4080
4080
FFC0
C000
C000
4080
2100
1E00
ENDCHAR
STARTCHAR 2153
ENCODING 8531
SWIDTH 900 0
DWIDTH 15 0
BBX 14 12 1 0
BITMAP
E030
6060
6040
6080
6180
617C
FA68
0410
0C3C
080C
100C
3078
ENDCHAR
STARTCHAR 2154
ENCODING 8532
SWIDTH 960 0
DWIDTH 16 0
BBX 15 12 1 0
BITMAP
F810
9830
9820
3040
68C0
F9BE
F924
0208
061E
0C06
0806
103C
ENDCHAR
STARTCHAR 215B
ENCODING 8539
SWIDTH 960 0
DWIDTH 16 0
BBX 15 12 1 0
BITMAP
E030
6060
6040
6080
6180
617C
FA6C
047C
0C3C
086E
1066
307C
ENDCHAR
STARTCHAR 215C
ENCODING 8540
SWIDTH 900 0
DWIDTH 15 0
BBX 14 12 1 0
BITMAP
F820
F060
2040
7080
3900
1B7C
F26C
0478
0C3C
186C
10EC
207C
ENDCHAR
STARTCHAR 215D
ENCODING 8541
SWIDTH 960 0
DWIDTH 16 0
BBX 16 13 0 0
BITMAP
0400
7C18
7C10
4020
7C40
0CC0
0CBE
FD32
033E
061E
0437
0833
183E
ENDCHAR
STARTCHAR 215E
ENCODING 8542
SWIDTH 900 0
DWIDTH 15 0
BBX 15 12 0 0
BITMAP
7C20
F860
D840
1080
3180
337C
726C
047C
0C3C
086E
1066
207C
ENDCHAR
STARTCHAR 2190
ENCODING 8592
SWIDTH 840 0
DWIDTH 14 0
BBX 12 6 1 1
BITMAP
1000
3000
FFF0
FFF0
3000
1000
ENDCHAR
STARTCHAR 2191
ENCODING 8593
SWIDTH 420 0
DWIDTH 7 0
BBX 6 12 1 0
BITMAP
30
30
78
FC
30
30
30
30
30
30
30
30
ENDCHAR
STARTCHAR 2192
ENCODING 8594
SWIDTH 840 0
DWIDTH 14 0
BBX 12 6 1 1
BITMAP
0080
00C0
FFF0
FFF0
00C0
0080
ENDCHAR
STARTCHAR 2193
ENCODING 8595
SWIDTH 420 0
DWIDTH 7 0
BBX 6 13 1 -1
BITMAP
30
30
20
20
20
20
20
20
AC
F8
70
30
20
ENDCHAR
STARTCHAR 2194
ENCODING 8596
SWIDTH 900 0
DWIDTH 15 0
BBX 14 6 1 1
BITMAP
1040
3030
FFFC
FFFC
3030
1060
ENDCHAR
STARTCHAR 2195
ENCODING 8597
SWIDTH 420 0
DWIDTH 7 0
BBX 6 13 1 -1
BITMAP
30
30
78
FC
30
30
30
30
B4
F8
78
30
20
ENDCHAR
STARTCHAR 2196
ENCODING 8598
SWIDTH 720 0
DWIDTH 12 0
BBX 10 10 1 1
BITMAP
C000
F800
E000
5000
4800
0400
0600
0300
0180
00C0
ENDCHAR
STARTCHAR 2197
ENCODING 8599
SWIDTH 660 0
DWIDTH 11 0
BBX 10 10 1 0
BITMAP
01C0
07C0
0180
0280
0480
0800
1000
2000
6000
C000
ENDCHAR
STARTCHAR 2198
ENCODING 8600
SWIDTH 720 0
DWIDTH 12 0
BBX 10 10 1 1
BITMAP
8000
C000
2000
1000
0800
0440
02C0
01C0
03C0
07C0
ENDCHAR
STARTCHAR 2199
ENCODING 8601
SWIDTH 720 0
DWIDTH 12 0
BBX 10 10 1 1
BITMAP
0040
00C0
0180
0300
0600
4C00
5000
E000
F800
F800
ENDCHAR
STARTCHAR 21A4
ENCODING 8612
SWIDTH 840 0
DWIDTH 14 0
BBX 12 6 1 1
BITMAP
1010
3010
FFF0
FFF0
3010
1010
ENDCHAR
STARTCHAR 21A5
ENCODING 8613
SWIDTH 480 0
DWIDTH 8 0
BBX 6 12 1 0
BITMAP
30
30
78
FC
30
30
30
30
30
30
30
FC
ENDCHAR
STARTCHAR 21A6
ENCODING 8614
SWIDTH 840 0
DWIDTH 14 0
BBX 12 6 1 1
BITMAP
8080
8060
FFF0
FFF0
8060
8080
ENDCHAR
STARTCHAR 21A7
ENCODING 8615
SWIDTH 420 0
DWIDTH 7 0
BBX 6 13 1 -1
BITMAP
FC
30
30
30
20
20
20
20
AC
78
70
30
20
ENDCHAR
STARTCHAR 21B0
ENCODING 8624
SWIDTH 660 0
DWIDTH 11 0
BBX 9 12 1 0
BITMAP
1000
3000
FF80
E080
3080
1080
0080
0080
0080
0080
0080
0080
ENDCHAR
STARTCHAR 21B1
ENCODING 8625
SWIDTH 660 0
DWIDTH 11 0
BBX 9 12 2 0
BITMAP
0400
0700
FF80
8300
8600
8400
8000
8000
8000
8000
8000
8000
ENDCHAR
STARTCHAR 21B2
ENCODING 8626
SWIDTH 660 0
DWIDTH 11 0
BBX 9 13 1 -1
BITMAP
0080
0080
0080
0080
0080
0080
0080
1080
7080
FF80
6000
3000
1000
ENDCHAR
STARTCHAR 21B3
ENCODING 8627
SWIDTH 720 0
DWIDTH 12 0
BBX 9 13 2 -1
BITMAP
8000
8000
8000
8000
8000
8000
8000
8400
8700
FF80
0300
0600
0400
ENDCHAR
STARTCHAR 21BC
ENCODING 8636
SWIDTH 840 0
DWIDTH 14 0
BBX 12 4 1 3
BITMAP
1000
3000
FFF0
FFF0
ENDCHAR
STARTCHAR 21BD
ENCODING 8637
SWIDTH 840 0
DWIDTH 14 0
BBX 12 4 1 1
BITMAP
FFF0
FFF0
3000
1000
ENDCHAR
STARTCHAR 21BE
ENCODING 8638
SWIDTH 360 0
DWIDTH 6 0
BBX 3 12 2 0
BITMAP
80
80
C0
E0
80
80
80
80
80
80
80
80
ENDCHAR
STARTCHAR 21BF
ENCODING 8639
SWIDTH 360 0
DWIDTH 6 0
BBX 4 12 1 0
BITMAP
30
30
70
F0
B0
30
30
30
30
30
30
30
ENDCHAR
STARTCHAR 21C0
ENCODING 8640
SWIDTH 840 0
DWIDTH 14 0
BBX 12 4 1 3
BITMAP
0080
00C0
FFF0
FFF0
ENDCHAR
STARTCHAR 21C1
ENCODING 8641
SWIDTH 840 0
DWIDTH 14 0
BBX 12 4 1 1
BITMAP
FFF0
FFF0
0040
0080
ENDCHAR
STARTCHAR 21C2
ENCODING 8642
SWIDTH 360 0
DWIDTH 6 0
BBX 4 12 2 -1
BITMAP
80
80
80
80
80
80
80
80
B0
E0
C0
80
ENDCHAR
STARTCHAR 21C3
ENCODING 8643
SWIDTH 360 0
DWIDTH 6 0
BBX 4 13 1 -1
BITMAP
30
30
30
30
30
30
30
30
A0
60
60
20
20
ENDCHAR
STARTCHAR 21C4
ENCODING 8644
SWIDTH 840 0
DWIDTH 14 0
BBX 12 11 1 -2
BITMAP
0080
00E0
FFF0
FC70
00C0
1080
3000
FFF0
E070
3000
1000
ENDCHAR
STARTCHAR 21C5
ENCODING 8645
SWIDTH 780 0
DWIDTH 13 0
BBX 11 12 1 -1
BITMAP
3080
3080
7880
FC80
3080
3080
3080
3080
34A0
33E0
31C0
3180
ENDCHAR
STARTCHAR 21C6
ENCODING 8646
SWIDTH 840 0
DWIDTH 14 0
BBX 12 11 1 -2
BITMAP
1000
3000
FFF0
E1F0
3000
1080
00E0
FFF0
E070
00C0
0080
ENDCHAR
STARTCHAR 21C7
ENCODING 8647
SWIDTH 840 0
DWIDTH 14 0
BBX 12 10 1 -1
BITMAP
3000
7000
FFF0
7000
1000
1000
7000
FFF0
7000
3000
ENDCHAR
STARTCHAR 21C8
ENCODING 8648
SWIDTH 780 0
DWIDTH 13 0
BBX 11 12 1 0
BITMAP
3080
3180
7BC0
FFE0
3080
3080
3080
3080
3080
3080
3080
3080
ENDCHAR
STARTCHAR 21C9
ENCODING 8649
SWIDTH 840 0
DWIDTH 14 0
BBX 12 11 1 -1
BITMAP
0080
00C0
0060
FFF0
0060
00C0
00C0
0060
FFF0
0060
00C0
ENDCHAR
STARTCHAR 21CA
ENCODING 8650
SWIDTH 780 0
DWIDTH 13 0
BBX 11 13 1 -1
BITMAP
3180
3180
2180
2180
2180
2180
2180
2180
ADA0
FBC0
73C0
3180
2000
ENDCHAR
STARTCHAR 21CB
ENCODING 8651
SWIDTH 840 0
DWIDTH 14 0
BBX 13 10 1 -1
BITMAP
1800
3000
FFF0
FFF8
0000
0000
FFF0
FFF0
0060
0080
ENDCHAR
STARTCHAR 21CC
ENCODING 8652
SWIDTH 840 0
DWIDTH 14 0
BBX 13 10 1 -1
BITMAP
0080
00E0
FFF0
FFF8
0000
0000
FFF0
7FF8
3000
1800
ENDCHAR
STARTCHAR 21D2
ENCODING 8658
SWIDTH 840 0
DWIDTH 14 0
BBX 12 9 1 0
BITMAP
0080
00C0
FFE0
0070
0030
FFE0
0040
0080
0080
ENDCHAR
STARTCHAR 21D4
ENCODING 8660
SWIDTH 900 0
DWIDTH 15 0
BBX 14 9 1 0
BITMAP
1060
3030
7FF8
E01C
E01C
7FF8
3030
1020
0040
ENDCHAR
STARTCHAR 21F5
ENCODING 8693
SWIDTH 780 0
DWIDTH 13 0
BBX 11 13 1 -1
BITMAP
3080
31C0
21C0
23E0
2080
2080
2080
2080
AC80
F880
7080
3080
2000
ENDCHAR
STARTCHAR 2200
ENCODING 8704
SWIDTH 660 0
DWIDTH 11 0
BBX 11 11 0 0
BITMAP
F8E0
7060
3840
3FC0
1880
1C80
0D00
0F00
0F00
0600
0600
ENDCHAR
STARTCHAR 2202
ENCODING 8706
SWIDTH 540 0
DWIDTH 9 0
BBX 8 12 1 0
BITMAP
70
38
1C
0E
3E
67
C7
C7
C7
C7
E6
7C
ENDCHAR
STARTCHAR 2203
ENCODING 8707
SWIDTH 600 0
DWIDTH 10 0
BBX 9 11 1 0
BITMAP
FF80
C700
8600
0600
2600
3E00
2600
0600
8600
C700
FF80
ENDCHAR
STARTCHAR 2204
ENCODING 8708
SWIDTH 540 0
DWIDTH 9 0
BBX 9 17 1 -3
BITMAP
0800
0800
0800
FF80
D700
9600
1600
3600
3E00
3600
2600
A600
E700
FF80
2000
4000
4000
ENDCHAR
STARTCHAR 2205
ENCODING 8709
SWIDTH 540 0
DWIDTH 9 0
BBX 9 9 0 0
BITMAP
0080
3F80
4300
4780
4D80
5980
7100
7300
DC00
ENDCHAR
STARTCHAR 2206
ENCODING 8710
SWIDTH 660 0
DWIDTH 11 0
BBX 11 11 0 0
BITMAP
0400
0E00
0E00
1700
1300
2380
2380
61C0
41C0
40E0
FFE0
ENDCHAR
STARTCHAR 2207
ENCODING 8711
SWIDTH 660 0
DWIDTH 11 0
BBX 11 11 0 0
BITMAP
FFE0
6040
7040
3080
3880
1980
1D00
1D00
0E00
0E00
0400
ENDCHAR
STARTCHAR 2208
ENCODING 8712
SWIDTH 540 0
DWIDTH 9 0
BBX 7 8 1 0
BITMAP
7E
C0
80
FE
80
C0
7E
1E
ENDCHAR
STARTCHAR 2209
ENCODING 8713
SWIDTH 540 0
DWIDTH 9 0
BBX 7 12 1 -2
BITMAP
02
04
7E
CC
88
FE
98
D0
7E
3E
20
20
ENDCHAR
STARTCHAR 220B
ENCODING 8715
SWIDTH 540 0
DWIDTH 9 0
BBX 7 8 1 0
BITMAP
FC
06
02
FE
02
02
FC
F0
ENDCHAR
STARTCHAR 220C
ENCODING 8716
SWIDTH 540 0
DWIDTH 9 0
BBX 7 12 1 -2
BITMAP
04
08
FC
1E
12
FE
32
22
FC
F0
40
40
ENDCHAR
STARTCHAR 220E
ENCODING 8718
SWIDTH 540 0
DWIDTH 9 0
BBX 7 11 1 0
BITMAP
FE
FE
FE
FE
FE
FE
FE
FE
FE
FE
FE
ENDCHAR
STARTCHAR 220F
ENCODING 8719
SWIDTH 720 0
DWIDTH 12 0
BBX 11 13 1 -2
BITMAP
FFE0
61C0
60C0
60C0
60C0
60C0
60C0
60C0
60C0
60C0
60C0
71C0
FBE0
ENDCHAR
STARTCHAR 2211
ENCODING 8721
SWIDTH 660 0
DWIDTH 11 0
BBX 10 13 1 -2
BITMAP
FF80
E080
7080
3000
3800
1C00
1C00
1800
3000
20C0
4180
FF80
FF80
ENDCHAR
STARTCHAR 2212
ENCODING 8722
SWIDTH 540 0
DWIDTH 9 0
BBX 8 1 1 4
BITMAP
FF
ENDCHAR
STARTCHAR 2213
ENCODING 8723
SWIDTH 540 0
DWIDTH 9 0
BBX 7 8 1 0
BITMAP
FE
00
10
10
7E
10
10
10
ENDCHAR
STARTCHAR 2215
ENCODING 8725
SWIDTH 540 0
DWIDTH 9 0
BBX 5 12 2 -2
BITMAP
08
08
10
10
30
20
20
60
40
40
80
80
ENDCHAR
STARTCHAR 2216
ENCODING 8726
SWIDTH 540 0
DWIDTH 9 0
BBX 5 12 2 -2
BITMAP
80
C0
40
40
20
20
20
10
10
18
08
08
ENDCHAR
STARTCHAR 2217
ENCODING 8727
SWIDTH 540 0
DWIDTH 9 0
BBX 7 7 1 1
BITMAP
10
10
F6
38
7C
D6
10
ENDCHAR
STARTCHAR 2218
ENCODING 8728
SWIDTH 540 0
DWIDTH 9 0
BBX 5 5 2 2
BITMAP
20
D8
C8
C8
70
ENDCHAR
STARTCHAR 2219
ENCODING 8729
SWIDTH 540 0
DWIDTH 9 0
BBX 5 4 2 2
BITMAP
78
F8
F8
70
ENDCHAR
STARTCHAR 221A
ENCODING 8730
SWIDTH 540 0
DWIDTH 9 0
BBX 11 16 0 -3
BITMAP
01E0
0100
0100
0100
0100
0300
0200
0200
0200
F600
3400
3C00
1C00
1C00
1C00
0800
ENDCHAR
STARTCHAR 221D
ENCODING 8733
SWIDTH 720 0
DWIDTH 12 0
BBX 11 7 1 1
BITMAP
7860
FEC0
8780
8300
8380
C5C0
78E0
ENDCHAR
STARTCHAR 221E
ENCODING 8734
SWIDTH 960 0
DWIDTH 16 0
BBX 14 7 1 1
BITMAP
7878
FE8C
8704
8304
8384
C5CC
78F8
ENDCHAR
STARTCHAR 221F
ENCODING 8735
SWIDTH 540 0
DWIDTH 9 0
BBX 8 8 1 0
BITMAP
C0
C0
C0
C0
C0
C0
C0
FF
ENDCHAR
STARTCHAR 2220
ENCODING 8736
SWIDTH 540 0
DWIDTH 9 0
BBX 9 8 0 0
BITMAP
0200
0600
0C00
1800
3000
2000
4000
FF80
ENDCHAR
STARTCHAR 2221
ENCODING 8737
SWIDTH 540 0
DWIDTH 9 0
BBX 9 8 0 0
BITMAP
0200
0600
1C00
1C00
3400
2200
4200
FF80
ENDCHAR
STARTCHAR 2222
ENCODING 8738
SWIDTH 540 0
DWIDTH 9 0
BBX 7 8 1 0
BITMAP
1A
0E
78
8C
E8
18
0E
18
ENDCHAR
STARTCHAR 2223
ENCODING 8739
SWIDTH 540 0
DWIDTH 9 0
BBX 1 16 4 -4
BITMAP
80
80
80
80
80
80
80
80
80
80
80
80
80
80
80
80
ENDCHAR
STARTCHAR 2224
ENCODING 8740
SWIDTH 540 0
DWIDTH 9 0
BBX 7 16 1 -4
BITMAP
10
10
10
10
10
10
16
1C
30
F0
10
10
10
10
10
10
ENDCHAR
STARTCHAR 2225
ENCODING 8741
SWIDTH 540 0
DWIDTH 9 0
BBX 5 16 2 -4
BITMAP
88
88
88
88
88
88
88
88
88
88
88
88
88
88
88
88
ENDCHAR
STARTCHAR 2226
ENCODING 8742
SWIDTH 540 0
DWIDTH 9 0
BBX 9 16 0 -4
BITMAP
2200
2200
2200
2200
2200
2280
2300
2600
3A00
3200
E200
2200
2200
2200
2200
2200
ENDCHAR
STARTCHAR 2227
ENCODING 8743
SWIDTH 540 0
DWIDTH 9 0
BBX 9 8 0 0
BITMAP
0800
1C00
1400
3200
2200
6100
4100
C080
ENDCHAR
STARTCHAR 2228
ENCODING 8744
SWIDTH 540 0
DWIDTH 9 0
BBX 9 8 0 0
BITMAP
C180
4100
6300
2200
3600
1400
1C00
0800
ENDCHAR
STARTCHAR 2229
ENCODING 8745
SWIDTH 540 0
DWIDTH 9 0
BBX 7 8 1 0
BITMAP
7C
C6
82
82
82
82
82
82
ENDCHAR
STARTCHAR 222A
ENCODING 8746
SWIDTH 540 0
DWIDTH 9 0
BBX 7 8 1 0
BITMAP
82
82
82
82
82
82
C6
38
ENDCHAR
STARTCHAR 222B
ENCODING 8747
SWIDTH 300 0
DWIDTH 5 0
BBX 6 14 0 -2
BITMAP
1C
3C
30
30
30
30
30
30
30
30
30
30
20
E0
ENDCHAR
STARTCHAR 222C
ENCODING 8748
SWIDTH 540 0
DWIDTH 9 0
BBX 10 14 0 -2
BITMAP
1CC0
3DC0
3300
3300
3300
3300
3300
3300
3300
3300
3300
3300
2300
EE00
ENDCHAR
STARTCHAR 222D
ENCODING 8749
SWIDTH 840 0
DWIDTH 14 0
BBX 14 14 0 -2
BITMAP
1CCC
3DDC
3330
3330
3330
3330
3330
3330
3330
3338
3330
3330
2330
EEE0
ENDCHAR
STARTCHAR 222E
ENCODING 8750
SWIDTH 420 0
DWIDTH 7 0
BBX 7 14 0 -2
BITMAP
0C
1E
10
30
3C
7C
BA
BA
FE
7C
18
18
30
F0
ENDCHAR
STARTCHAR 222F
ENCODING 8751
SWIDTH 600 0
DWIDTH 10 0
BBX 11 14 0 -2
BITMAP
0CE0
1DE0
3180
3300
3F80
73C0
BBA0
BBA0
F9E0
7FC0
3980
1180
3300
EF00
ENDCHAR
STARTCHAR 2230
ENCODING 8752
SWIDTH 900 0
DWIDTH 15 0
BBX 15 14 0 -2
BITMAP
0CEE
1DFE
3118
3318
3FF8
73BC
FB9A
FB9A
799C
3FF8
3998
1198
3310
EE70
ENDCHAR
STARTCHAR 2234
ENCODING 8756
SWIDTH 540 0
DWIDTH 9 0
BBX 7 6 1 1
BITMAP
38
38
00
00
C6
C6
ENDCHAR
STARTCHAR 2235
ENCODING 8757
SWIDTH 540 0
DWIDTH 9 0
BBX 7 6 1 1
BITMAP
C6
C6
00
00
38
38
ENDCHAR
STARTCHAR 2236
ENCODING 8758
SWIDTH 540 0
DWIDTH 9 0
BBX 3 7 3 1
BITMAP
60
E0
40
00
00
E0
E0
ENDCHAR
STARTCHAR 223C
ENCODING 8764
SWIDTH 540 0
DWIDTH 9 0
BBX 7 3 1 3
BITMAP
20
FA
8C
ENDCHAR
STARTCHAR 223D
ENCODING 8765
SWIDTH 540 0
DWIDTH 9 0
BBX 7 2 1 4
BITMAP
9E
72
ENDCHAR
STARTCHAR 2241
ENCODING 8769
SWIDTH 540 0
DWIDTH 9 0
BBX 7 5 1 1
BITMAP
08
38
FA
9C
30
ENDCHAR
STARTCHAR 2243
ENCODING 8771
SWIDTH 540 0
DWIDTH 9 0
BBX 7 5 1 2
BITMAP
F2
8E
00
00
FE
ENDCHAR
STARTCHAR 2245
ENCODING 8773
SWIDTH 540 0
DWIDTH 9 0
BBX 7 7 1 1
BITMAP
60
FE
8C
00
FE
00
FE
ENDCHAR
STARTCHAR 2248
ENCODING 8776
SWIDTH 540 0
DWIDTH 9 0
BBX 7 6 1 1
BITMAP
72
9E
00
70
FE
04
ENDCHAR
STARTCHAR 2249
ENCODING 8777
SWIDTH 540 0
DWIDTH 9 0
BBX 7 12 1 -2
BITMAP
04
04
08
7A
9E
10
70
FE
24
20
40
40
ENDCHAR
STARTCHAR 2254
ENCODING 8788
SWIDTH 540 0
DWIDTH 9 0
BBX 7 5 1 2
BITMAP
C0
DE
00
C0
DE
ENDCHAR
STARTCHAR 2259
ENCODING 8793
SWIDTH 540 0
DWIDTH 9 0
BBX 7 10 1 2
BITMAP
10
28
28
44
44
00
FE
00
00
FE
ENDCHAR
STARTCHAR 225C
ENCODING 8796
SWIDTH 540 0
DWIDTH 9 0
BBX 7 10 1 2
BITMAP
10
28
28
44
7C
00
FE
00
00
FE
ENDCHAR
STARTCHAR 2260
ENCODING 8800
SWIDTH 540 0
DWIDTH 9 0
BBX 7 12 1 -2
BITMAP
04
04
08
08
FE
10
10
FE
20
20
40
40
ENDCHAR
STARTCHAR 2261
ENCODING 8801
SWIDTH 540 0
DWIDTH 9 0
BBX 7 6 1 1
BITMAP
FE
00
FE
00
00
FE
ENDCHAR
STARTCHAR 2262
ENCODING 8802
SWIDTH 540 0
DWIDTH 9 0
BBX 7 12 1 -2
BITMAP
04
04
08
FE
18
FE
10
30
FE
20
40
40
ENDCHAR
STARTCHAR 2263
ENCODING 8803
SWIDTH 540 0
DWIDTH 9 0
BBX 7 8 1 0
BITMAP
FE
00
FE
00
FE
00
00
FE
ENDCHAR
STARTCHAR 2264
ENCODING 8804
SWIDTH 540 0
DWIDTH 9 0
BBX 7 8 1 0
BITMAP
0E
38
E0
C0
38
06
00
FE
ENDCHAR
STARTCHAR 2265
ENCODING 8805
SWIDTH 540 0
DWIDTH 9 0
BBX 7 8 1 0
BITMAP
E0
38
0E
06
38
E0
00
FE
ENDCHAR
STARTCHAR 226A
ENCODING 8810
SWIDTH 540 0
DWIDTH 9 0
BBX 9 8 0 0
BITMAP
1980
3300
6400
C800
4C00
3600
1980
0880
ENDCHAR
STARTCHAR 226B
ENCODING 8811
SWIDTH 540 0
DWIDTH 9 0
BBX 9 8 0 0
BITMAP
CC00
6600
1300
0880
1980
3200
4C00
8800
ENDCHAR
STARTCHAR 2270
ENCODING 8816
SWIDTH 540 0
DWIDTH 9 0
BBX 7 12 1 -2
BITMAP
04
0C
0E
38
F0
D0
38
26
20
FE
40
40
ENDCHAR
STARTCHAR 2271
ENCODING 8817
SWIDTH 540 0
DWIDTH 9 0
BBX 7 11 1 -2
BITMAP
08
08
F8
38
1E
36
38
E0
40
FE
C0
ENDCHAR
STARTCHAR 2282
ENCODING 8834
SWIDTH 540 0
DWIDTH 9 0
BBX 7 8 1 0
BITMAP
7E
C0
80
80
80
C0
7E
1E
ENDCHAR
STARTCHAR 2283
ENCODING 8835
SWIDTH 540 0
DWIDTH 9 0
BBX 7 8 1 0
BITMAP
FC
06
02
02
02
02
FC
F0
ENDCHAR
STARTCHAR 2284
ENCODING 8836
SWIDTH 540 0
DWIDTH 9 0
BBX 7 12 1 -2
BITMAP
02
04
7E
CC
88
88
98
D0
7E
3E
20
20
ENDCHAR
STARTCHAR 2285
ENCODING 8837
SWIDTH 540 0
DWIDTH 9 0
BBX 7 12 1 -2
BITMAP
0C
08
FC
1E
12
12
22
22
FC
F0
40
40
ENDCHAR
STARTCHAR 2286
ENCODING 8838
SWIDTH 540 0
DWIDTH 9 0
BBX 7 8 1 0
BITMAP
7E
80
80
80
7E
00
FE
FE
ENDCHAR
STARTCHAR 2287
ENCODING 8839
SWIDTH 540 0
DWIDTH 9 0
BBX 7 8 1 0
BITMAP
FE
02
02
02
FE
00
FE
FE
ENDCHAR
STARTCHAR 2288
ENCODING 8840
SWIDTH 540 0
DWIDTH 9 0
BBX 7 12 1 -2
BITMAP
04
04
7E
88
98
90
7E
30
FE
FE
40
40
ENDCHAR
STARTCHAR 2289
ENCODING 8841
SWIDTH 540 0
DWIDTH 9 0
BBX 7 11 1 -2
BITMAP
0C
08
FE
12
12
32
FE
20
FE
FE
40
ENDCHAR
STARTCHAR 2295
ENCODING 8853
SWIDTH 540 0
DWIDTH 9 0
BBX 8 8 1 0
BITMAP
7C
82
93
BF
93
92
66
38
ENDCHAR
STARTCHAR 22C5
ENCODING 8901
SWIDTH 540 0
DWIDTH 9 0
BBX 3 3 3 3
BITMAP
40
E0
60
ENDCHAR
STARTCHAR 2308
ENCODING 8968
SWIDTH 300 0
DWIDTH 5 0
BBX 4 16 1 -4
BITMAP
F0
80
80
80
80
80
80
80
80
80
80
80
80
80
80
80
ENDCHAR
STARTCHAR 2309
ENCODING 8969
SWIDTH 240 0
DWIDTH 4 0
BBX 4 16 0 -4
BITMAP
F0
10
10
10
10
10
10
10
10
10
10
10
10
10
10
10
ENDCHAR
STARTCHAR 230A
ENCODING 8970
SWIDTH 300 0
DWIDTH 5 0
BBX 4 16 1 -4
BITMAP
80
80
80
80
80
80
80
80
80
80
80
80
80
80
80
F0
ENDCHAR
STARTCHAR 230B
ENCODING 8971
SWIDTH 240 0
DWIDTH 4 0
BBX 4 16 0 -4
BITMAP
10
10
10
10
10
10
10
10
10
10
10
10
10
10
10
F0
ENDCHAR
STARTCHAR 23DE
ENCODING 9182
SWIDTH 840 0
DWIDTH 14 0
BBX 14 6 0 1
BITMAP
0100
0300
7FF8
7EFC
C004
0004
ENDCHAR
STARTCHAR 23DF
ENCODING 9183
SWIDTH 840 0
DWIDTH 14 0
BBX 14 5 0 1
BITMAP
8004
7CFC
7FF8
0380
0100
ENDCHAR
STARTCHAR 25A0
ENCODING 9632
SWIDTH 720 0
DWIDTH 12 0
BBX 12 11 0 0
BITMAP
FFF0
FFF0
FFF0
FFF0
FFF0
FFF0
FFF0
FFF0
FFF0
FFF0
FFF0
ENDCHAR
STARTCHAR 25A1
ENCODING 9633
SWIDTH 720 0
DWIDTH 12 0
BBX 12 11 0 0
BITMAP
FFF0
8010
8010
8010
8010
8010
8010
8010
8010
8010
FFF0
ENDCHAR
STARTCHAR 25B2
ENCODING 9650
SWIDTH 780 0
DWIDTH 13 0
BBX 13 11 0 0
BITMAP
0300
0700
0780
0F80
0FC0
1FE0
3FE0
3FF0
7FF0
7FF8
FFF8
ENDCHAR
STARTCHAR 25B3
ENCODING 9651
SWIDTH 780 0
DWIDTH 13 0
BBX 13 11 0 0
BITMAP
0300
0700
0480
0880
0840
1060
3020
2030
6010
4008
FFF8
ENDCHAR
STARTCHAR 25B6
ENCODING 9654
SWIDTH 720 0
DWIDTH 12 0
BBX 11 13 1 -1
BITMAP
C000
F000
F800
FE00
FF80
FFE0
FFE0
FFC0
FF00
FC00
F800
E000
8000
ENDCHAR
STARTCHAR 25B7
ENCODING 9655
SWIDTH 720 0
DWIDTH 12 0
BBX 11 13 1 -1
BITMAP
C000
E000
9800
8600
8180
80E0
8020
80C0
8300
8C00
B800
E000
8000
ENDCHAR
STARTCHAR 25BC
ENCODING 9660
SWIDTH 780 0
DWIDTH 13 0
BBX 13 11 0 0
BITMAP
FFF8
7FF8
7FF0
3FF0
1FE0
1FC0
0FC0
0F80
0780
0700
0300
ENDCHAR
STARTCHAR 25BD
ENCODING 9661
SWIDTH 780 0
DWIDTH 13 0
BBX 13 11 0 0
BITMAP
FFF8
4018
6010
2030
1020
1040
0840
0C80
0580
0700
0300
ENDCHAR
STARTCHAR 25C0
ENCODING 9664
SWIDTH 720 0
DWIDTH 12 0
BBX 12 13 0 -1
BITMAP
0030
00F0
03F0
07F0
1FF0
7FF0
FFF0
3FF0
0FF0
07F0
01F0
0070
0010
ENDCHAR
STARTCHAR 25C1
ENCODING 9665
SWIDTH 720 0
DWIDTH 12 0
BBX 12 13 0 -1
BITMAP
0030
00D0
0190
0610
1810
6010
C010
3010
0C10
0610
0190
0070
0030
ENDCHAR
STARTCHAR 25C6
ENCODING 9670
SWIDTH 720 0
DWIDTH 12 0
BBX 11 11 1 0
BITMAP
0C00
1E00
3F00
7F80
FFC0
FFE0
7FC0
3F80
1F00
1E00
0C00
ENDCHAR
STARTCHAR 25C7
ENCODING 9671
SWIDTH 720 0
DWIDTH 12 0
BBX 11 11 1 0
BITMAP
0C00
1A00
3100
6080
C040
8060
40C0
2180
1300
1E00
0C00
ENDCHAR
STARTCHAR 25CA
ENCODING 9674
SWIDTH 540 0
DWIDTH 9 0
BBX 8 11 1 0
BITMAP
10
38
24
46
83
81
C2
46
24
18
10
ENDCHAR
STARTCHAR 26AD
ENCODING 9901
SWIDTH 960 0
DWIDTH 16 0
BBX 15 10 1 -1
BITMAP
3EF8
630C
C286
8282
8682
8682
8282
C386
639C
1C70
ENDCHAR
STARTCHAR 26AE
ENCODING 9902
SWIDTH 1260 0
DWIDTH 21 0
BBX 20 13 1 -2
BITMAP
004000
004000
3E4FC0
415860
80D020
80E030
80E010
80E010
80E030
C1D020
634CC0
1C4780
004000
ENDCHAR
STARTCHAR 26AF
ENCODING 9903
SWIDTH 1320 0
DWIDTH 22 0
BBX 21 10 1 -1
BITMAP
3E03E0
630630
C08818
808808
80F808
80D808
808808
C18C18
730670
1C01C0
ENDCHAR
STARTCHAR 27C2
ENCODING 10178
SWIDTH 540 0
DWIDTH 9 0
BBX 9 8 0 0
BITMAP
0800
0800
0800
0800
0800
0800
0800
FF80
ENDCHAR
STARTCHAR 27E8
ENCODING 10216
SWIDTH 360 0
DWIDTH 6 0
BBX 5 16 1 -5
BITMAP
08
10
10
30
20
60
E0
C0
C0
E0
60
20
30
10
10
08
ENDCHAR
STARTCHAR 27E9
ENCODING 10217
SWIDTH 360 0
DWIDTH 6 0
BBX 5 16 1 -5
BITMAP
80
80
C0
40
60
60
30
38
38
30
60
60
40
C0
80
80
ENDCHAR
STARTCHAR 2983
ENCODING 10627
SWIDTH 540 0
DWIDTH 9 0
BBX 8 16 1 -4
BITMAP
3F
6C
6C
6C
6C
6C
6C
CC
EC
6C
6C
6C
6C
6C
6C
3F
ENDCHAR
STARTCHAR 2984
ENCODING 10628
SWIDTH 540 0
DWIDTH 9 0
BBX 8 16 1 -4
BITMAP
FC
2C
24
2C
2C
2C
2C
27
26
2C
2C
2C
2C
2C
2C
F8
ENDCHAR
STARTCHAR 299B
ENCODING 10651
SWIDTH 540 0
DWIDTH 9 0
BBX 9 8 0 0
BITMAP
2000
3000
1C00
1C00
1600
3300
2180
FF80
ENDCHAR
STARTCHAR 299D
ENCODING 10653
SWIDTH 540 0
DWIDTH 9 0
BBX 8 8 1 0
BITMAP
C0
C0
F0
C8
C4
F4
C4
FF
ENDCHAR
STARTCHAR 2A2F
ENCODING 10799
SWIDTH 540 0
DWIDTH 9 0
BBX 7 8 1 0
BITMAP
82
44
28
10
38
6C
C6
82
ENDCHAR
STARTCHAR 2B58
ENCODING 11096
SWIDTH 540 0
DWIDTH 9 0
BBX 9 8 0 0
BITMAP
3E00
4100
4180
C180
4180
4100
3300
1C00
ENDCHAR
STARTCHAR 2E18
ENCODING 11800
SWIDTH 540 0
DWIDTH 9 0
BBX 7 12 1 -4
BITMAP
18
18
18
00
18
18
28
78
D8
DA
C2
7E
ENDCHAR
STARTCHAR 2E22
ENCODING 11810
SWIDTH 240 0
DWIDTH 4 0
BBX 4 8 1 4
BITMAP
F0
80
80
80
80
80
80
80
ENDCHAR
STARTCHAR 2E23
ENCODING 11811
SWIDTH 300 0
DWIDTH 5 0
BBX 4 8 0 4
BITMAP
F0
10
10
10
10
10
10
10
ENDCHAR
STARTCHAR 2E24
ENCODING 11812
SWIDTH 300 0
DWIDTH 5 0
BBX 4 8 1 -4
BITMAP
80
80
80
80
80
80
80
F0
ENDCHAR
STARTCHAR 2E25
ENCODING 11813
SWIDTH 240 0
DWIDTH 4 0
BBX 4 8 0 -4
BITMAP
10
10
10
10
10
10
10
F0
ENDCHAR
STARTCHAR 2E3A
ENCODING 11834
SWIDTH 2040 0
DWIDTH 34 0
BBX 32 1 1 4
BITMAP
FFFFFFFF
ENDCHAR
STARTCHAR 2E3B
ENCODING 11835
SWIDTH 3060 0
DWIDTH 51 0
BBX 49 1 1 4
BITMAP
FFFFFFFFFFFF80
ENDCHAR
STARTCHAR FB01
ENCODING 64257
SWIDTH 660 0
DWIDTH 11 0
BBX 10 12 1 0
BITMAP
1F80
3380
6180
6000
6180
FF80
6180
6180
6180
6180
6180
F3C0
ENDCHAR
STARTCHAR FB02
ENCODING 64258
SWIDTH 660 0
DWIDTH 11 0
BBX 10 12 1 0
BITMAP
1F80
3380
6180
6180
6180
F980
6180
6180
6180
6180
6180
FBC0
ENDCHAR
ENDFONT
